<svg width="87" height="544" viewBox="0 0 87 544" fill="none" xmlns="http://www.w3.org/2000/svg">
<g opacity="0.4">
<path d="M11.9689 478.077L33.0939 510.541L17.7825 544.277L11.9689 478.077Z" fill="#B1B1B1" fill-opacity="0.3"/>
<path d="M68.862 506.433L33.0938 510.541L17.7822 544.276L68.862 506.433Z" fill="#434343" fill-opacity="0.7"/>
<path d="M11.9686 478.076L33.0938 510.541L68.8621 506.433L11.9686 478.076Z" fill="#888888" fill-opacity="0.7"/>
<path d="M68.0993 442.993L49.1501 476.774L11.9689 478.076L68.0993 442.993Z" fill="#B1B1B1" fill-opacity="0.3"/>
<path d="M68.8624 506.433L49.15 476.774L11.9688 478.076L68.8624 506.433Z" fill="#434343" fill-opacity="0.7"/>
<path d="M68.0995 442.993L49.1503 476.774L68.8626 506.433L68.0995 442.993Z" fill="#888888" fill-opacity="0.7"/>
<path d="M11.1774 392.322L49.887 390.983L68.7207 359.08L11.1774 392.322Z" fill="#B1B1B1" fill-opacity="0.3"/>
<path d="M67.0565 422.629L49.8872 390.983L68.7206 359.08L67.0565 422.629Z" fill="#434343" fill-opacity="0.7"/>
<path d="M11.1775 392.322L49.8874 390.984L67.0568 422.629L11.1775 392.322Z" fill="#888888" fill-opacity="0.7"/>
<path d="M14.6721 458.422L31.4548 423.514L11.1774 392.322L14.6721 458.422Z" fill="#B1B1B1" fill-opacity="0.3"/>
<path d="M67.0566 422.629L31.4549 423.514L11.1774 392.322L67.0566 422.629Z" fill="#434343" fill-opacity="0.7"/>
<path d="M14.672 458.423L31.455 423.515L67.0566 422.629L14.672 458.423Z" fill="#888888" fill-opacity="0.7"/>
<path d="M70.4515 339.227L31.7229 338.66L11.3428 369.598L70.4515 339.227Z" fill="#B1B1B1" fill-opacity="0.3"/>
<path d="M16.1311 306.208L31.723 338.66L11.3432 369.598L16.1311 306.208Z" fill="#434343" fill-opacity="0.7"/>
<path d="M70.4518 339.227L31.723 338.66L16.131 306.208L70.4518 339.227Z" fill="#888888" fill-opacity="0.7"/>
<path d="M70.2123 273.035L51.7329 307.075L70.4514 339.227L70.2123 273.035Z" fill="#B1B1B1" fill-opacity="0.3"/>
<path d="M16.1309 306.208L51.733 307.075L70.4517 339.227L16.1309 306.208Z" fill="#434343" fill-opacity="0.7"/>
<path d="M70.2125 273.035L51.7329 307.075L16.1308 306.208L70.2125 273.035Z" fill="#888888" fill-opacity="0.7"/>
<path d="M71.0775 251.025L32.3489 250.458L11.9688 281.396L71.0775 251.025Z" fill="#B1B1B1" fill-opacity="0.3"/>
<path d="M16.7571 218.006L32.349 250.458L11.9691 281.396L16.7571 218.006Z" fill="#434343" fill-opacity="0.7"/>
<path d="M71.0778 251.025L32.349 250.458L16.757 218.006L71.0778 251.025Z" fill="#888888" fill-opacity="0.7"/>
<path d="M70.8383 184.833L52.3588 218.873L71.0774 251.025L70.8383 184.833Z" fill="#B1B1B1" fill-opacity="0.3"/>
<path d="M16.7569 218.006L52.359 218.873L71.0777 251.025L16.7569 218.006Z" fill="#434343" fill-opacity="0.7"/>
<path d="M70.8385 184.833L52.3589 218.873L16.7567 218.006L70.8385 184.833Z" fill="#888888" fill-opacity="0.7"/>
<path d="M71.9994 158.065L33.2708 157.498L12.8906 188.436L71.9994 158.065Z" fill="#B1B1B1" fill-opacity="0.3"/>
<path d="M17.679 125.046L33.2709 157.498L12.891 188.436L17.679 125.046Z" fill="#434343" fill-opacity="0.7"/>
<path d="M71.9997 158.065L33.2708 157.498L17.6788 125.046L71.9997 158.065Z" fill="#888888" fill-opacity="0.7"/>
<path d="M71.7602 91.8727L53.2807 125.913L71.9993 158.065L71.7602 91.8727Z" fill="#B1B1B1" fill-opacity="0.3"/>
<path d="M17.6787 125.046L53.2809 125.913L71.9995 158.065L17.6787 125.046Z" fill="#434343" fill-opacity="0.7"/>
<path d="M71.7604 91.8724L53.2807 125.913L17.6786 125.046L71.7604 91.8724Z" fill="#888888" fill-opacity="0.7"/>
<path d="M71.8426 66.6357L33.114 66.0689L12.7339 97.0071L71.8426 66.6357Z" fill="#B1B1B1" fill-opacity="0.3"/>
<path d="M17.5222 33.6168L33.1141 66.0688L12.7343 97.007L17.5222 33.6168Z" fill="#434343" fill-opacity="0.7"/>
<path d="M71.843 66.6356L33.1141 66.0687L17.5221 33.6167L71.843 66.6356Z" fill="#888888" fill-opacity="0.7"/>
<path d="M71.6034 0.443773L53.124 34.484L71.8425 66.6361L71.6034 0.443773Z" fill="#B1B1B1" fill-opacity="0.3"/>
<path d="M17.522 33.6169L53.1242 34.4839L71.8428 66.636L17.522 33.6169Z" fill="#434343" fill-opacity="0.7"/>
<path d="M71.6036 0.443423L53.124 34.4838L17.5219 33.6169L71.6036 0.443423Z" fill="#888888" fill-opacity="0.7"/>
</g>
</svg>
