<svg width="85" height="1571" viewBox="0 0 85 1571" fill="none" xmlns="http://www.w3.org/2000/svg">
<g opacity="0.3">
<path d="M58.38 1505.34L36.1194 1537.04L50.2275 1571.3L58.38 1505.34Z" fill="#B1B1B1" fill-opacity="0.28"/>
<path d="M0.519001 1531.67L36.1195 1537.04L50.2277 1571.29L0.519001 1531.67Z" fill="#434343" fill-opacity="0.49"/>
<path d="M58.38 1505.34L36.1192 1537.04L0.5187 1531.67L58.38 1505.34Z" fill="#888888" fill-opacity="0.51"/>
<path d="M3.52624 1468.29L21.2681 1502.72L58.38 1505.34L3.52624 1468.29Z" fill="#B1B1B1" fill-opacity="0.28"/>
<path d="M0.518476 1531.67L21.2681 1502.72L58.3799 1505.34L0.518476 1531.67Z" fill="#434343" fill-opacity="0.49"/>
<path d="M3.52582 1468.29L21.2677 1502.72L0.518273 1531.67L3.52582 1468.29Z" fill="#888888" fill-opacity="0.51"/>
<path d="M70.4736 1425.51L31.7499 1424.67L12.5042 1393.02L70.4736 1425.51Z" fill="#B1B1B1" fill-opacity="0.28"/>
<path d="M14.9926 1456.54L31.7502 1424.67L12.5048 1393.02L14.9926 1456.54Z" fill="#434343" fill-opacity="0.49"/>
<path d="M70.4744 1425.51L31.7504 1424.67L14.9928 1456.54L70.4744 1425.51Z" fill="#888888" fill-opacity="0.51"/>
<path d="M67.8368 1491.65L50.6029 1456.96L70.4742 1425.51L67.8368 1491.65Z" fill="#B1B1B1" fill-opacity="0.28"/>
<path d="M14.9926 1456.54L50.6028 1456.96L70.4741 1425.51L14.9926 1456.54Z" fill="#434343" fill-opacity="0.49"/>
<path d="M67.8368 1491.65L50.6027 1456.96L14.9926 1456.54L67.8368 1491.65Z" fill="#888888" fill-opacity="0.51"/>
<path d="M0.0852366 1372.3L38.8032 1371.23L59.5827 1401.9L0.0852366 1372.3Z" fill="#B1B1B1" fill-opacity="0.28"/>
<path d="M53.9731 1338.58L38.8032 1371.23L59.5825 1401.9L53.9731 1338.58Z" fill="#434343" fill-opacity="0.49"/>
<path d="M0.0850294 1372.3L38.8033 1371.23L53.9732 1338.58L0.0850294 1372.3Z" fill="#888888" fill-opacity="0.51"/>
<path d="M-0.534049 1306.11L18.3852 1339.91L0.0850739 1372.3L-0.534049 1306.11Z" fill="#B1B1B1" fill-opacity="0.28"/>
<path d="M53.9733 1338.58L18.3853 1339.91L0.0851196 1372.3L53.9733 1338.58Z" fill="#434343" fill-opacity="0.49"/>
<path d="M-0.534209 1306.11L18.3852 1339.91L53.9731 1338.58L-0.534209 1306.11Z" fill="#888888" fill-opacity="0.51"/>
<path d="M15.6814 1293.49L54.3994 1292.43L75.1789 1323.1L15.6814 1293.49Z" fill="#B1B1B1" fill-opacity="0.28"/>
<path d="M69.5693 1259.77L54.3994 1292.43L75.1787 1323.1L69.5693 1259.77Z" fill="#434343" fill-opacity="0.49"/>
<path d="M15.6812 1293.49L54.3995 1292.43L69.5694 1259.77L15.6812 1293.49Z" fill="#888888" fill-opacity="0.51"/>
<path d="M15.0621 1227.3L33.9814 1261.1L15.6813 1293.49L15.0621 1227.3Z" fill="#B1B1B1" fill-opacity="0.28"/>
<path d="M69.5695 1259.77L33.9815 1261.1L15.6813 1293.49L69.5695 1259.77Z" fill="#434343" fill-opacity="0.49"/>
<path d="M15.062 1227.3L33.9814 1261.1L69.5693 1259.77L15.062 1227.3Z" fill="#888888" fill-opacity="0.51"/>
<path d="M9.77469 1199.01L48.4927 1197.94L69.2722 1228.61L9.77469 1199.01Z" fill="#B1B1B1" fill-opacity="0.28"/>
<path d="M63.6625 1165.29L48.4927 1197.94L69.2719 1228.61L63.6625 1165.29Z" fill="#434343" fill-opacity="0.49"/>
<path d="M9.77448 1199.01L48.4927 1197.94L63.6627 1165.29L9.77448 1199.01Z" fill="#888888" fill-opacity="0.51"/>
<path d="M9.1554 1132.82L28.0746 1166.61L9.77453 1199.01L9.1554 1132.82Z" fill="#B1B1B1" fill-opacity="0.28"/>
<path d="M63.6627 1165.29L28.0748 1166.61L9.77457 1199.01L63.6627 1165.29Z" fill="#434343" fill-opacity="0.49"/>
<path d="M9.15524 1132.82L28.0747 1166.61L63.6625 1165.29L9.15524 1132.82Z" fill="#888888" fill-opacity="0.51"/>
<path d="M1.91678 1108.37L40.6348 1107.3L61.4143 1137.98L1.91678 1108.37Z" fill="#B1B1B1" fill-opacity="0.28"/>
<path d="M55.8046 1074.65L40.6348 1107.3L61.414 1137.98L55.8046 1074.65Z" fill="#434343" fill-opacity="0.49"/>
<path d="M1.91657 1108.37L40.6348 1107.3L55.8048 1074.65L1.91657 1108.37Z" fill="#888888" fill-opacity="0.51"/>
<path d="M1.29749 1042.18L20.2167 1075.98L1.91662 1108.37L1.29749 1042.18Z" fill="#B1B1B1" fill-opacity="0.28"/>
<path d="M55.8048 1074.65L20.2169 1075.98L1.91666 1108.37L55.8048 1074.65Z" fill="#434343" fill-opacity="0.49"/>
<path d="M1.29733 1042.18L20.2168 1075.98L55.8046 1074.65L1.29733 1042.18Z" fill="#888888" fill-opacity="0.51"/>
<path d="M60.006 990.895L37.7454 1022.59L51.8534 1056.85L60.006 990.895Z" fill="#B1B1B1" fill-opacity="0.28"/>
<path d="M2.14498 1017.22L37.7455 1022.59L51.8537 1056.85L2.14498 1017.22Z" fill="#434343" fill-opacity="0.49"/>
<path d="M60.006 990.894L37.7452 1022.59L2.14468 1017.22L60.006 990.894Z" fill="#888888" fill-opacity="0.51"/>
<path d="M5.15222 953.847L22.8941 988.277L60.0059 990.895L5.15222 953.847Z" fill="#B1B1B1" fill-opacity="0.28"/>
<path d="M2.14445 1017.22L22.894 988.277L60.0059 990.895L2.14445 1017.22Z" fill="#434343" fill-opacity="0.49"/>
<path d="M5.15179 953.847L22.8937 988.277L2.14425 1017.22L5.15179 953.847Z" fill="#888888" fill-opacity="0.51"/>
<path d="M72.0996 911.063L33.3759 910.226L14.1302 878.57L72.0996 911.063Z" fill="#B1B1B1" fill-opacity="0.28"/>
<path d="M16.6186 942.092L33.3762 910.226L14.1307 878.57L16.6186 942.092Z" fill="#434343" fill-opacity="0.49"/>
<path d="M72.1003 911.063L33.3764 910.226L16.6187 942.092L72.1003 911.063Z" fill="#888888" fill-opacity="0.51"/>
<path d="M69.4628 977.203L52.2289 942.515L72.1001 911.063L69.4628 977.203Z" fill="#B1B1B1" fill-opacity="0.28"/>
<path d="M16.6185 942.092L52.2287 942.515L72.1001 911.063L16.6185 942.092Z" fill="#434343" fill-opacity="0.49"/>
<path d="M69.4628 977.203L52.2287 942.516L16.6186 942.092L69.4628 977.203Z" fill="#888888" fill-opacity="0.51"/>
<path d="M1.71121 857.854L40.4292 856.785L61.2087 887.456L1.71121 857.854Z" fill="#B1B1B1" fill-opacity="0.28"/>
<path d="M55.5991 824.133L40.4292 856.785L61.2084 887.456L55.5991 824.133Z" fill="#434343" fill-opacity="0.49"/>
<path d="M1.71101 857.854L40.4292 856.785L55.5992 824.133L1.71101 857.854Z" fill="#888888" fill-opacity="0.51"/>
<path d="M1.09193 791.664L20.0112 825.462L1.71105 857.854L1.09193 791.664Z" fill="#B1B1B1" fill-opacity="0.28"/>
<path d="M55.5992 824.133L20.0113 825.462L1.7111 857.854L55.5992 824.133Z" fill="#434343" fill-opacity="0.49"/>
<path d="M1.09177 791.664L20.0112 825.462L55.5991 824.133L1.09177 791.664Z" fill="#888888" fill-opacity="0.51"/>
<path d="M17.3069 779.047L56.0249 777.978L76.8044 808.649L17.3069 779.047Z" fill="#B1B1B1" fill-opacity="0.28"/>
<path d="M71.1948 745.326L56.0249 777.978L76.8042 808.649L71.1948 745.326Z" fill="#434343" fill-opacity="0.49"/>
<path d="M17.3067 779.047L56.0249 777.978L71.1949 745.326L17.3067 779.047Z" fill="#888888" fill-opacity="0.51"/>
<path d="M16.6876 712.857L35.6069 746.655L17.3068 779.047L16.6876 712.857Z" fill="#B1B1B1" fill-opacity="0.28"/>
<path d="M71.1949 745.327L35.607 746.655L17.3068 779.047L71.1949 745.327Z" fill="#434343" fill-opacity="0.49"/>
<path d="M16.6875 712.857L35.6069 746.655L71.1948 745.327L16.6875 712.857Z" fill="#888888" fill-opacity="0.51"/>
<path d="M11.4007 684.559L50.1187 683.49L70.8982 714.161L11.4007 684.559Z" fill="#B1B1B1" fill-opacity="0.28"/>
<path d="M65.2885 650.838L50.1187 683.49L70.8979 714.161L65.2885 650.838Z" fill="#434343" fill-opacity="0.49"/>
<path d="M11.4005 684.559L50.1187 683.49L65.2887 650.838L11.4005 684.559Z" fill="#888888" fill-opacity="0.51"/>
<path d="M10.7814 618.369L29.7006 652.167L11.4005 684.559L10.7814 618.369Z" fill="#B1B1B1" fill-opacity="0.28"/>
<path d="M65.2887 650.838L29.7008 652.167L11.4005 684.559L65.2887 650.838Z" fill="#434343" fill-opacity="0.49"/>
<path d="M10.7812 618.369L29.7007 652.167L65.2885 650.839L10.7812 618.369Z" fill="#888888" fill-opacity="0.51"/>
<path d="M3.54227 593.926L42.2603 592.857L63.0398 623.529L3.54227 593.926Z" fill="#B1B1B1" fill-opacity="0.28"/>
<path d="M57.4301 560.206L42.2603 592.857L63.0395 623.528L57.4301 560.206Z" fill="#434343" fill-opacity="0.49"/>
<path d="M3.54206 593.926L42.2603 592.857L57.4303 560.205L3.54206 593.926Z" fill="#888888" fill-opacity="0.51"/>
<path d="M2.92298 527.736L21.8422 561.534L3.54211 593.926L2.92298 527.736Z" fill="#B1B1B1" fill-opacity="0.28"/>
<path d="M57.4303 560.206L21.8424 561.534L3.54215 593.926L57.4303 560.206Z" fill="#434343" fill-opacity="0.49"/>
<path d="M2.92282 527.736L21.8423 561.534L57.4301 560.206L2.92282 527.736Z" fill="#888888" fill-opacity="0.51"/>
<path d="M71.3263 474.506L49.0657 506.202L63.1737 540.459L71.3263 474.506Z" fill="#B1B1B1" fill-opacity="0.28"/>
<path d="M13.4653 500.831L49.0658 506.202L63.174 540.458L13.4653 500.831Z" fill="#434343" fill-opacity="0.49"/>
<path d="M71.3263 474.505L49.0655 506.202L13.465 500.831L71.3263 474.505Z" fill="#888888" fill-opacity="0.51"/>
<path d="M16.4725 437.458L34.2144 471.888L71.3263 474.506L16.4725 437.458Z" fill="#B1B1B1" fill-opacity="0.28"/>
<path d="M13.4648 500.832L34.2143 471.888L71.3262 474.506L13.4648 500.832Z" fill="#434343" fill-opacity="0.49"/>
<path d="M16.4721 437.457L34.214 471.888L13.4646 500.831L16.4721 437.457Z" fill="#888888" fill-opacity="0.51"/>
<path d="M83.4199 394.674L44.6962 393.837L25.4505 362.181L83.4199 394.674Z" fill="#B1B1B1" fill-opacity="0.28"/>
<path d="M27.9389 425.703L44.6965 393.837L25.451 362.181L27.9389 425.703Z" fill="#434343" fill-opacity="0.49"/>
<path d="M83.4207 394.674L44.6967 393.837L27.9391 425.703L83.4207 394.674Z" fill="#888888" fill-opacity="0.51"/>
<path d="M80.7831 460.814L63.5492 426.126L83.4204 394.674L80.7831 460.814Z" fill="#B1B1B1" fill-opacity="0.28"/>
<path d="M27.9388 425.703L63.5491 426.126L83.4204 394.674L27.9388 425.703Z" fill="#434343" fill-opacity="0.49"/>
<path d="M80.7831 460.814L63.549 426.127L27.9389 425.703L80.7831 460.814Z" fill="#888888" fill-opacity="0.51"/>
<path d="M13.0315 341.465L51.7495 340.396L72.529 371.067L13.0315 341.465Z" fill="#B1B1B1" fill-opacity="0.28"/>
<path d="M66.9194 307.744L51.7495 340.396L72.5288 371.067L66.9194 307.744Z" fill="#434343" fill-opacity="0.49"/>
<path d="M13.0313 341.464L51.7496 340.395L66.9195 307.744L13.0313 341.464Z" fill="#888888" fill-opacity="0.51"/>
<path d="M12.4122 275.275L31.3315 309.073L13.0314 341.465L12.4122 275.275Z" fill="#B1B1B1" fill-opacity="0.28"/>
<path d="M66.9196 307.744L31.3316 309.073L13.0314 341.465L66.9196 307.744Z" fill="#434343" fill-opacity="0.49"/>
<path d="M12.4121 275.275L31.3315 309.073L66.9194 307.744L12.4121 275.275Z" fill="#888888" fill-opacity="0.51"/>
<path d="M28.6277 262.658L67.3457 261.589L88.1252 292.26L28.6277 262.658Z" fill="#B1B1B1" fill-opacity="0.28"/>
<path d="M82.5156 228.937L67.3457 261.589L88.125 292.26L82.5156 228.937Z" fill="#434343" fill-opacity="0.49"/>
<path d="M28.6275 262.658L67.3457 261.589L82.5157 228.937L28.6275 262.658Z" fill="#888888" fill-opacity="0.51"/>
<path d="M28.0084 196.468L46.9277 230.266L28.6276 262.658L28.0084 196.468Z" fill="#B1B1B1" fill-opacity="0.28"/>
<path d="M82.5157 228.937L46.9278 230.266L28.6276 262.658L82.5157 228.937Z" fill="#434343" fill-opacity="0.49"/>
<path d="M28.0083 196.468L46.9277 230.266L82.5156 228.937L28.0083 196.468Z" fill="#888888" fill-opacity="0.51"/>
<path d="M22.721 168.17L61.439 167.101L82.2185 197.772L22.721 168.17Z" fill="#B1B1B1" fill-opacity="0.28"/>
<path d="M76.6088 134.449L61.439 167.101L82.2182 197.772L76.6088 134.449Z" fill="#434343" fill-opacity="0.49"/>
<path d="M22.7208 168.17L61.439 167.101L76.609 134.449L22.7208 168.17Z" fill="#888888" fill-opacity="0.51"/>
<path d="M22.1017 101.98L41.0209 135.778L22.7208 168.17L22.1017 101.98Z" fill="#B1B1B1" fill-opacity="0.28"/>
<path d="M76.609 134.449L41.0211 135.778L22.7209 168.17L76.609 134.449Z" fill="#434343" fill-opacity="0.49"/>
<path d="M22.1015 101.98L41.021 135.778L76.6088 134.449L22.1015 101.98Z" fill="#888888" fill-opacity="0.51"/>
<path d="M14.8626 77.5369L53.5806 76.468L74.3601 107.139L14.8626 77.5369Z" fill="#B1B1B1" fill-opacity="0.28"/>
<path d="M68.7504 43.8165L53.5806 76.4679L74.3598 107.139L68.7504 43.8165Z" fill="#434343" fill-opacity="0.49"/>
<path d="M14.8624 77.5367L53.5806 76.4678L68.7506 43.8163L14.8624 77.5367Z" fill="#888888" fill-opacity="0.51"/>
<path d="M14.2433 11.3472L33.1625 45.145L14.8624 77.537L14.2433 11.3472Z" fill="#B1B1B1" fill-opacity="0.28"/>
<path d="M68.7506 43.8164L33.1627 45.1449L14.8625 77.537L68.7506 43.8164Z" fill="#434343" fill-opacity="0.49"/>
<path d="M14.2431 11.347L33.1626 45.1449L68.7504 43.8165L14.2431 11.347Z" fill="#888888" fill-opacity="0.51"/>
</g>
</svg>
