<svg width="1024" height="1024" viewBox="0 0 1024 1024" fill="none" xmlns="http://www.w3.org/2000/svg">
<path fill-rule="evenodd" clip-rule="evenodd" d="M421.553 847.953L731.508 873L831.696 556.783L718.985 321.968L648.419 390.434L696.431 343.795L589.982 253L437.207 262.482L343.281 290.659L221.178 343.884L214.916 450.333L193 832.299L421.553 847.953Z" fill="#042F0B"/>
<path d="M193 832.299L502.955 531.736L305.711 550.521L193 832.299Z" fill="#9D9D9D" fill-opacity="0.3"/>
<path d="M305.711 550.521L437.207 262.482L343.281 290.659L221.178 343.884L214.916 450.333L305.711 550.521Z" fill="#9D9D9D" fill-opacity="0.26"/>
<path d="M193 832.299L305.711 550.521L214.916 450.333L193 832.299Z" fill="#CDCDCD" fill-opacity="0.58"/>
<path d="M589.982 253L437.207 262.482L305.711 550.521L502.955 531.736L696.431 343.795L589.982 253Z" fill="#C4C4C4" fill-opacity="0.81"/>
<path d="M731.509 873L421.553 847.953L193 832.299L718.985 321.968L831.696 556.783L731.509 873Z" fill="#D7D7D7" fill-opacity="0.31"/>
</svg>
