<svg width="1500" height="1500" viewBox="0 0 1500 1500" fill="none" xmlns="http://www.w3.org/2000/svg">
<path d="M1405 848.501L36 848.501V1129.51C36 1136.68 48.536 1142.5 64 1142.5H1377C1392.46 1142.5 1405 1136.68 1405 1129.51V848.501Z" fill="#3B3B3C"/>
<path d="M181.323 897.501H102.677C101.751 897.501 101 900.579 101 904.377V1071.62C101 1075.42 101.751 1078.5 102.677 1078.5H181.323C182.249 1078.5 183 1075.42 183 1071.62V904.377C183 900.579 182.249 897.501 181.323 897.501Z" fill="#B1B2B5"/>
<path d="M316.323 897.501H237.677C236.751 897.501 236 900.579 236 904.377V1071.62C236 1075.42 236.751 1078.5 237.677 1078.5H316.323C317.249 1078.5 318 1075.42 318 1071.62V904.377C318 900.579 317.249 897.501 316.323 897.501Z" fill="#B1B2B5"/>
<path d="M316.323 897.501H237.677C236.751 897.501 236 900.579 236 904.377V1071.62C236 1075.42 236.751 1078.5 237.677 1078.5H316.323C317.249 1078.5 318 1075.42 318 1071.62V904.377C318 900.579 317.249 897.501 316.323 897.501Z" fill="#B1B2B5"/>
<path d="M105.525 641H1436L1405.49 849H36L105.525 641Z" fill="#797979"/>
<path d="M1436 641V1020L1405 1130.5V848.5L1436 641Z" fill="#555555"/>
<path d="M1290.98 919.025L1268.74 940.604L1283.77 925.996L1249.78 897L1200.99 900.028L1170.99 909.026L1132 926.024L1130 960.02L1123 1082L1195.99 1087L1294.98 1095L1326.97 994.015L1290.98 919.025Z" fill="#042F0B"/>
<path d="M1123 1082L1221.99 986.016L1158.99 992.015L1123 1082Z" fill="#9D9D9D" fill-opacity="0.3"/>
<path d="M1158.99 992.015L1200.99 900.028L1170.99 909.027L1132 926.024L1130 960.019L1158.99 992.015Z" fill="#9D9D9D" fill-opacity="0.26"/>
<path d="M1123 1082L1158.99 992.015L1130 960.019L1123 1082Z" fill="#CDCDCD" fill-opacity="0.58"/>
<path d="M1249.78 897L1200.99 900.028L1158.99 992.015L1221.99 986.016L1283.77 925.996L1249.78 897Z" fill="#C4C4C4" fill-opacity="0.81"/>
<path d="M1294.98 1095L1195.99 1087L1123 1082L1290.98 919.025L1326.97 994.015L1294.98 1095Z" fill="#D7D7D7" fill-opacity="0.31"/>
<ellipse cx="736" cy="744.5" rx="406" ry="89.5" fill="#D9D9D9"/>
<ellipse cx="736" cy="745" rx="58" ry="13" fill="#8B8B8B"/>
<ellipse cx="700" cy="749.5" rx="11" ry="2.5" fill="#484848"/>
<ellipse cx="747" cy="753.5" rx="11" ry="2.5" fill="#484848"/>
<ellipse cx="770" cy="750.5" rx="11" ry="2.5" fill="#484848"/>
<ellipse cx="780" cy="743.5" rx="11" ry="2.5" fill="#484848"/>
<ellipse cx="763" cy="737.5" rx="11" ry="2.5" fill="#484848"/>
<ellipse cx="737" cy="735.5" rx="11" ry="2.5" fill="#484848"/>
<ellipse cx="712" cy="737.5" rx="11" ry="2.5" fill="#484848"/>
<ellipse cx="692" cy="742.5" rx="11" ry="2.5" fill="#484848"/>
<ellipse cx="720" cy="753.5" rx="11" ry="2.5" fill="#484848"/>
<path d="M591.832 732.421L593.272 725.637L608.347 728.837L606.907 735.621L591.832 732.421Z" fill="#272727"/>
<path d="M255 686.454L97.5002 665L105.5 641L264.647 641L594.921 725.279L593.194 733.42L255 686.454Z" fill="#A1A1A1"/>
<path d="M215.5 681.5L97.5 665L105.5 641L264.647 641L233.5 652L215.5 681.5Z" fill="#3B3B3C"/>
</svg>
