<svg width="2178" height="2000" viewBox="0 0 2178 2000" fill="none" xmlns="http://www.w3.org/2000/svg">
<g opacity="0.2">
<path d="M832.851 1400.13L869.965 1411.21L880.122 1446.84L832.851 1400.13Z" fill="#B1B1B1" fill-opacity="0.28"/>
<path d="M894.576 1384.94L869.965 1411.21L880.122 1446.84L894.576 1384.94Z" fill="#434343" fill-opacity="0.49"/>
<path d="M832.851 1400.13L869.965 1411.21L894.576 1384.94L832.851 1400.13Z" fill="#888888" fill-opacity="0.51"/>
<path d="M852.941 1337.06L860.355 1375.08L832.851 1400.13L852.941 1337.06Z" fill="#B1B1B1" fill-opacity="0.28"/>
<path d="M894.576 1384.94L860.355 1375.08L832.851 1400.13L894.576 1384.94Z" fill="#434343" fill-opacity="0.49"/>
<path d="M852.942 1337.06L860.355 1375.08L894.577 1384.94L852.942 1337.06Z" fill="#888888" fill-opacity="0.51"/>
<path d="M915.516 1385.85L952.51 1397.32L980.793 1373.39L915.516 1385.85Z" fill="#B1B1B1" fill-opacity="0.28"/>
<path d="M958.308 1432.85L952.51 1397.32L980.793 1373.39L958.308 1432.85Z" fill="#434343" fill-opacity="0.49"/>
<path d="M915.515 1385.85L952.51 1397.32L958.308 1432.85L915.515 1385.85Z" fill="#888888" fill-opacity="0.51"/>
<path d="M897.062 1449.41L924.398 1421.97L915.515 1385.85L897.062 1449.41Z" fill="#B1B1B1" fill-opacity="0.28"/>
<path d="M958.308 1432.85L924.398 1421.97L915.515 1385.85L958.308 1432.85Z" fill="#434343" fill-opacity="0.49"/>
<path d="M897.062 1449.41L924.398 1421.97L958.308 1432.85L897.062 1449.41Z" fill="#888888" fill-opacity="0.51"/>
<path d="M999.834 1377.44L1002.96 1416.05L973.434 1438.42L999.834 1377.44Z" fill="#B1B1B1" fill-opacity="0.28"/>
<path d="M1036.37 1429.46L1002.96 1416.05L973.434 1438.42L1036.37 1429.46Z" fill="#434343" fill-opacity="0.49"/>
<path d="M999.834 1377.44L1002.96 1416.05L1036.37 1429.46L999.834 1377.44Z" fill="#888888" fill-opacity="0.51"/>
<path d="M1065.9 1373.3L1033.15 1393.99L999.833 1377.44L1065.9 1373.3Z" fill="#B1B1B1" fill-opacity="0.28"/>
<path d="M1036.37 1429.46L1033.15 1393.99L999.834 1377.44L1036.37 1429.46Z" fill="#434343" fill-opacity="0.49"/>
<path d="M1065.9 1373.3L1033.15 1393.99L1036.37 1429.46L1065.9 1373.3Z" fill="#888888" fill-opacity="0.51"/>
<path d="M680.866 1308.82L710.738 1284.16L706.224 1247.39L680.866 1308.82Z" fill="#B1B1B1" fill-opacity="0.28"/>
<path d="M743.638 1298.79L710.738 1284.16L706.224 1247.39L743.638 1298.79Z" fill="#434343" fill-opacity="0.49"/>
<path d="M680.866 1308.82L710.738 1284.16L743.638 1298.79L680.866 1308.82Z" fill="#888888" fill-opacity="0.51"/>
<path d="M723.924 1359.09L715.953 1321.19L680.865 1308.82L723.924 1359.09Z" fill="#B1B1B1" fill-opacity="0.28"/>
<path d="M743.638 1298.79L715.953 1321.19L680.865 1308.82L743.638 1298.79Z" fill="#434343" fill-opacity="0.49"/>
<path d="M723.924 1359.09L715.953 1321.19L743.638 1298.79L723.924 1359.09Z" fill="#888888" fill-opacity="0.51"/>
<path d="M697.78 1225.44L666.731 1248.59L669.43 1285.54L697.78 1225.44Z" fill="#B1B1B1" fill-opacity="0.28"/>
<path d="M634.59 1232.37L666.731 1248.59L669.431 1285.54L634.59 1232.37Z" fill="#434343" fill-opacity="0.49"/>
<path d="M697.78 1225.44L666.731 1248.59L634.59 1232.37L697.78 1225.44Z" fill="#888888" fill-opacity="0.51"/>
<path d="M657.246 1173.11L663.343 1211.36L697.78 1225.44L657.246 1173.11Z" fill="#B1B1B1" fill-opacity="0.28"/>
<path d="M634.59 1232.37L663.343 1211.36L697.78 1225.44L634.59 1232.37Z" fill="#434343" fill-opacity="0.49"/>
<path d="M657.246 1173.11L663.343 1211.36L634.59 1232.37L657.246 1173.11Z" fill="#888888" fill-opacity="0.51"/>
<path d="M591.78 1066.44L560.731 1089.59L563.43 1126.54L591.78 1066.44Z" fill="#B1B1B1" fill-opacity="0.28"/>
<path d="M528.59 1073.37L560.731 1089.59L563.431 1126.54L528.59 1073.37Z" fill="#434343" fill-opacity="0.49"/>
<path d="M591.78 1066.44L560.731 1089.59L528.59 1073.37L591.78 1066.44Z" fill="#888888" fill-opacity="0.51"/>
<path d="M551.246 1014.11L557.343 1052.36L591.78 1066.44L551.246 1014.11Z" fill="#B1B1B1" fill-opacity="0.28"/>
<path d="M528.59 1073.37L557.343 1052.36L591.78 1066.44L528.59 1073.37Z" fill="#434343" fill-opacity="0.49"/>
<path d="M551.246 1014.11L557.343 1052.36L528.59 1073.37L551.246 1014.11Z" fill="#888888" fill-opacity="0.51"/>
</g>
<g opacity="0.5">
<path d="M810.653 1406.4L764.997 1443.73L768.071 1489.68L810.653 1406.4Z" fill="#B1B1B1" fill-opacity="0.28"/>
<path d="M718.661 1431.64L764.997 1443.73L768.071 1489.68L718.661 1431.64Z" fill="#434343" fill-opacity="0.49"/>
<path d="M810.654 1406.4L764.997 1443.73L718.661 1431.64L810.654 1406.4Z" fill="#888888" fill-opacity="0.51"/>
<path d="M752.95 1350.91L760.931 1397.61L810.654 1406.4L752.95 1350.91Z" fill="#B1B1B1" fill-opacity="0.28"/>
<path d="M718.66 1431.64L760.931 1397.61L810.654 1406.4L718.66 1431.64Z" fill="#434343" fill-opacity="0.49"/>
<path d="M752.95 1350.91L760.931 1397.61L718.66 1431.64L752.95 1350.91Z" fill="#888888" fill-opacity="0.51"/>
<path d="M886.653 1477.4L840.997 1514.73L844.07 1560.68L886.653 1477.4Z" fill="#B1B1B1" fill-opacity="0.28"/>
<path d="M794.66 1502.64L840.997 1514.73L844.071 1560.68L794.66 1502.64Z" fill="#434343" fill-opacity="0.49"/>
<path d="M886.654 1477.4L840.997 1514.73L794.66 1502.64L886.654 1477.4Z" fill="#888888" fill-opacity="0.51"/>
<path d="M828.95 1421.91L836.931 1468.61L886.654 1477.4L828.95 1421.91Z" fill="#B1B1B1" fill-opacity="0.28"/>
<path d="M794.66 1502.64L836.931 1468.61L886.654 1477.4L794.66 1502.64Z" fill="#434343" fill-opacity="0.49"/>
<path d="M828.95 1421.9L836.931 1468.61L794.66 1502.64L828.95 1421.9Z" fill="#888888" fill-opacity="0.51"/>
<path d="M848.368 1294.65L795.584 1287.9L784.218 1244.53L848.368 1294.65Z" fill="#B1B1B1" fill-opacity="0.28"/>
<path d="M757.405 1326.26L795.584 1287.9L784.218 1244.53L757.405 1326.26Z" fill="#434343" fill-opacity="0.49"/>
<path d="M848.368 1294.65L795.584 1287.9L757.405 1326.26L848.368 1294.65Z" fill="#888888" fill-opacity="0.51"/>
<path d="M813.271 1378.98L806.11 1332.02L848.369 1294.65L813.271 1378.98Z" fill="#B1B1B1" fill-opacity="0.28"/>
<path d="M757.405 1326.26L806.11 1332.02L848.368 1294.65L757.405 1326.26Z" fill="#434343" fill-opacity="0.49"/>
<path d="M813.271 1378.98L806.11 1332.02L757.405 1326.26L813.271 1378.98Z" fill="#888888" fill-opacity="0.51"/>
<path d="M782.349 1214.46L836.032 1218.77L849.974 1261.1L782.349 1214.46Z" fill="#B1B1B1" fill-opacity="0.28"/>
<path d="M872.405 1179.17L836.032 1218.77L849.974 1261.1L872.405 1179.17Z" fill="#434343" fill-opacity="0.49"/>
<path d="M782.349 1214.46L836.032 1218.77L872.405 1179.17L782.349 1214.46Z" fill="#888888" fill-opacity="0.51"/>
<path d="M812.999 1129.59L822.898 1175.66L782.35 1214.46L812.999 1129.59Z" fill="#B1B1B1" fill-opacity="0.28"/>
<path d="M872.406 1179.17L822.898 1175.66L782.35 1214.46L872.406 1179.17Z" fill="#434343" fill-opacity="0.49"/>
<path d="M812.999 1129.59L822.898 1175.66L872.405 1179.17L812.999 1129.59Z" fill="#888888" fill-opacity="0.51"/>
<path d="M841.288 1120.46L894.971 1124.77L908.913 1167.1L841.288 1120.46Z" fill="#B1B1B1" fill-opacity="0.28"/>
<path d="M931.344 1085.17L894.971 1124.77L908.913 1167.1L931.344 1085.17Z" fill="#434343" fill-opacity="0.49"/>
<path d="M841.288 1120.46L894.971 1124.77L931.344 1085.17L841.288 1120.46Z" fill="#888888" fill-opacity="0.51"/>
<path d="M871.937 1035.59L881.836 1081.66L841.288 1120.46L871.937 1035.59Z" fill="#B1B1B1" fill-opacity="0.28"/>
<path d="M931.344 1085.17L881.836 1081.66L841.288 1120.46L931.344 1085.17Z" fill="#434343" fill-opacity="0.49"/>
<path d="M871.937 1035.59L881.837 1081.66L931.344 1085.17L871.937 1035.59Z" fill="#888888" fill-opacity="0.51"/>
<path d="M913.262 1038.46L966.945 1042.77L980.887 1085.1L913.262 1038.46Z" fill="#B1B1B1" fill-opacity="0.28"/>
<path d="M1003.32 1003.17L966.945 1042.77L980.886 1085.1L1003.32 1003.17Z" fill="#434343" fill-opacity="0.49"/>
<path d="M913.262 1038.46L966.945 1042.77L1003.32 1003.17L913.262 1038.46Z" fill="#888888" fill-opacity="0.51"/>
<path d="M943.911 953.593L953.81 999.656L913.262 1038.46L943.911 953.593Z" fill="#B1B1B1" fill-opacity="0.28"/>
<path d="M1003.32 1003.17L953.81 999.656L913.262 1038.46L1003.32 1003.17Z" fill="#434343" fill-opacity="0.49"/>
<path d="M943.911 953.593L953.81 999.656L1003.32 1003.17L943.911 953.593Z" fill="#888888" fill-opacity="0.51"/>
<path d="M979.554 941.469L1031.4 956.046L1036.91 1000.27L979.554 941.469Z" fill="#B1B1B1" fill-opacity="0.28"/>
<path d="M1074.73 924.205L1031.4 956.046L1036.91 1000.27L1074.73 924.205Z" fill="#434343" fill-opacity="0.49"/>
<path d="M979.554 941.468L1031.4 956.046L1074.73 924.205L979.554 941.468Z" fill="#888888" fill-opacity="0.51"/>
<path d="M1026 864.102L1026.83 911.21L979.554 941.469L1026 864.102Z" fill="#B1B1B1" fill-opacity="0.28"/>
<path d="M1074.73 924.205L1026.83 911.209L979.554 941.469L1074.73 924.205Z" fill="#434343" fill-opacity="0.49"/>
<path d="M1026 864.102L1026.83 911.21L1074.73 924.205L1026 864.102Z" fill="#888888" fill-opacity="0.51"/>
<path d="M1157.72 738.924L1204.68 765.275L1199.65 809.558L1157.72 738.924Z" fill="#B1B1B1" fill-opacity="0.28"/>
<path d="M1254.28 744.506L1204.68 765.275L1199.65 809.558L1254.28 744.506Z" fill="#434343" fill-opacity="0.49"/>
<path d="M1157.72 738.923L1204.68 765.275L1254.28 744.506L1157.72 738.923Z" fill="#888888" fill-opacity="0.51"/>
<path d="M1221.04 674.636L1210.77 720.619L1157.72 738.924L1221.04 674.636Z" fill="#B1B1B1" fill-opacity="0.28"/>
<path d="M1254.28 744.506L1210.77 720.619L1157.72 738.924L1254.28 744.506Z" fill="#434343" fill-opacity="0.49"/>
<path d="M1221.04 674.635L1210.77 720.619L1254.28 744.506L1221.04 674.635Z" fill="#888888" fill-opacity="0.51"/>
</g>
<g opacity="0.4">
<path d="M490.58 1334.45L434.432 1352.51L420.489 1396.39L490.58 1334.45Z" fill="#B1B1B1" fill-opacity="0.28"/>
<path d="M395.729 1324.3L434.432 1352.51L420.489 1396.39L395.729 1324.3Z" fill="#434343" fill-opacity="0.49"/>
<path d="M490.581 1334.45L434.432 1352.51L395.729 1324.3L490.581 1334.45Z" fill="#888888" fill-opacity="0.51"/>
<path d="M457.17 1261.7L447.518 1308.09L490.581 1334.45L457.17 1261.7Z" fill="#B1B1B1" fill-opacity="0.28"/>
<path d="M395.729 1324.3L447.518 1308.09L490.581 1334.45L395.729 1324.3Z" fill="#434343" fill-opacity="0.49"/>
<path d="M457.169 1261.7L447.517 1308.09L395.729 1324.3L457.169 1261.7Z" fill="#888888" fill-opacity="0.51"/>
<path d="M398.58 1372.45L342.432 1390.51L328.489 1434.39L398.58 1372.45Z" fill="#B1B1B1" fill-opacity="0.28"/>
<path d="M303.729 1362.3L342.432 1390.51L328.489 1434.39L303.729 1362.3Z" fill="#434343" fill-opacity="0.49"/>
<path d="M398.581 1372.45L342.432 1390.51L303.729 1362.3L398.581 1372.45Z" fill="#888888" fill-opacity="0.51"/>
<path d="M365.17 1299.7L355.518 1346.09L398.581 1372.45L365.17 1299.7Z" fill="#B1B1B1" fill-opacity="0.28"/>
<path d="M303.729 1362.3L355.518 1346.09L398.581 1372.45L303.729 1362.3Z" fill="#434343" fill-opacity="0.49"/>
<path d="M365.169 1299.7L355.517 1346.09L303.729 1362.3L365.169 1299.7Z" fill="#888888" fill-opacity="0.51"/>
<path d="M578.951 1263.4L532.292 1237.82L537.573 1193.3L578.951 1263.4Z" fill="#B1B1B1" fill-opacity="0.28"/>
<path d="M482.728 1259.56L532.291 1237.82L537.574 1193.3L482.728 1259.56Z" fill="#434343" fill-opacity="0.49"/>
<path d="M578.951 1263.4L532.291 1237.82L482.728 1259.56L578.951 1263.4Z" fill="#888888" fill-opacity="0.51"/>
<path d="M515.444 1329.05L525.952 1282.73L578.952 1263.4L515.444 1329.05Z" fill="#B1B1B1" fill-opacity="0.28"/>
<path d="M482.728 1259.56L525.952 1282.73L578.952 1263.4L482.728 1259.56Z" fill="#434343" fill-opacity="0.49"/>
<path d="M515.443 1329.05L525.951 1282.73L482.728 1259.56L515.443 1329.05Z" fill="#888888" fill-opacity="0.51"/>
<path d="M624.952 1372.4L578.292 1346.82L583.574 1302.3L624.952 1372.4Z" fill="#B1B1B1" fill-opacity="0.28"/>
<path d="M528.729 1368.56L578.292 1346.82L583.575 1302.3L528.729 1368.56Z" fill="#434343" fill-opacity="0.49"/>
<path d="M624.952 1372.4L578.292 1346.82L528.729 1368.56L624.952 1372.4Z" fill="#888888" fill-opacity="0.51"/>
<path d="M561.445 1438.05L571.953 1391.73L624.953 1372.4L561.445 1438.05Z" fill="#B1B1B1" fill-opacity="0.28"/>
<path d="M528.729 1368.56L571.953 1391.73L624.953 1372.4L528.729 1368.56Z" fill="#434343" fill-opacity="0.49"/>
<path d="M561.444 1438.05L571.952 1391.73L528.729 1368.56L561.444 1438.05Z" fill="#888888" fill-opacity="0.51"/>
<path d="M662.952 1486.4L616.292 1460.82L621.574 1416.3L662.952 1486.4Z" fill="#B1B1B1" fill-opacity="0.28"/>
<path d="M566.729 1482.56L616.292 1460.82L621.575 1416.3L566.729 1482.56Z" fill="#434343" fill-opacity="0.49"/>
<path d="M662.952 1486.4L616.292 1460.82L566.729 1482.56L662.952 1486.4Z" fill="#888888" fill-opacity="0.51"/>
<path d="M599.445 1552.05L609.953 1505.73L662.953 1486.4L599.445 1552.05Z" fill="#B1B1B1" fill-opacity="0.28"/>
<path d="M566.729 1482.56L609.953 1505.73L662.953 1486.4L566.729 1482.56Z" fill="#434343" fill-opacity="0.49"/>
<path d="M599.444 1552.05L609.952 1505.73L566.729 1482.56L599.444 1552.05Z" fill="#888888" fill-opacity="0.51"/>
<path d="M550.318 1158.01L598.707 1181.65L596.201 1226.15L550.318 1158.01Z" fill="#B1B1B1" fill-opacity="0.28"/>
<path d="M647.042 1158.1L598.707 1181.65L596.201 1226.15L647.042 1158.1Z" fill="#434343" fill-opacity="0.49"/>
<path d="M550.317 1158.01L598.707 1181.65L647.042 1158.1L550.317 1158.01Z" fill="#888888" fill-opacity="0.51"/>
<path d="M609.883 1090.23L602.25 1136.72L550.318 1158.01L609.883 1090.23Z" fill="#B1B1B1" fill-opacity="0.28"/>
<path d="M647.043 1158.1L602.25 1136.72L550.318 1158.01L647.043 1158.1Z" fill="#434343" fill-opacity="0.49"/>
<path d="M609.883 1090.23L602.25 1136.72L647.043 1158.1L609.883 1090.23Z" fill="#888888" fill-opacity="0.51"/>
<path d="M626.829 1079.01L675.219 1102.65L672.713 1147.15L626.829 1079.01Z" fill="#B1B1B1" fill-opacity="0.28"/>
<path d="M723.554 1079.1L675.219 1102.65L672.713 1147.15L723.554 1079.1Z" fill="#434343" fill-opacity="0.49"/>
<path d="M626.829 1079.01L675.219 1102.65L723.554 1079.1L626.829 1079.01Z" fill="#888888" fill-opacity="0.51"/>
<path d="M686.395 1011.23L678.761 1057.72L626.829 1079.01L686.395 1011.23Z" fill="#B1B1B1" fill-opacity="0.28"/>
<path d="M723.555 1079.1L678.762 1057.72L626.83 1079.01L723.555 1079.1Z" fill="#434343" fill-opacity="0.49"/>
<path d="M686.395 1011.23L678.762 1057.72L723.555 1079.1L686.395 1011.23Z" fill="#888888" fill-opacity="0.51"/>
<path d="M700.318 983.012L748.707 1006.65L746.201 1051.15L700.318 983.012Z" fill="#B1B1B1" fill-opacity="0.28"/>
<path d="M797.043 983.099L748.707 1006.65L746.201 1051.15L797.043 983.099Z" fill="#434343" fill-opacity="0.49"/>
<path d="M700.318 983.012L748.708 1006.65L797.043 983.098L700.318 983.012Z" fill="#888888" fill-opacity="0.51"/>
<path d="M759.883 915.23L752.25 961.722L700.318 983.012L759.883 915.23Z" fill="#B1B1B1" fill-opacity="0.28"/>
<path d="M797.043 983.099L752.25 961.722L700.318 983.012L797.043 983.099Z" fill="#434343" fill-opacity="0.49"/>
<path d="M759.884 915.23L752.25 961.722L797.043 983.099L759.884 915.23Z" fill="#888888" fill-opacity="0.51"/>
<path d="M852.318 810.012L900.708 833.652L898.202 878.149L852.318 810.012Z" fill="#B1B1B1" fill-opacity="0.28"/>
<path d="M949.043 810.099L900.708 833.652L898.202 878.149L949.043 810.099Z" fill="#434343" fill-opacity="0.49"/>
<path d="M852.318 810.012L900.708 833.652L949.043 810.098L852.318 810.012Z" fill="#888888" fill-opacity="0.51"/>
<path d="M911.884 742.23L904.25 788.722L852.318 810.012L911.884 742.23Z" fill="#B1B1B1" fill-opacity="0.28"/>
<path d="M949.044 810.099L904.251 788.722L852.319 810.012L949.044 810.099Z" fill="#434343" fill-opacity="0.49"/>
<path d="M911.884 742.23L904.251 788.722L949.044 810.099L911.884 742.23Z" fill="#888888" fill-opacity="0.51"/>
<path d="M776.793 717.255L822.119 746.34L814.476 790.248L776.793 717.255Z" fill="#B1B1B1" fill-opacity="0.28"/>
<path d="M872.856 728.543L822.118 746.34L814.476 790.248L872.856 728.543Z" fill="#434343" fill-opacity="0.49"/>
<path d="M776.792 717.255L822.119 746.34L872.856 728.543L776.792 717.255Z" fill="#888888" fill-opacity="0.51"/>
<path d="M843.807 656.828L830.84 702.123L776.792 717.255L843.807 656.828Z" fill="#B1B1B1" fill-opacity="0.28"/>
<path d="M872.856 728.544L830.841 702.123L776.792 717.255L872.856 728.544Z" fill="#434343" fill-opacity="0.49"/>
<path d="M843.807 656.827L830.841 702.123L872.856 728.544L843.807 656.827Z" fill="#888888" fill-opacity="0.51"/>
</g>
<g opacity="0.25">
<path d="M304.092 1349.92L266.887 1360.69L256.436 1396.23L304.092 1349.92Z" fill="#B1B1B1" fill-opacity="0.28"/>
<path d="M242.494 1334.21L266.887 1360.69L256.436 1396.23L242.494 1334.21Z" fill="#434343" fill-opacity="0.49"/>
<path d="M304.092 1349.92L266.887 1360.69L242.494 1334.21L304.092 1349.92Z" fill="#888888" fill-opacity="0.51"/>
<path d="M284.523 1286.68L276.796 1324.64L304.092 1349.92L284.523 1286.68Z" fill="#B1B1B1" fill-opacity="0.28"/>
<path d="M242.494 1334.21L276.796 1324.64L304.092 1349.92L242.494 1334.21Z" fill="#434343" fill-opacity="0.49"/>
<path d="M284.523 1286.68L276.796 1324.64L242.494 1334.21L284.523 1286.68Z" fill="#888888" fill-opacity="0.51"/>
<path d="M311.037 1439.74L273.833 1450.52L263.382 1486.06L311.037 1439.74Z" fill="#B1B1B1" fill-opacity="0.28"/>
<path d="M249.44 1424.04L273.833 1450.52L263.382 1486.06L249.44 1424.04Z" fill="#434343" fill-opacity="0.49"/>
<path d="M311.038 1439.74L273.833 1450.52L249.44 1424.04L311.038 1439.74Z" fill="#888888" fill-opacity="0.51"/>
<path d="M291.469 1376.51L283.742 1414.46L311.038 1439.74L291.469 1376.51Z" fill="#B1B1B1" fill-opacity="0.28"/>
<path d="M249.44 1424.04L283.742 1414.46L311.038 1439.74L249.44 1424.04Z" fill="#434343" fill-opacity="0.49"/>
<path d="M291.469 1376.51L283.742 1414.46L249.44 1424.04L291.469 1376.51Z" fill="#888888" fill-opacity="0.51"/>
<path d="M331.054 1528.98L293.85 1539.75L283.399 1575.29L331.054 1528.98Z" fill="#B1B1B1" fill-opacity="0.28"/>
<path d="M269.457 1513.27L293.85 1539.75L283.399 1575.29L269.457 1513.27Z" fill="#434343" fill-opacity="0.49"/>
<path d="M331.054 1528.98L293.85 1539.75L269.457 1513.27L331.054 1528.98Z" fill="#888888" fill-opacity="0.51"/>
<path d="M311.486 1465.74L303.759 1503.7L331.054 1528.98L311.486 1465.74Z" fill="#B1B1B1" fill-opacity="0.28"/>
<path d="M269.457 1513.27L303.759 1503.7L331.055 1528.98L269.457 1513.27Z" fill="#434343" fill-opacity="0.49"/>
<path d="M311.486 1465.74L303.758 1503.7L269.457 1513.27L311.486 1465.74Z" fill="#888888" fill-opacity="0.51"/>
<path d="M352.105 1275.47L314.901 1286.24L304.45 1321.78L352.105 1275.47Z" fill="#B1B1B1" fill-opacity="0.28"/>
<path d="M290.508 1259.76L314.901 1286.24L304.45 1321.78L290.508 1259.76Z" fill="#434343" fill-opacity="0.49"/>
<path d="M352.105 1275.47L314.901 1286.24L290.508 1259.76L352.105 1275.47Z" fill="#888888" fill-opacity="0.51"/>
<path d="M332.537 1212.23L324.81 1250.19L352.105 1275.47L332.537 1212.23Z" fill="#B1B1B1" fill-opacity="0.28"/>
<path d="M290.508 1259.76L324.81 1250.19L352.106 1275.47L290.508 1259.76Z" fill="#434343" fill-opacity="0.49"/>
<path d="M332.537 1212.23L324.81 1250.19L290.508 1259.76L332.537 1212.23Z" fill="#888888" fill-opacity="0.51"/>
<path d="M418.588 1234.54L388.921 1209.64L393.738 1172.91L418.588 1234.54Z" fill="#B1B1B1" fill-opacity="0.28"/>
<path d="M355.901 1223.99L388.921 1209.64L393.739 1172.91L355.901 1223.99Z" fill="#434343" fill-opacity="0.49"/>
<path d="M418.589 1234.54L388.921 1209.64L355.901 1223.99L418.589 1234.54Z" fill="#888888" fill-opacity="0.51"/>
<path d="M375.116 1284.46L383.4 1246.62L418.589 1234.54L375.116 1284.46Z" fill="#B1B1B1" fill-opacity="0.28"/>
<path d="M355.901 1223.99L383.4 1246.62L418.589 1234.54L355.901 1223.99Z" fill="#434343" fill-opacity="0.49"/>
<path d="M375.116 1284.46L383.4 1246.62L355.901 1223.99L375.116 1284.46Z" fill="#888888" fill-opacity="0.51"/>
<path d="M396.263 1143.4L427.119 1166.81L424.114 1203.73L396.263 1143.4Z" fill="#B1B1B1" fill-opacity="0.28"/>
<path d="M459.393 1150.85L427.12 1166.81L424.114 1203.73L459.393 1150.85Z" fill="#434343" fill-opacity="0.49"/>
<path d="M396.263 1143.4L427.12 1166.81L459.393 1150.85L396.263 1143.4Z" fill="#888888" fill-opacity="0.51"/>
<path d="M437.228 1091.4L430.815 1129.6L396.263 1143.4L437.228 1091.4Z" fill="#B1B1B1" fill-opacity="0.28"/>
<path d="M459.393 1150.85L430.815 1129.6L396.263 1143.4L459.393 1150.85Z" fill="#434343" fill-opacity="0.49"/>
<path d="M437.228 1091.4L430.815 1129.6L459.393 1150.85L437.228 1091.4Z" fill="#888888" fill-opacity="0.51"/>
<path d="M442.161 1061.76L473.017 1085.17L470.012 1122.09L442.161 1061.76Z" fill="#B1B1B1" fill-opacity="0.28"/>
<path d="M505.291 1069.21L473.018 1085.17L470.012 1122.09L505.291 1069.21Z" fill="#434343" fill-opacity="0.49"/>
<path d="M442.161 1061.76L473.018 1085.17L505.291 1069.21L442.161 1061.76Z" fill="#888888" fill-opacity="0.51"/>
<path d="M483.126 1009.76L476.713 1047.96L442.161 1061.76L483.126 1009.76Z" fill="#B1B1B1" fill-opacity="0.28"/>
<path d="M505.291 1069.21L476.713 1047.96L442.161 1061.76L505.291 1069.21Z" fill="#434343" fill-opacity="0.49"/>
<path d="M483.126 1009.76L476.713 1047.96L505.291 1069.21L483.126 1009.76Z" fill="#888888" fill-opacity="0.51"/>
<path d="M491.898 976.757L522.755 1000.17L519.749 1037.09L491.898 976.757Z" fill="#B1B1B1" fill-opacity="0.28"/>
<path d="M555.028 984.211L522.755 1000.17L519.749 1037.09L555.028 984.211Z" fill="#434343" fill-opacity="0.49"/>
<path d="M491.898 976.757L522.755 1000.17L555.028 984.211L491.898 976.757Z" fill="#888888" fill-opacity="0.51"/>
<path d="M532.863 924.764L526.45 962.962L491.898 976.757L532.863 924.764Z" fill="#B1B1B1" fill-opacity="0.28"/>
<path d="M555.029 984.211L526.45 962.962L491.898 976.757L555.029 984.211Z" fill="#434343" fill-opacity="0.49"/>
<path d="M532.863 924.763L526.45 962.962L555.028 984.211L532.863 924.763Z" fill="#888888" fill-opacity="0.51"/>
<path d="M546.897 896.757L577.754 920.169L574.748 957.094L546.897 896.757Z" fill="#B1B1B1" fill-opacity="0.28"/>
<path d="M610.027 904.211L577.754 920.169L574.748 957.094L610.027 904.211Z" fill="#434343" fill-opacity="0.49"/>
<path d="M546.897 896.757L577.754 920.169L610.027 904.211L546.897 896.757Z" fill="#888888" fill-opacity="0.51"/>
<path d="M587.862 844.764L581.449 882.962L546.897 896.757L587.862 844.764Z" fill="#B1B1B1" fill-opacity="0.28"/>
<path d="M610.028 904.211L581.449 882.962L546.897 896.757L610.028 904.211Z" fill="#434343" fill-opacity="0.49"/>
<path d="M587.862 844.763L581.449 882.962L610.027 904.211L587.862 844.763Z" fill="#888888" fill-opacity="0.51"/>
<path d="M599.897 829.757L630.753 853.169L627.748 890.094L599.897 829.757Z" fill="#B1B1B1" fill-opacity="0.28"/>
<path d="M663.027 837.211L630.754 853.169L627.748 890.094L663.027 837.211Z" fill="#434343" fill-opacity="0.49"/>
<path d="M599.897 829.757L630.753 853.169L663.027 837.211L599.897 829.757Z" fill="#888888" fill-opacity="0.51"/>
<path d="M640.862 777.764L634.448 815.962L599.897 829.757L640.862 777.764Z" fill="#B1B1B1" fill-opacity="0.28"/>
<path d="M663.027 837.211L634.449 815.962L599.897 829.757L663.027 837.211Z" fill="#434343" fill-opacity="0.49"/>
<path d="M640.862 777.763L634.449 815.962L663.027 837.211L640.862 777.763Z" fill="#888888" fill-opacity="0.51"/>
<path d="M649.897 748.757L680.754 772.169L677.748 809.094L649.897 748.757Z" fill="#B1B1B1" fill-opacity="0.28"/>
<path d="M713.027 756.211L680.754 772.169L677.748 809.094L713.027 756.211Z" fill="#434343" fill-opacity="0.49"/>
<path d="M649.897 748.757L680.754 772.169L713.027 756.211L649.897 748.757Z" fill="#888888" fill-opacity="0.51"/>
<path d="M690.862 696.764L684.449 734.962L649.897 748.757L690.862 696.764Z" fill="#B1B1B1" fill-opacity="0.28"/>
<path d="M713.028 756.211L684.449 734.962L649.897 748.757L713.028 756.211Z" fill="#434343" fill-opacity="0.49"/>
<path d="M690.862 696.763L684.449 734.962L713.027 756.211L690.862 696.763Z" fill="#888888" fill-opacity="0.51"/>
<path d="M708.897 679.757L739.753 703.169L736.748 740.094L708.897 679.757Z" fill="#B1B1B1" fill-opacity="0.28"/>
<path d="M772.027 687.211L739.754 703.169L736.748 740.094L772.027 687.211Z" fill="#434343" fill-opacity="0.49"/>
<path d="M708.897 679.757L739.753 703.169L772.027 687.211L708.897 679.757Z" fill="#888888" fill-opacity="0.51"/>
<path d="M749.862 627.764L743.448 665.962L708.897 679.757L749.862 627.764Z" fill="#B1B1B1" fill-opacity="0.28"/>
<path d="M772.027 687.211L743.449 665.962L708.897 679.757L772.027 687.211Z" fill="#434343" fill-opacity="0.49"/>
<path d="M749.862 627.763L743.449 665.962L772.027 687.211L749.862 627.763Z" fill="#888888" fill-opacity="0.51"/>
</g>
<g opacity="0.15">
<path d="M639.599 1283.72L619.166 1289.82L613.574 1309.44L639.599 1283.72Z" fill="#B1B1B1" fill-opacity="0.28"/>
<path d="M605.617 1275.36L619.166 1289.82L613.574 1309.44L605.617 1275.36Z" fill="#434343" fill-opacity="0.49"/>
<path d="M639.599 1283.72L619.166 1289.82L605.617 1275.36L639.599 1283.72Z" fill="#888888" fill-opacity="0.51"/>
<path d="M628.538 1249L624.457 1269.93L639.599 1283.72L628.538 1249Z" fill="#B1B1B1" fill-opacity="0.28"/>
<path d="M605.617 1275.36L624.457 1269.93L639.599 1283.72L605.617 1275.36Z" fill="#434343" fill-opacity="0.49"/>
<path d="M628.538 1249L624.457 1269.93L605.617 1275.36L628.538 1249Z" fill="#888888" fill-opacity="0.51"/>
<path d="M526.121 1440.31L501.318 1440.07L488.363 1459.95L526.121 1440.31Z" fill="#B1B1B1" fill-opacity="0.28"/>
<path d="M491.233 1419.34L501.318 1440.07L488.363 1459.95L491.233 1419.34Z" fill="#434343" fill-opacity="0.49"/>
<path d="M526.121 1440.31L501.318 1440.07L491.233 1419.34L526.121 1440.31Z" fill="#888888" fill-opacity="0.51"/>
<path d="M525.763 1397.93L514.035 1419.78L526.122 1440.31L525.763 1397.93Z" fill="#B1B1B1" fill-opacity="0.28"/>
<path d="M491.233 1419.34L514.035 1419.78L526.122 1440.31L491.233 1419.34Z" fill="#434343" fill-opacity="0.49"/>
<path d="M525.763 1397.93L514.035 1419.78L491.233 1419.34L525.763 1397.93Z" fill="#888888" fill-opacity="0.51"/>
<path d="M460.066 1462.82L439.209 1457.37L424.08 1471.38L460.066 1462.82Z" fill="#B1B1B1" fill-opacity="0.28"/>
<path d="M435.097 1437.76L439.209 1457.37L424.08 1471.38L435.097 1437.76Z" fill="#434343" fill-opacity="0.49"/>
<path d="M460.067 1462.82L439.21 1457.37L435.097 1437.76L460.067 1462.82Z" fill="#888888" fill-opacity="0.51"/>
<path d="M468.739 1427.02L454.225 1442.96L460.067 1462.82L468.739 1427.02Z" fill="#B1B1B1" fill-opacity="0.28"/>
<path d="M435.098 1437.76L454.225 1442.96L460.067 1462.82L435.098 1437.76Z" fill="#434343" fill-opacity="0.49"/>
<path d="M468.739 1427.02L454.225 1442.96L435.098 1437.76L468.739 1427.02Z" fill="#888888" fill-opacity="0.51"/>
<path d="M734.957 1170.99L716.85 1156.04L719.586 1133.75L734.957 1170.99Z" fill="#B1B1B1" fill-opacity="0.28"/>
<path d="M696.908 1164.91L716.85 1156.04L719.586 1133.75L696.908 1164.91Z" fill="#434343" fill-opacity="0.49"/>
<path d="M734.956 1170.99L716.85 1156.04L696.908 1164.91L734.956 1170.99Z" fill="#888888" fill-opacity="0.51"/>
<path d="M708.857 1201.46L713.689 1178.48L734.957 1170.99L708.857 1201.46Z" fill="#B1B1B1" fill-opacity="0.28"/>
<path d="M696.908 1164.91L713.689 1178.48L734.956 1170.99L696.908 1164.91Z" fill="#434343" fill-opacity="0.49"/>
<path d="M708.857 1201.46L713.689 1178.48L696.908 1164.91L708.857 1201.46Z" fill="#888888" fill-opacity="0.51"/>
<path d="M740.844 1113.54L758.388 1126.62L756.863 1147.5L740.844 1113.54Z" fill="#B1B1B1" fill-opacity="0.28"/>
<path d="M776.549 1117.46L758.388 1126.62L756.863 1147.5L776.549 1117.46Z" fill="#434343" fill-opacity="0.49"/>
<path d="M740.844 1113.54L758.388 1126.62L776.549 1117.46L740.844 1113.54Z" fill="#888888" fill-opacity="0.51"/>
<path d="M763.747 1083.97L760.302 1105.58L740.844 1113.54L763.747 1083.97Z" fill="#B1B1B1" fill-opacity="0.28"/>
<path d="M776.549 1117.46L760.302 1105.58L740.844 1113.54L776.549 1117.46Z" fill="#434343" fill-opacity="0.49"/>
<path d="M763.747 1083.97L760.302 1105.58L776.549 1117.46L763.747 1083.97Z" fill="#888888" fill-opacity="0.51"/>
<path d="M782.632 1079.12L799.045 1091.36L797.618 1110.89L782.632 1079.12Z" fill="#B1B1B1" fill-opacity="0.28"/>
<path d="M816.036 1082.78L799.045 1091.36L797.618 1110.89L816.036 1082.78Z" fill="#434343" fill-opacity="0.49"/>
<path d="M782.632 1079.12L799.045 1091.36L816.036 1082.78L782.632 1079.12Z" fill="#888888" fill-opacity="0.51"/>
<path d="M804.059 1051.46L800.836 1071.68L782.632 1079.12L804.059 1051.46Z" fill="#B1B1B1" fill-opacity="0.28"/>
<path d="M816.036 1082.78L800.836 1071.68L782.632 1079.12L816.036 1082.78Z" fill="#434343" fill-opacity="0.49"/>
<path d="M804.059 1051.46L800.836 1071.68L816.036 1082.78L804.059 1051.46Z" fill="#888888" fill-opacity="0.51"/>
<path d="M810.632 1026.12L827.045 1038.36L825.618 1057.89L810.632 1026.12Z" fill="#B1B1B1" fill-opacity="0.28"/>
<path d="M844.036 1029.78L827.046 1038.36L825.618 1057.89L844.036 1029.78Z" fill="#434343" fill-opacity="0.49"/>
<path d="M810.632 1026.12L827.046 1038.36L844.036 1029.78L810.632 1026.12Z" fill="#888888" fill-opacity="0.51"/>
<path d="M832.059 998.457L828.836 1018.68L810.632 1026.12L832.059 998.457Z" fill="#B1B1B1" fill-opacity="0.28"/>
<path d="M844.036 1029.78L828.836 1018.68L810.632 1026.12L844.036 1029.78Z" fill="#434343" fill-opacity="0.49"/>
<path d="M832.059 998.457L828.836 1018.68L844.036 1029.78L832.059 998.457Z" fill="#888888" fill-opacity="0.51"/>
<path d="M797.632 971.12L814.045 983.361L812.618 1002.89L797.632 971.12Z" fill="#B1B1B1" fill-opacity="0.28"/>
<path d="M831.036 974.784L814.046 983.361L812.618 1002.89L831.036 974.784Z" fill="#434343" fill-opacity="0.49"/>
<path d="M797.632 971.12L814.046 983.361L831.036 974.784L797.632 971.12Z" fill="#888888" fill-opacity="0.51"/>
<path d="M819.059 943.457L815.836 963.677L797.632 971.12L819.059 943.457Z" fill="#B1B1B1" fill-opacity="0.28"/>
<path d="M831.036 974.784L815.836 963.677L797.632 971.12L831.036 974.784Z" fill="#434343" fill-opacity="0.49"/>
<path d="M819.059 943.457L815.836 963.677L831.036 974.784L819.059 943.457Z" fill="#888888" fill-opacity="0.51"/>
<path d="M706.632 869.12L723.045 881.361L721.618 900.893L706.632 869.12Z" fill="#B1B1B1" fill-opacity="0.28"/>
<path d="M740.036 872.784L723.046 881.361L721.618 900.893L740.036 872.784Z" fill="#434343" fill-opacity="0.49"/>
<path d="M706.632 869.12L723.046 881.361L740.036 872.784L706.632 869.12Z" fill="#888888" fill-opacity="0.51"/>
<path d="M728.059 841.457L724.836 861.677L706.632 869.12L728.059 841.457Z" fill="#B1B1B1" fill-opacity="0.28"/>
<path d="M740.036 872.784L724.836 861.677L706.632 869.12L740.036 872.784Z" fill="#434343" fill-opacity="0.49"/>
<path d="M728.059 841.457L724.836 861.677L740.036 872.784L728.059 841.457Z" fill="#888888" fill-opacity="0.51"/>
<path d="M674.632 830.12L691.045 842.361L689.618 861.893L674.632 830.12Z" fill="#B1B1B1" fill-opacity="0.28"/>
<path d="M708.036 833.784L691.046 842.361L689.618 861.893L708.036 833.784Z" fill="#434343" fill-opacity="0.49"/>
<path d="M674.632 830.12L691.046 842.361L708.036 833.784L674.632 830.12Z" fill="#888888" fill-opacity="0.51"/>
<path d="M696.059 802.457L692.836 822.677L674.632 830.12L696.059 802.457Z" fill="#B1B1B1" fill-opacity="0.28"/>
<path d="M708.036 833.784L692.836 822.677L674.632 830.12L708.036 833.784Z" fill="#434343" fill-opacity="0.49"/>
<path d="M696.059 802.457L692.836 822.677L708.036 833.784L696.059 802.457Z" fill="#888888" fill-opacity="0.51"/>
</g>
<g opacity="0.1">
<path d="M308.933 1179.58L287.657 1178.15L275.562 1194.57L308.933 1179.58Z" fill="#B1B1B1" fill-opacity="0.28"/>
<path d="M280.019 1159.86L287.657 1178.15L275.562 1194.57L280.019 1159.86Z" fill="#434343" fill-opacity="0.49"/>
<path d="M308.933 1179.58L287.657 1178.15L280.019 1159.86L308.933 1179.58Z" fill="#888888" fill-opacity="0.51"/>
<path d="M310.706 1143.18L299.567 1161.36L308.933 1179.58L310.706 1143.18Z" fill="#B1B1B1" fill-opacity="0.28"/>
<path d="M280.018 1159.86L299.567 1161.36L308.933 1179.58L280.018 1159.86Z" fill="#434343" fill-opacity="0.49"/>
<path d="M310.707 1143.18L299.567 1161.36L280.019 1159.86L310.707 1143.18Z" fill="#888888" fill-opacity="0.51"/>
<path d="M263.494 1224.04L242.219 1222.61L230.123 1239.03L263.494 1224.04Z" fill="#B1B1B1" fill-opacity="0.28"/>
<path d="M234.58 1204.32L242.219 1222.61L230.124 1239.03L234.58 1204.32Z" fill="#434343" fill-opacity="0.49"/>
<path d="M263.495 1224.04L242.219 1222.61L234.58 1204.32L263.495 1224.04Z" fill="#888888" fill-opacity="0.51"/>
<path d="M265.268 1187.64L254.129 1205.82L263.494 1224.04L265.268 1187.64Z" fill="#B1B1B1" fill-opacity="0.28"/>
<path d="M234.58 1204.32L254.129 1205.82L263.494 1224.04L234.58 1204.32Z" fill="#434343" fill-opacity="0.49"/>
<path d="M265.268 1187.64L254.129 1205.82L234.58 1204.32L265.268 1187.64Z" fill="#888888" fill-opacity="0.51"/>
<path d="M245.494 1283.04L224.219 1281.61L212.123 1298.03L245.494 1283.04Z" fill="#B1B1B1" fill-opacity="0.28"/>
<path d="M216.58 1263.32L224.219 1281.61L212.124 1298.03L216.58 1263.32Z" fill="#434343" fill-opacity="0.49"/>
<path d="M245.495 1283.04L224.219 1281.61L216.58 1263.32L245.495 1283.04Z" fill="#888888" fill-opacity="0.51"/>
<path d="M247.268 1246.64L236.129 1264.82L245.494 1283.04L247.268 1246.64Z" fill="#B1B1B1" fill-opacity="0.28"/>
<path d="M216.58 1263.32L236.129 1264.82L245.494 1283.04L216.58 1263.32Z" fill="#434343" fill-opacity="0.49"/>
<path d="M247.268 1246.64L236.129 1264.82L216.58 1263.32L247.268 1246.64Z" fill="#888888" fill-opacity="0.51"/>
<path d="M225.494 1338.04L204.219 1336.61L192.123 1353.03L225.494 1338.04Z" fill="#B1B1B1" fill-opacity="0.28"/>
<path d="M196.58 1318.32L204.219 1336.61L192.124 1353.03L196.58 1318.32Z" fill="#434343" fill-opacity="0.49"/>
<path d="M225.495 1338.04L204.219 1336.61L196.58 1318.32L225.495 1338.04Z" fill="#888888" fill-opacity="0.51"/>
<path d="M227.268 1301.64L216.129 1319.82L225.494 1338.04L227.268 1301.64Z" fill="#B1B1B1" fill-opacity="0.28"/>
<path d="M196.58 1318.32L216.129 1319.82L225.494 1338.04L196.58 1318.32Z" fill="#434343" fill-opacity="0.49"/>
<path d="M227.268 1301.64L216.129 1319.82L196.58 1318.32L227.268 1301.64Z" fill="#888888" fill-opacity="0.51"/>
<path d="M179.495 1374.04L158.219 1372.61L146.124 1389.03L179.495 1374.04Z" fill="#B1B1B1" fill-opacity="0.28"/>
<path d="M150.581 1354.32L158.219 1372.61L146.124 1389.03L150.581 1354.32Z" fill="#434343" fill-opacity="0.49"/>
<path d="M179.495 1374.04L158.219 1372.61L150.581 1354.32L179.495 1374.04Z" fill="#888888" fill-opacity="0.51"/>
<path d="M181.268 1337.64L170.129 1355.82L179.495 1374.04L181.268 1337.64Z" fill="#B1B1B1" fill-opacity="0.28"/>
<path d="M150.58 1354.32L170.129 1355.82L179.495 1374.04L150.58 1354.32Z" fill="#434343" fill-opacity="0.49"/>
<path d="M181.269 1337.64L170.129 1355.82L150.581 1354.32L181.269 1337.64Z" fill="#888888" fill-opacity="0.51"/>
<path d="M357.318 1133.87L345.577 1113.54L355.931 1093.61L357.318 1133.87Z" fill="#B1B1B1" fill-opacity="0.28"/>
<path d="M323.796 1114.88L345.577 1113.54L355.931 1093.62L323.796 1114.88Z" fill="#434343" fill-opacity="0.49"/>
<path d="M357.319 1133.87L345.577 1113.54L323.795 1114.88L357.319 1133.87Z" fill="#888888" fill-opacity="0.51"/>
<path d="M322.215 1153.3L334.772 1133.46L357.319 1133.87L322.215 1153.3Z" fill="#B1B1B1" fill-opacity="0.28"/>
<path d="M323.795 1114.88L334.772 1133.46L357.318 1133.87L323.795 1114.88Z" fill="#434343" fill-opacity="0.49"/>
<path d="M322.215 1153.3L334.772 1133.46L323.796 1114.88L322.215 1153.3Z" fill="#888888" fill-opacity="0.51"/>
<path d="M371.419 1067.14L383.283 1085.54L374.556 1104.56L371.419 1067.14Z" fill="#B1B1B1" fill-opacity="0.28"/>
<path d="M403.503 1083.29L383.283 1085.54L374.556 1104.56L403.503 1083.29Z" fill="#434343" fill-opacity="0.49"/>
<path d="M371.419 1067.14L383.283 1085.54L403.503 1083.29L371.419 1067.14Z" fill="#888888" fill-opacity="0.51"/>
<path d="M403.213 1047.45L392.43 1066.49L371.418 1067.14L403.213 1047.45Z" fill="#B1B1B1" fill-opacity="0.28"/>
<path d="M403.503 1083.29L392.43 1066.49L371.418 1067.14L403.503 1083.29Z" fill="#434343" fill-opacity="0.49"/>
<path d="M403.213 1047.45L392.43 1066.49L403.503 1083.29L403.213 1047.45Z" fill="#888888" fill-opacity="0.51"/>
<path d="M418.598 1020.26L429.697 1037.46L421.533 1055.26L418.598 1020.26Z" fill="#B1B1B1" fill-opacity="0.28"/>
<path d="M448.613 1035.37L429.697 1037.46L421.533 1055.26L448.613 1035.37Z" fill="#434343" fill-opacity="0.49"/>
<path d="M418.597 1020.26L429.697 1037.46L448.613 1035.37L418.597 1020.26Z" fill="#888888" fill-opacity="0.51"/>
<path d="M448.342 1001.83L438.255 1019.65L418.598 1020.26L448.342 1001.83Z" fill="#B1B1B1" fill-opacity="0.28"/>
<path d="M448.613 1035.37L438.255 1019.65L418.597 1020.26L448.613 1035.37Z" fill="#434343" fill-opacity="0.49"/>
<path d="M448.342 1001.83L438.255 1019.65L448.613 1035.37L448.342 1001.83Z" fill="#888888" fill-opacity="0.51"/>
<path d="M455.694 971.61L466.793 988.815L458.629 1006.62L455.694 971.61Z" fill="#B1B1B1" fill-opacity="0.28"/>
<path d="M485.71 986.718L466.793 988.815L458.629 1006.62L485.71 986.718Z" fill="#434343" fill-opacity="0.49"/>
<path d="M455.694 971.609L466.793 988.815L485.71 986.718L455.694 971.609Z" fill="#888888" fill-opacity="0.51"/>
<path d="M485.439 953.181L475.351 970.999L455.694 971.61L485.439 953.181Z" fill="#B1B1B1" fill-opacity="0.28"/>
<path d="M485.71 986.718L475.351 970.999L455.694 971.61L485.71 986.718Z" fill="#434343" fill-opacity="0.49"/>
<path d="M485.438 953.181L475.351 970.998L485.71 986.718L485.438 953.181Z" fill="#888888" fill-opacity="0.51"/>
</g>
<g opacity="0.3">
<path d="M157.657 1269.98L120.543 1281.06L110.385 1316.69L157.657 1269.98Z" fill="#B1B1B1" fill-opacity="0.28"/>
<path d="M95.9314 1254.78L120.543 1281.06L110.386 1316.69L95.9314 1254.78Z" fill="#434343" fill-opacity="0.49"/>
<path d="M157.657 1269.98L120.543 1281.06L95.9314 1254.78L157.657 1269.98Z" fill="#888888" fill-opacity="0.51"/>
<path d="M137.566 1206.91L130.153 1244.92L157.657 1269.98L137.566 1206.91Z" fill="#B1B1B1" fill-opacity="0.28"/>
<path d="M95.9314 1254.78L130.153 1244.92L157.657 1269.98L95.9314 1254.78Z" fill="#434343" fill-opacity="0.49"/>
<path d="M137.566 1206.91L130.153 1244.92L95.9312 1254.78L137.566 1206.91Z" fill="#888888" fill-opacity="0.51"/>
<path d="M216.622 1214.82L186.75 1190.16L191.264 1153.39L216.622 1214.82Z" fill="#B1B1B1" fill-opacity="0.28"/>
<path d="M153.85 1204.79L186.75 1190.16L191.264 1153.39L153.85 1204.79Z" fill="#434343" fill-opacity="0.49"/>
<path d="M216.622 1214.82L186.75 1190.16L153.85 1204.79L216.622 1214.82Z" fill="#888888" fill-opacity="0.51"/>
<path d="M173.564 1265.09L181.535 1227.19L216.623 1214.82L173.564 1265.09Z" fill="#B1B1B1" fill-opacity="0.28"/>
<path d="M153.85 1204.79L181.535 1227.19L216.623 1214.82L153.85 1204.79Z" fill="#434343" fill-opacity="0.49"/>
<path d="M173.564 1265.09L181.535 1227.19L153.85 1204.79L173.564 1265.09Z" fill="#888888" fill-opacity="0.51"/>
<path d="M194.355 1129.44L225.404 1152.59L222.705 1189.54L194.355 1129.44Z" fill="#B1B1B1" fill-opacity="0.28"/>
<path d="M257.545 1136.37L225.404 1152.59L222.704 1189.54L257.545 1136.37Z" fill="#434343" fill-opacity="0.49"/>
<path d="M194.355 1129.44L225.404 1152.59L257.545 1136.37L194.355 1129.44Z" fill="#888888" fill-opacity="0.51"/>
<path d="M234.889 1077.11L228.792 1115.36L194.355 1129.44L234.889 1077.11Z" fill="#B1B1B1" fill-opacity="0.28"/>
<path d="M257.545 1136.37L228.792 1115.36L194.355 1129.44L257.545 1136.37Z" fill="#434343" fill-opacity="0.49"/>
<path d="M234.889 1077.11L228.792 1115.36L257.545 1136.37L234.889 1077.11Z" fill="#888888" fill-opacity="0.51"/>
<path d="M255.434 1077.25L286.483 1100.41L283.783 1137.36L255.434 1077.25Z" fill="#B1B1B1" fill-opacity="0.28"/>
<path d="M318.624 1084.19L286.483 1100.41L283.783 1137.36L318.624 1084.19Z" fill="#434343" fill-opacity="0.49"/>
<path d="M255.434 1077.25L286.483 1100.41L318.624 1084.19L255.434 1077.25Z" fill="#888888" fill-opacity="0.51"/>
<path d="M295.968 1024.92L289.871 1063.17L255.434 1077.25L295.968 1024.92Z" fill="#B1B1B1" fill-opacity="0.28"/>
<path d="M318.624 1084.19L289.871 1063.17L255.434 1077.25L318.624 1084.19Z" fill="#434343" fill-opacity="0.49"/>
<path d="M295.968 1024.92L289.871 1063.17L318.624 1084.19L295.968 1024.92Z" fill="#888888" fill-opacity="0.51"/>
<path d="M309.356 999.437L340.405 1022.59L337.705 1059.54L309.356 999.437Z" fill="#B1B1B1" fill-opacity="0.28"/>
<path d="M372.545 1006.37L340.405 1022.59L337.705 1059.54L372.545 1006.37Z" fill="#434343" fill-opacity="0.49"/>
<path d="M309.355 999.437L340.405 1022.59L372.545 1006.37L309.355 999.437Z" fill="#888888" fill-opacity="0.51"/>
<path d="M349.889 947.107L343.792 985.357L309.356 999.437L349.889 947.107Z" fill="#B1B1B1" fill-opacity="0.28"/>
<path d="M372.546 1006.37L343.792 985.357L309.356 999.437L372.546 1006.37Z" fill="#434343" fill-opacity="0.49"/>
<path d="M349.889 947.107L343.792 985.357L372.545 1006.37L349.889 947.107Z" fill="#888888" fill-opacity="0.51"/>
<path d="M359.356 923.437L390.405 946.593L387.705 983.542L359.356 923.437Z" fill="#B1B1B1" fill-opacity="0.28"/>
<path d="M422.545 930.369L390.405 946.593L387.705 983.542L422.545 930.369Z" fill="#434343" fill-opacity="0.49"/>
<path d="M359.356 923.437L390.405 946.593L422.546 930.369L359.356 923.437Z" fill="#888888" fill-opacity="0.51"/>
<path d="M399.89 871.107L393.792 909.357L359.356 923.437L399.89 871.107Z" fill="#B1B1B1" fill-opacity="0.28"/>
<path d="M422.546 930.369L393.792 909.357L359.356 923.437L422.546 930.369Z" fill="#434343" fill-opacity="0.49"/>
<path d="M399.89 871.107L393.792 909.357L422.546 930.369L399.89 871.107Z" fill="#888888" fill-opacity="0.51"/>
</g>
<path fill-rule="evenodd" clip-rule="evenodd" d="M814.458 829.537L810.517 780.765L860.274 765L897.223 782.735L886.454 793.834L893.788 786.284L908.075 803.034L906.583 827.074L902.149 841.853L893.774 861.066L877.024 862.051L816.921 865.5L814.458 829.537Z" fill="#042F0B"/>
<path d="M816.921 865.5L864.215 816.728L861.26 847.765L816.921 865.5Z" fill="#9D9D9D" fill-opacity="0.3"/>
<path d="M861.26 847.765L906.583 827.073L902.149 841.853L893.774 861.066L877.024 862.051L861.26 847.765Z" fill="#9D9D9D" fill-opacity="0.26"/>
<path d="M816.921 865.5L861.26 847.765L877.024 862.051L816.921 865.5Z" fill="#CDCDCD" fill-opacity="0.58"/>
<path d="M908.075 803.034L906.583 827.074L861.26 847.765L864.216 816.728L893.788 786.284L908.075 803.034Z" fill="#C4C4C4" fill-opacity="0.81"/>
<path d="M810.517 780.765L814.458 829.537L816.921 865.5L897.223 782.735L860.274 765L810.517 780.765Z" fill="#D7D7D7" fill-opacity="0.31"/>
<path fill-rule="evenodd" clip-rule="evenodd" d="M726.274 861.066L725.782 779.779L728.942 782.26L811.502 793.081L811.502 793.081L814.458 829.537L816.921 865.5L726.274 861.066ZM814.435 829.525L739.688 790.676L791.796 817.713L791.796 817.713L814.435 829.525Z" fill="#57056C"/>
<path d="M726.274 861.066L725.782 779.779L803.62 840.868L816.921 865.5L726.274 861.066Z" fill="#E4E4E4" fill-opacity="0.22"/>
<path d="M803.62 840.868L739.576 790.618L814.458 829.537L803.62 840.868Z" fill="#9D9D9D" fill-opacity="0.3"/>
<path d="M811.502 793.081L814.458 829.537L791.796 817.713L811.502 793.081Z" fill="#C4C4C4" fill-opacity="0.81"/>
<path d="M811.502 793.081L728.812 782.243L739.576 790.618L791.796 817.713L811.502 793.081Z" fill="#9D9D9D" fill-opacity="0.26"/>
<path d="M816.921 865.5L803.62 840.867L814.458 829.537L816.921 865.5Z" fill="#E4E4E4" fill-opacity="0.49"/>
<path fill-rule="evenodd" clip-rule="evenodd" d="M691.376 903.826L725.289 861.066L766.671 863.037L816.921 865.5L807.561 945.309L688.833 966L669.62 955.654L672.062 954.159L664.201 947.772L687.848 904.912L691.376 903.826Z" fill="#0D65A4"/>
<path d="M751.892 885.206L816.921 865.5L768.642 895.059L751.892 885.206Z" fill="#9D9D9D" fill-opacity="0.3"/>
<path d="M691.297 903.926L725.289 861.066L766.672 863.037L751.892 885.206L691.297 903.926Z" fill="#9D9D9D" fill-opacity="0.26"/>
<path d="M751.892 885.206L766.671 863.037L816.921 865.5L751.892 885.206Z" fill="#CDCDCD" fill-opacity="0.58"/>
<path d="M768.642 895.059L672.083 954.176L664.201 947.772L687.848 904.912L751.892 885.206L768.642 895.059Z" fill="#C4C4C4" fill-opacity="0.81"/>
<path d="M807.561 945.309L816.921 865.5L669.62 955.654L688.833 966L807.561 945.309Z" fill="#F0F0F0" fill-opacity="0.26"/>
<path fill-rule="evenodd" clip-rule="evenodd" d="M907.568 930.529L903.135 860.573L816.921 865.5L816.98 865.542L816.921 865.5L811.01 915.75L806.083 957.625L865.675 900.496L829.238 935.456L875.054 941.368L897.223 923.14L873.569 906.138L907.568 930.529Z" fill="#5E4A11"/>
<path d="M865.693 900.478L897.223 923.14L875.054 941.368L829.238 935.456L865.693 900.478Z" fill="#C4C4C4" fill-opacity="0.81"/>
<path d="M816.922 865.5L849.929 889.147L811.01 915.75L816.922 865.5Z" fill="#9D9D9D" fill-opacity="0.3"/>
<path d="M865.694 900.478L806.083 957.625L811.01 915.75L865.694 900.478Z" fill="#9D9D9D" fill-opacity="0.26"/>
<path d="M811.01 915.75L849.929 889.147L865.694 900.478L811.01 915.75Z" fill="#CDCDCD" fill-opacity="0.58"/>
<path d="M903.135 860.574L907.569 930.529L816.922 865.5L903.135 860.574Z" fill="#D7D7D7" fill-opacity="0.38"/>
<path d="M559.5 445.5L429.5 932L183.5 1040L559.5 445.5Z" fill="#121212"/>
<path d="M521 589.5L566.5 993L429.5 932L521 589.5Z" fill="#333333"/>
<path d="M521 589.5L558.5 446L820 344.5L675 442.5L726.5 631L566.5 992.5L521 589.5Z" fill="#262626"/>
<path d="M675 442L847 438L814.5 705L726.5 631L675 442Z" fill="#151515"/>
<path d="M814.5 705L846.5 438L932 350.5L1002.5 434L1001 642.5L814.5 705Z" fill="#2B2B2B"/>
<path d="M846.5 438L932 350.5L820 344.5L675 442L846.5 438Z" fill="black"/>
<path d="M555.433 382.567L453.92 461.775L497.245 405.14L555.433 382.567Z" fill="#2B2B2B" fill-opacity="0.5"/>
<path d="M471.485 321.719L453.92 461.775L497.244 405.14L471.485 321.719Z" fill="#666666" fill-opacity="0.38"/>
<path d="M471.485 321.72L497.244 405.14L555.41 382.598L471.485 321.72Z" fill="#B1B1B1" fill-opacity="0.28"/>
<path d="M941.99 312.012L831.12 305.098L889.957 281.197L941.99 312.012Z" fill="#2B2B2B" fill-opacity="0.5"/>
<path d="M908.271 231.326L831.12 305.098L889.957 281.197L908.271 231.326Z" fill="#B1B1B1" fill-opacity="0.28"/>
<path d="M908.271 231.326L889.957 281.197L941.954 312.022L908.271 231.326Z" fill="#666666" fill-opacity="0.38"/>
<path d="M755.927 313.332L633.11 347.324L679.5 306L755.927 313.332Z" fill="#2B2B2B" fill-opacity="0.5"/>
<path d="M668.5 240L633.11 347.324L679.5 306L668.5 240Z" fill="#666666" fill-opacity="0.38"/>
<path d="M668.5 240L679.5 306L755.927 313.332L668.5 240Z" fill="#B1B1B1" fill-opacity="0.28"/>
<g opacity="0.2">
<path d="M1380.16 1405.83L1343.05 1416.91L1332.89 1452.54L1380.16 1405.83Z" fill="#B1B1B1" fill-opacity="0.28"/>
<path d="M1318.44 1390.63L1343.05 1416.91L1332.89 1452.54L1318.44 1390.63Z" fill="#434343" fill-opacity="0.49"/>
<path d="M1380.16 1405.83L1343.05 1416.91L1318.44 1390.63L1380.16 1405.83Z" fill="#888888" fill-opacity="0.51"/>
<path d="M1360.07 1342.76L1352.66 1380.77L1380.16 1405.83L1360.07 1342.76Z" fill="#B1B1B1" fill-opacity="0.28"/>
<path d="M1318.44 1390.63L1352.66 1380.77L1380.16 1405.83L1318.44 1390.63Z" fill="#434343" fill-opacity="0.49"/>
<path d="M1360.07 1342.76L1352.66 1380.77L1318.44 1390.63L1360.07 1342.76Z" fill="#888888" fill-opacity="0.51"/>
<path d="M1297.5 1391.54L1260.5 1403.01L1232.22 1379.09L1297.5 1391.54Z" fill="#B1B1B1" fill-opacity="0.28"/>
<path d="M1254.71 1438.55L1260.5 1403.01L1232.22 1379.09L1254.71 1438.55Z" fill="#434343" fill-opacity="0.49"/>
<path d="M1297.5 1391.54L1260.5 1403.01L1254.71 1438.55L1297.5 1391.54Z" fill="#888888" fill-opacity="0.51"/>
<path d="M1315.95 1455.11L1288.62 1427.67L1297.5 1391.54L1315.95 1455.11Z" fill="#B1B1B1" fill-opacity="0.28"/>
<path d="M1254.71 1438.55L1288.62 1427.67L1297.5 1391.54L1254.71 1438.55Z" fill="#434343" fill-opacity="0.49"/>
<path d="M1315.95 1455.11L1288.62 1427.67L1254.71 1438.55L1315.95 1455.11Z" fill="#888888" fill-opacity="0.51"/>
<path d="M1213.18 1383.13L1210.06 1421.74L1239.58 1444.12L1213.18 1383.13Z" fill="#B1B1B1" fill-opacity="0.28"/>
<path d="M1176.64 1435.15L1210.06 1421.74L1239.58 1444.12L1176.64 1435.15Z" fill="#434343" fill-opacity="0.49"/>
<path d="M1213.18 1383.13L1210.06 1421.74L1176.64 1435.15L1213.18 1383.13Z" fill="#888888" fill-opacity="0.51"/>
<path d="M1147.12 1379L1179.86 1399.69L1213.18 1383.13L1147.12 1379Z" fill="#B1B1B1" fill-opacity="0.28"/>
<path d="M1176.64 1435.15L1179.86 1399.69L1213.18 1383.13L1176.64 1435.15Z" fill="#434343" fill-opacity="0.49"/>
<path d="M1147.12 1379L1179.86 1399.69L1176.64 1435.15L1147.12 1379Z" fill="#888888" fill-opacity="0.51"/>
<path d="M1532.15 1314.51L1502.28 1289.86L1506.79 1253.09L1532.15 1314.51Z" fill="#B1B1B1" fill-opacity="0.28"/>
<path d="M1469.38 1304.48L1502.28 1289.86L1506.79 1253.09L1469.38 1304.48Z" fill="#434343" fill-opacity="0.49"/>
<path d="M1532.15 1314.51L1502.28 1289.86L1469.38 1304.48L1532.15 1314.51Z" fill="#888888" fill-opacity="0.51"/>
<path d="M1489.09 1364.79L1497.06 1326.88L1532.15 1314.51L1489.09 1364.79Z" fill="#B1B1B1" fill-opacity="0.28"/>
<path d="M1469.38 1304.48L1497.06 1326.88L1532.15 1314.51L1469.38 1304.48Z" fill="#434343" fill-opacity="0.49"/>
<path d="M1489.09 1364.79L1497.06 1326.88L1469.38 1304.48L1489.09 1364.79Z" fill="#888888" fill-opacity="0.51"/>
<path d="M1515.23 1231.13L1546.28 1254.29L1543.58 1291.24L1515.23 1231.13Z" fill="#B1B1B1" fill-opacity="0.28"/>
<path d="M1578.42 1238.06L1546.28 1254.29L1543.58 1291.24L1578.42 1238.06Z" fill="#434343" fill-opacity="0.49"/>
<path d="M1515.23 1231.13L1546.28 1254.29L1578.42 1238.06L1515.23 1231.13Z" fill="#888888" fill-opacity="0.51"/>
<path d="M1555.77 1178.8L1549.67 1217.05L1515.23 1231.13L1555.77 1178.8Z" fill="#B1B1B1" fill-opacity="0.28"/>
<path d="M1578.42 1238.06L1549.67 1217.05L1515.23 1231.13L1578.42 1238.06Z" fill="#434343" fill-opacity="0.49"/>
<path d="M1555.77 1178.8L1549.67 1217.05L1578.42 1238.06L1555.77 1178.8Z" fill="#888888" fill-opacity="0.51"/>
<path d="M1621.23 1072.13L1652.28 1095.29L1649.58 1132.24L1621.23 1072.13Z" fill="#B1B1B1" fill-opacity="0.28"/>
<path d="M1684.42 1079.06L1652.28 1095.29L1649.58 1132.24L1684.42 1079.06Z" fill="#434343" fill-opacity="0.49"/>
<path d="M1621.23 1072.13L1652.28 1095.29L1684.42 1079.06L1621.23 1072.13Z" fill="#888888" fill-opacity="0.51"/>
<path d="M1661.77 1019.8L1655.67 1058.05L1621.23 1072.13L1661.77 1019.8Z" fill="#B1B1B1" fill-opacity="0.28"/>
<path d="M1684.42 1079.06L1655.67 1058.05L1621.23 1072.13L1684.42 1079.06Z" fill="#434343" fill-opacity="0.49"/>
<path d="M1661.77 1019.8L1655.67 1058.05L1684.42 1079.06L1661.77 1019.8Z" fill="#888888" fill-opacity="0.51"/>
</g>
<g opacity="0.5">
<path d="M1402.36 1412.09L1448.02 1449.43L1444.94 1495.37L1402.36 1412.09Z" fill="#B1B1B1" fill-opacity="0.28"/>
<path d="M1494.35 1437.33L1448.02 1449.43L1444.94 1495.37L1494.35 1437.33Z" fill="#434343" fill-opacity="0.49"/>
<path d="M1402.36 1412.09L1448.02 1449.43L1494.35 1437.33L1402.36 1412.09Z" fill="#888888" fill-opacity="0.51"/>
<path d="M1460.06 1356.6L1452.08 1403.3L1402.36 1412.09L1460.06 1356.6Z" fill="#B1B1B1" fill-opacity="0.28"/>
<path d="M1494.35 1437.33L1452.08 1403.3L1402.36 1412.09L1494.35 1437.33Z" fill="#434343" fill-opacity="0.49"/>
<path d="M1460.06 1356.6L1452.08 1403.3L1494.35 1437.33L1460.06 1356.6Z" fill="#888888" fill-opacity="0.51"/>
<path d="M1326.36 1483.09L1372.02 1520.43L1368.94 1566.37L1326.36 1483.09Z" fill="#B1B1B1" fill-opacity="0.28"/>
<path d="M1418.35 1508.33L1372.02 1520.43L1368.94 1566.37L1418.35 1508.33Z" fill="#434343" fill-opacity="0.49"/>
<path d="M1326.36 1483.09L1372.02 1520.43L1418.35 1508.33L1326.36 1483.09Z" fill="#888888" fill-opacity="0.51"/>
<path d="M1384.06 1427.6L1376.08 1474.3L1326.36 1483.09L1384.06 1427.6Z" fill="#B1B1B1" fill-opacity="0.28"/>
<path d="M1418.35 1508.33L1376.08 1474.3L1326.36 1483.09L1418.35 1508.33Z" fill="#434343" fill-opacity="0.49"/>
<path d="M1384.06 1427.6L1376.08 1474.3L1418.35 1508.33L1384.06 1427.6Z" fill="#888888" fill-opacity="0.51"/>
<path d="M1364.65 1300.34L1417.43 1293.6L1428.8 1250.23L1364.65 1300.34Z" fill="#B1B1B1" fill-opacity="0.28"/>
<path d="M1455.61 1331.96L1417.43 1293.6L1428.8 1250.23L1455.61 1331.96Z" fill="#434343" fill-opacity="0.49"/>
<path d="M1364.65 1300.34L1417.43 1293.6L1455.61 1331.96L1364.65 1300.34Z" fill="#888888" fill-opacity="0.51"/>
<path d="M1399.74 1384.67L1406.9 1337.72L1364.65 1300.34L1399.74 1384.67Z" fill="#B1B1B1" fill-opacity="0.28"/>
<path d="M1455.61 1331.96L1406.9 1337.72L1364.65 1300.34L1455.61 1331.96Z" fill="#434343" fill-opacity="0.49"/>
<path d="M1399.74 1384.67L1406.9 1337.72L1455.61 1331.96L1399.74 1384.67Z" fill="#888888" fill-opacity="0.51"/>
<path d="M1430.66 1220.16L1376.98 1224.46L1363.04 1266.79L1430.66 1220.16Z" fill="#B1B1B1" fill-opacity="0.28"/>
<path d="M1340.61 1184.86L1376.98 1224.46L1363.04 1266.79L1340.61 1184.86Z" fill="#434343" fill-opacity="0.49"/>
<path d="M1430.66 1220.16L1376.98 1224.46L1340.61 1184.86L1430.66 1220.16Z" fill="#888888" fill-opacity="0.51"/>
<path d="M1400.02 1135.29L1390.12 1181.35L1430.66 1220.16L1400.02 1135.29Z" fill="#B1B1B1" fill-opacity="0.28"/>
<path d="M1340.61 1184.86L1390.12 1181.35L1430.66 1220.16L1340.61 1184.86Z" fill="#434343" fill-opacity="0.49"/>
<path d="M1400.02 1135.29L1390.12 1181.35L1340.61 1184.86L1400.02 1135.29Z" fill="#888888" fill-opacity="0.51"/>
<path d="M1371.73 1126.16L1318.04 1130.46L1304.1 1172.79L1371.73 1126.16Z" fill="#B1B1B1" fill-opacity="0.28"/>
<path d="M1281.67 1090.86L1318.04 1130.46L1304.1 1172.79L1281.67 1090.86Z" fill="#434343" fill-opacity="0.49"/>
<path d="M1371.73 1126.16L1318.04 1130.46L1281.67 1090.86L1371.73 1126.16Z" fill="#888888" fill-opacity="0.51"/>
<path d="M1341.08 1041.29L1331.18 1087.35L1371.73 1126.16L1341.08 1041.29Z" fill="#B1B1B1" fill-opacity="0.28"/>
<path d="M1281.67 1090.86L1331.18 1087.35L1371.73 1126.16L1281.67 1090.86Z" fill="#434343" fill-opacity="0.49"/>
<path d="M1341.08 1041.29L1331.18 1087.35L1281.67 1090.86L1341.08 1041.29Z" fill="#888888" fill-opacity="0.51"/>
<path d="M1299.75 1044.16L1246.07 1048.46L1232.13 1090.79L1299.75 1044.16Z" fill="#B1B1B1" fill-opacity="0.28"/>
<path d="M1209.7 1008.86L1246.07 1048.46L1232.13 1090.79L1209.7 1008.86Z" fill="#434343" fill-opacity="0.49"/>
<path d="M1299.75 1044.16L1246.07 1048.46L1209.7 1008.86L1299.75 1044.16Z" fill="#888888" fill-opacity="0.51"/>
<path d="M1269.1 959.287L1259.2 1005.35L1299.75 1044.16L1269.1 959.287Z" fill="#B1B1B1" fill-opacity="0.28"/>
<path d="M1209.7 1008.86L1259.2 1005.35L1299.75 1044.16L1209.7 1008.86Z" fill="#434343" fill-opacity="0.49"/>
<path d="M1269.1 959.287L1259.2 1005.35L1209.7 1008.86L1269.1 959.287Z" fill="#888888" fill-opacity="0.51"/>
<path d="M1233.46 947.163L1181.62 961.74L1176.1 1005.97L1233.46 947.163Z" fill="#B1B1B1" fill-opacity="0.28"/>
<path d="M1138.29 929.899L1181.62 961.74L1176.1 1005.97L1138.29 929.899Z" fill="#434343" fill-opacity="0.49"/>
<path d="M1233.46 947.163L1181.62 961.74L1138.29 929.899L1233.46 947.163Z" fill="#888888" fill-opacity="0.51"/>
<path d="M1187.02 869.796L1186.19 916.904L1233.46 947.163L1187.02 869.796Z" fill="#B1B1B1" fill-opacity="0.28"/>
<path d="M1138.29 929.899L1186.19 916.904L1233.46 947.163L1138.29 929.899Z" fill="#434343" fill-opacity="0.49"/>
<path d="M1187.02 869.796L1186.19 916.904L1138.29 929.899L1187.02 869.796Z" fill="#888888" fill-opacity="0.51"/>
<path d="M1055.3 744.618L1008.33 770.969L1013.36 815.252L1055.3 744.618Z" fill="#B1B1B1" fill-opacity="0.28"/>
<path d="M958.734 750.2L1008.33 770.969L1013.36 815.252L958.734 750.2Z" fill="#434343" fill-opacity="0.49"/>
<path d="M1055.3 744.617L1008.33 770.969L958.734 750.2L1055.3 744.617Z" fill="#888888" fill-opacity="0.51"/>
<path d="M991.977 680.33L1002.24 726.313L1055.3 744.618L991.977 680.33Z" fill="#B1B1B1" fill-opacity="0.28"/>
<path d="M958.734 750.201L1002.24 726.313L1055.3 744.618L958.734 750.201Z" fill="#434343" fill-opacity="0.49"/>
<path d="M991.977 680.33L1002.24 726.313L958.734 750.201L991.977 680.33Z" fill="#888888" fill-opacity="0.51"/>
</g>
<g opacity="0.4">
<path d="M1722.43 1340.15L1778.58 1358.2L1792.53 1402.09L1722.43 1340.15Z" fill="#B1B1B1" fill-opacity="0.28"/>
<path d="M1817.28 1330L1778.58 1358.2L1792.53 1402.09L1817.28 1330Z" fill="#434343" fill-opacity="0.49"/>
<path d="M1722.43 1340.15L1778.58 1358.2L1817.28 1330L1722.43 1340.15Z" fill="#888888" fill-opacity="0.51"/>
<path d="M1755.84 1267.4L1765.5 1313.78L1722.43 1340.15L1755.84 1267.4Z" fill="#B1B1B1" fill-opacity="0.28"/>
<path d="M1817.29 1330L1765.5 1313.78L1722.43 1340.15L1817.29 1330Z" fill="#434343" fill-opacity="0.49"/>
<path d="M1755.84 1267.4L1765.5 1313.78L1817.28 1330L1755.84 1267.4Z" fill="#888888" fill-opacity="0.51"/>
<path d="M1814.43 1378.15L1870.58 1396.2L1884.53 1440.09L1814.43 1378.15Z" fill="#B1B1B1" fill-opacity="0.28"/>
<path d="M1909.28 1368L1870.58 1396.2L1884.53 1440.09L1909.28 1368Z" fill="#434343" fill-opacity="0.49"/>
<path d="M1814.43 1378.15L1870.58 1396.2L1909.28 1367.99L1814.43 1378.15Z" fill="#888888" fill-opacity="0.51"/>
<path d="M1847.84 1305.4L1857.5 1351.78L1814.43 1378.15L1847.84 1305.4Z" fill="#B1B1B1" fill-opacity="0.28"/>
<path d="M1909.29 1368L1857.5 1351.78L1814.43 1378.15L1909.29 1368Z" fill="#434343" fill-opacity="0.49"/>
<path d="M1847.84 1305.4L1857.5 1351.78L1909.28 1367.99L1847.84 1305.4Z" fill="#888888" fill-opacity="0.51"/>
<path d="M1634.06 1269.1L1680.72 1243.51L1675.44 1198.99L1634.06 1269.1Z" fill="#B1B1B1" fill-opacity="0.28"/>
<path d="M1730.29 1265.25L1680.72 1243.51L1675.44 1198.99L1730.29 1265.25Z" fill="#434343" fill-opacity="0.49"/>
<path d="M1634.06 1269.1L1680.72 1243.51L1730.29 1265.25L1634.06 1269.1Z" fill="#888888" fill-opacity="0.51"/>
<path d="M1697.57 1334.75L1687.06 1288.43L1634.06 1269.1L1697.57 1334.75Z" fill="#B1B1B1" fill-opacity="0.28"/>
<path d="M1730.29 1265.25L1687.06 1288.43L1634.06 1269.1L1730.29 1265.25Z" fill="#434343" fill-opacity="0.49"/>
<path d="M1697.57 1334.75L1687.06 1288.43L1730.29 1265.25L1697.57 1334.75Z" fill="#888888" fill-opacity="0.51"/>
<path d="M1588.06 1378.1L1634.72 1352.51L1629.44 1307.99L1588.06 1378.1Z" fill="#B1B1B1" fill-opacity="0.28"/>
<path d="M1684.28 1374.25L1634.72 1352.51L1629.44 1307.99L1684.28 1374.25Z" fill="#434343" fill-opacity="0.49"/>
<path d="M1588.06 1378.1L1634.72 1352.51L1684.28 1374.25L1588.06 1378.1Z" fill="#888888" fill-opacity="0.51"/>
<path d="M1651.57 1443.75L1641.06 1397.43L1588.06 1378.1L1651.57 1443.75Z" fill="#B1B1B1" fill-opacity="0.28"/>
<path d="M1684.29 1374.25L1641.06 1397.43L1588.06 1378.1L1684.29 1374.25Z" fill="#434343" fill-opacity="0.49"/>
<path d="M1651.57 1443.75L1641.06 1397.43L1684.29 1374.25L1651.57 1443.75Z" fill="#888888" fill-opacity="0.51"/>
<path d="M1550.06 1492.1L1596.72 1466.51L1591.44 1421.99L1550.06 1492.1Z" fill="#B1B1B1" fill-opacity="0.28"/>
<path d="M1646.28 1488.25L1596.72 1466.51L1591.44 1421.99L1646.28 1488.25Z" fill="#434343" fill-opacity="0.49"/>
<path d="M1550.06 1492.1L1596.72 1466.51L1646.28 1488.25L1550.06 1492.1Z" fill="#888888" fill-opacity="0.51"/>
<path d="M1613.57 1557.75L1603.06 1511.43L1550.06 1492.1L1613.57 1557.75Z" fill="#B1B1B1" fill-opacity="0.28"/>
<path d="M1646.29 1488.25L1603.06 1511.43L1550.06 1492.1L1646.29 1488.25Z" fill="#434343" fill-opacity="0.49"/>
<path d="M1613.57 1557.75L1603.06 1511.43L1646.29 1488.25L1613.57 1557.75Z" fill="#888888" fill-opacity="0.51"/>
<path d="M1662.7 1163.71L1614.31 1187.35L1616.81 1231.84L1662.7 1163.71Z" fill="#B1B1B1" fill-opacity="0.28"/>
<path d="M1565.97 1163.79L1614.31 1187.35L1616.81 1231.84L1565.97 1163.79Z" fill="#434343" fill-opacity="0.49"/>
<path d="M1662.7 1163.71L1614.31 1187.35L1565.97 1163.79L1662.7 1163.71Z" fill="#888888" fill-opacity="0.51"/>
<path d="M1603.13 1095.92L1610.76 1142.42L1662.7 1163.71L1603.13 1095.92Z" fill="#B1B1B1" fill-opacity="0.28"/>
<path d="M1565.97 1163.79L1610.76 1142.42L1662.7 1163.71L1565.97 1163.79Z" fill="#434343" fill-opacity="0.49"/>
<path d="M1603.13 1095.92L1610.76 1142.42L1565.97 1163.79L1603.13 1095.92Z" fill="#888888" fill-opacity="0.51"/>
<path d="M1586.18 1084.71L1537.8 1108.35L1540.3 1152.84L1586.18 1084.71Z" fill="#B1B1B1" fill-opacity="0.28"/>
<path d="M1489.46 1084.79L1537.8 1108.35L1540.3 1152.84L1489.46 1084.79Z" fill="#434343" fill-opacity="0.49"/>
<path d="M1586.18 1084.71L1537.8 1108.35L1489.46 1084.79L1586.18 1084.71Z" fill="#888888" fill-opacity="0.51"/>
<path d="M1526.62 1016.92L1534.25 1063.42L1586.19 1084.71L1526.62 1016.92Z" fill="#B1B1B1" fill-opacity="0.28"/>
<path d="M1489.46 1084.79L1534.25 1063.42L1586.18 1084.71L1489.46 1084.79Z" fill="#434343" fill-opacity="0.49"/>
<path d="M1526.62 1016.92L1534.25 1063.42L1489.46 1084.79L1526.62 1016.92Z" fill="#888888" fill-opacity="0.51"/>
<path d="M1512.7 988.706L1464.31 1012.35L1466.81 1056.84L1512.7 988.706Z" fill="#B1B1B1" fill-opacity="0.28"/>
<path d="M1415.97 988.793L1464.31 1012.35L1466.81 1056.84L1415.97 988.793Z" fill="#434343" fill-opacity="0.49"/>
<path d="M1512.7 988.706L1464.31 1012.35L1415.97 988.793L1512.7 988.706Z" fill="#888888" fill-opacity="0.51"/>
<path d="M1453.13 920.924L1460.76 967.416L1512.7 988.706L1453.13 920.924Z" fill="#B1B1B1" fill-opacity="0.28"/>
<path d="M1415.97 988.793L1460.76 967.416L1512.7 988.706L1415.97 988.793Z" fill="#434343" fill-opacity="0.49"/>
<path d="M1453.13 920.924L1460.76 967.417L1415.97 988.793L1453.13 920.924Z" fill="#888888" fill-opacity="0.51"/>
<path d="M1360.7 815.706L1312.31 839.346L1314.81 883.844L1360.7 815.706Z" fill="#B1B1B1" fill-opacity="0.28"/>
<path d="M1263.97 815.793L1312.31 839.346L1314.81 883.843L1263.97 815.793Z" fill="#434343" fill-opacity="0.49"/>
<path d="M1360.7 815.706L1312.31 839.346L1263.97 815.793L1360.7 815.706Z" fill="#888888" fill-opacity="0.51"/>
<path d="M1301.13 747.924L1308.76 794.416L1360.7 815.706L1301.13 747.924Z" fill="#B1B1B1" fill-opacity="0.28"/>
<path d="M1263.97 815.793L1308.76 794.416L1360.7 815.706L1263.97 815.793Z" fill="#434343" fill-opacity="0.49"/>
<path d="M1301.13 747.924L1308.76 794.417L1263.97 815.793L1301.13 747.924Z" fill="#888888" fill-opacity="0.51"/>
<path d="M1436.22 722.949L1390.9 752.034L1398.54 795.942L1436.22 722.949Z" fill="#B1B1B1" fill-opacity="0.28"/>
<path d="M1340.16 734.237L1390.9 752.034L1398.54 795.942L1340.16 734.237Z" fill="#434343" fill-opacity="0.49"/>
<path d="M1436.22 722.949L1390.9 752.034L1340.16 734.237L1436.22 722.949Z" fill="#888888" fill-opacity="0.51"/>
<path d="M1369.21 662.522L1382.17 707.817L1436.22 722.949L1369.21 662.522Z" fill="#B1B1B1" fill-opacity="0.28"/>
<path d="M1340.16 734.238L1382.17 707.817L1436.22 722.949L1340.16 734.238Z" fill="#434343" fill-opacity="0.49"/>
<path d="M1369.21 662.522L1382.17 707.817L1340.16 734.238L1369.21 662.522Z" fill="#888888" fill-opacity="0.51"/>
</g>
<g opacity="0.25">
<path d="M1908.92 1355.61L1946.13 1366.38L1956.58 1401.93L1908.92 1355.61Z" fill="#B1B1B1" fill-opacity="0.28"/>
<path d="M1970.52 1339.9L1946.13 1366.38L1956.58 1401.93L1970.52 1339.9Z" fill="#434343" fill-opacity="0.49"/>
<path d="M1908.92 1355.61L1946.13 1366.38L1970.52 1339.9L1908.92 1355.61Z" fill="#888888" fill-opacity="0.51"/>
<path d="M1928.49 1292.38L1936.22 1330.33L1908.92 1355.61L1928.49 1292.38Z" fill="#B1B1B1" fill-opacity="0.28"/>
<path d="M1970.52 1339.9L1936.22 1330.33L1908.92 1355.61L1970.52 1339.9Z" fill="#434343" fill-opacity="0.49"/>
<path d="M1928.49 1292.38L1936.22 1330.33L1970.52 1339.9L1928.49 1292.38Z" fill="#888888" fill-opacity="0.51"/>
<path d="M1901.98 1445.44L1939.18 1456.21L1949.63 1491.75L1901.98 1445.44Z" fill="#B1B1B1" fill-opacity="0.28"/>
<path d="M1963.57 1429.73L1939.18 1456.21L1949.63 1491.75L1963.57 1429.73Z" fill="#434343" fill-opacity="0.49"/>
<path d="M1901.98 1445.44L1939.18 1456.21L1963.57 1429.73L1901.98 1445.44Z" fill="#888888" fill-opacity="0.51"/>
<path d="M1921.55 1382.2L1929.27 1420.16L1901.98 1445.44L1921.55 1382.2Z" fill="#B1B1B1" fill-opacity="0.28"/>
<path d="M1963.57 1429.73L1929.27 1420.16L1901.98 1445.44L1963.57 1429.73Z" fill="#434343" fill-opacity="0.49"/>
<path d="M1921.55 1382.2L1929.27 1420.16L1963.57 1429.73L1921.55 1382.2Z" fill="#888888" fill-opacity="0.51"/>
<path d="M1881.96 1534.67L1919.16 1545.45L1929.62 1580.99L1881.96 1534.67Z" fill="#B1B1B1" fill-opacity="0.28"/>
<path d="M1943.56 1518.97L1919.16 1545.45L1929.62 1580.99L1943.56 1518.97Z" fill="#434343" fill-opacity="0.49"/>
<path d="M1881.96 1534.67L1919.16 1545.45L1943.56 1518.97L1881.96 1534.67Z" fill="#888888" fill-opacity="0.51"/>
<path d="M1901.53 1471.44L1909.26 1509.39L1881.96 1534.67L1901.53 1471.44Z" fill="#B1B1B1" fill-opacity="0.28"/>
<path d="M1943.56 1518.97L1909.26 1509.39L1881.96 1534.67L1943.56 1518.97Z" fill="#434343" fill-opacity="0.49"/>
<path d="M1901.53 1471.44L1909.26 1509.39L1943.56 1518.97L1901.53 1471.44Z" fill="#888888" fill-opacity="0.51"/>
<path d="M1860.91 1281.16L1898.11 1291.93L1908.56 1327.48L1860.91 1281.16Z" fill="#B1B1B1" fill-opacity="0.28"/>
<path d="M1922.51 1265.45L1898.11 1291.93L1908.56 1327.48L1922.51 1265.45Z" fill="#434343" fill-opacity="0.49"/>
<path d="M1860.91 1281.16L1898.11 1291.93L1922.51 1265.45L1860.91 1281.16Z" fill="#888888" fill-opacity="0.51"/>
<path d="M1880.48 1217.93L1888.2 1255.88L1860.91 1281.16L1880.48 1217.93Z" fill="#B1B1B1" fill-opacity="0.28"/>
<path d="M1922.51 1265.45L1888.2 1255.88L1860.91 1281.16L1922.51 1265.45Z" fill="#434343" fill-opacity="0.49"/>
<path d="M1880.48 1217.93L1888.21 1255.88L1922.51 1265.45L1880.48 1217.93Z" fill="#888888" fill-opacity="0.51"/>
<path d="M1794.43 1240.24L1824.09 1215.34L1819.28 1178.6L1794.43 1240.24Z" fill="#B1B1B1" fill-opacity="0.28"/>
<path d="M1857.11 1229.69L1824.09 1215.34L1819.28 1178.6L1857.11 1229.69Z" fill="#434343" fill-opacity="0.49"/>
<path d="M1794.43 1240.24L1824.09 1215.34L1857.11 1229.69L1794.43 1240.24Z" fill="#888888" fill-opacity="0.51"/>
<path d="M1837.9 1290.15L1829.61 1252.32L1794.43 1240.24L1837.9 1290.15Z" fill="#B1B1B1" fill-opacity="0.28"/>
<path d="M1857.11 1229.69L1829.61 1252.32L1794.43 1240.24L1857.11 1229.69Z" fill="#434343" fill-opacity="0.49"/>
<path d="M1837.9 1290.15L1829.61 1252.32L1857.11 1229.69L1837.9 1290.15Z" fill="#888888" fill-opacity="0.51"/>
<path d="M1816.75 1149.09L1785.89 1172.5L1788.9 1209.43L1816.75 1149.09Z" fill="#B1B1B1" fill-opacity="0.28"/>
<path d="M1753.62 1156.54L1785.89 1172.5L1788.9 1209.43L1753.62 1156.54Z" fill="#434343" fill-opacity="0.49"/>
<path d="M1816.75 1149.09L1785.89 1172.5L1753.62 1156.54L1816.75 1149.09Z" fill="#888888" fill-opacity="0.51"/>
<path d="M1775.79 1097.1L1782.2 1135.29L1816.75 1149.09L1775.79 1097.1Z" fill="#B1B1B1" fill-opacity="0.28"/>
<path d="M1753.62 1156.54L1782.2 1135.29L1816.75 1149.09L1753.62 1156.54Z" fill="#434343" fill-opacity="0.49"/>
<path d="M1775.79 1097.1L1782.2 1135.29L1753.62 1156.54L1775.79 1097.1Z" fill="#888888" fill-opacity="0.51"/>
<path d="M1770.85 1067.45L1740 1090.86L1743 1127.79L1770.85 1067.45Z" fill="#B1B1B1" fill-opacity="0.28"/>
<path d="M1707.72 1074.9L1740 1090.86L1743 1127.79L1707.72 1074.9Z" fill="#434343" fill-opacity="0.49"/>
<path d="M1770.85 1067.45L1740 1090.86L1707.72 1074.9L1770.85 1067.45Z" fill="#888888" fill-opacity="0.51"/>
<path d="M1729.89 1015.46L1736.3 1053.66L1770.85 1067.45L1729.89 1015.46Z" fill="#B1B1B1" fill-opacity="0.28"/>
<path d="M1707.72 1074.9L1736.3 1053.66L1770.85 1067.45L1707.72 1074.9Z" fill="#434343" fill-opacity="0.49"/>
<path d="M1729.89 1015.46L1736.3 1053.66L1707.72 1074.9L1729.89 1015.46Z" fill="#888888" fill-opacity="0.51"/>
<path d="M1721.12 982.451L1690.26 1005.86L1693.26 1042.79L1721.12 982.451Z" fill="#B1B1B1" fill-opacity="0.28"/>
<path d="M1657.99 989.905L1690.26 1005.86L1693.27 1042.79L1657.99 989.905Z" fill="#434343" fill-opacity="0.49"/>
<path d="M1721.12 982.451L1690.26 1005.86L1657.99 989.905L1721.12 982.451Z" fill="#888888" fill-opacity="0.51"/>
<path d="M1680.15 930.458L1686.56 968.656L1721.12 982.452L1680.15 930.458Z" fill="#B1B1B1" fill-opacity="0.28"/>
<path d="M1657.99 989.905L1686.56 968.656L1721.12 982.451L1657.99 989.905Z" fill="#434343" fill-opacity="0.49"/>
<path d="M1680.15 930.457L1686.56 968.656L1657.99 989.905L1680.15 930.457Z" fill="#888888" fill-opacity="0.51"/>
<path d="M1666.12 902.451L1635.26 925.863L1638.27 962.788L1666.12 902.451Z" fill="#B1B1B1" fill-opacity="0.28"/>
<path d="M1602.99 909.905L1635.26 925.863L1638.27 962.788L1602.99 909.905Z" fill="#434343" fill-opacity="0.49"/>
<path d="M1666.12 902.451L1635.26 925.863L1602.99 909.905L1666.12 902.451Z" fill="#888888" fill-opacity="0.51"/>
<path d="M1625.15 850.458L1631.57 888.656L1666.12 902.452L1625.15 850.458Z" fill="#B1B1B1" fill-opacity="0.28"/>
<path d="M1602.99 909.905L1631.57 888.656L1666.12 902.451L1602.99 909.905Z" fill="#434343" fill-opacity="0.49"/>
<path d="M1625.15 850.457L1631.57 888.656L1602.99 909.905L1625.15 850.457Z" fill="#888888" fill-opacity="0.51"/>
<path d="M1613.12 835.451L1582.26 858.863L1585.27 895.788L1613.12 835.451Z" fill="#B1B1B1" fill-opacity="0.28"/>
<path d="M1549.99 842.905L1582.26 858.863L1585.27 895.788L1549.99 842.905Z" fill="#434343" fill-opacity="0.49"/>
<path d="M1613.12 835.451L1582.26 858.863L1549.99 842.905L1613.12 835.451Z" fill="#888888" fill-opacity="0.51"/>
<path d="M1572.15 783.458L1578.57 821.656L1613.12 835.452L1572.15 783.458Z" fill="#B1B1B1" fill-opacity="0.28"/>
<path d="M1549.99 842.905L1578.57 821.656L1613.12 835.451L1549.99 842.905Z" fill="#434343" fill-opacity="0.49"/>
<path d="M1572.15 783.457L1578.57 821.656L1549.99 842.905L1572.15 783.457Z" fill="#888888" fill-opacity="0.51"/>
<path d="M1563.12 754.451L1532.26 777.863L1535.27 814.788L1563.12 754.451Z" fill="#B1B1B1" fill-opacity="0.28"/>
<path d="M1499.99 761.905L1532.26 777.863L1535.27 814.788L1499.99 761.905Z" fill="#434343" fill-opacity="0.49"/>
<path d="M1563.12 754.451L1532.26 777.863L1499.99 761.905L1563.12 754.451Z" fill="#888888" fill-opacity="0.51"/>
<path d="M1522.15 702.458L1528.57 740.656L1563.12 754.452L1522.15 702.458Z" fill="#B1B1B1" fill-opacity="0.28"/>
<path d="M1499.99 761.905L1528.57 740.656L1563.12 754.451L1499.99 761.905Z" fill="#434343" fill-opacity="0.49"/>
<path d="M1522.15 702.457L1528.57 740.656L1499.99 761.905L1522.15 702.457Z" fill="#888888" fill-opacity="0.51"/>
<path d="M1504.12 685.451L1473.26 708.863L1476.27 745.788L1504.12 685.451Z" fill="#B1B1B1" fill-opacity="0.28"/>
<path d="M1440.99 692.905L1473.26 708.863L1476.27 745.788L1440.99 692.905Z" fill="#434343" fill-opacity="0.49"/>
<path d="M1504.12 685.451L1473.26 708.863L1440.99 692.905L1504.12 685.451Z" fill="#888888" fill-opacity="0.51"/>
<path d="M1463.15 633.458L1469.57 671.656L1504.12 685.452L1463.15 633.458Z" fill="#B1B1B1" fill-opacity="0.28"/>
<path d="M1440.99 692.905L1469.57 671.656L1504.12 685.451L1440.99 692.905Z" fill="#434343" fill-opacity="0.49"/>
<path d="M1463.15 633.457L1469.57 671.656L1440.99 692.905L1463.15 633.457Z" fill="#888888" fill-opacity="0.51"/>
</g>
<g opacity="0.15">
<path d="M1573.42 1289.42L1593.85 1295.52L1599.44 1315.13L1573.42 1289.42Z" fill="#B1B1B1" fill-opacity="0.28"/>
<path d="M1607.4 1281.05L1593.85 1295.52L1599.44 1315.13L1607.4 1281.05Z" fill="#434343" fill-opacity="0.49"/>
<path d="M1573.42 1289.42L1593.85 1295.52L1607.4 1281.05L1573.42 1289.42Z" fill="#888888" fill-opacity="0.51"/>
<path d="M1584.48 1254.69L1588.56 1275.62L1573.42 1289.42L1584.48 1254.69Z" fill="#B1B1B1" fill-opacity="0.28"/>
<path d="M1607.4 1281.05L1588.56 1275.62L1573.41 1289.42L1607.4 1281.05Z" fill="#434343" fill-opacity="0.49"/>
<path d="M1584.48 1254.69L1588.56 1275.62L1607.4 1281.05L1584.48 1254.69Z" fill="#888888" fill-opacity="0.51"/>
<path d="M1686.89 1446.01L1711.7 1445.76L1724.65 1465.64L1686.89 1446.01Z" fill="#B1B1B1" fill-opacity="0.28"/>
<path d="M1721.78 1425.03L1711.7 1445.76L1724.65 1465.64L1721.78 1425.03Z" fill="#434343" fill-opacity="0.49"/>
<path d="M1686.89 1446.01L1711.7 1445.76L1721.78 1425.03L1686.89 1446.01Z" fill="#888888" fill-opacity="0.51"/>
<path d="M1687.25 1403.62L1698.98 1425.48L1686.89 1446.01L1687.25 1403.62Z" fill="#B1B1B1" fill-opacity="0.28"/>
<path d="M1721.78 1425.03L1698.98 1425.48L1686.89 1446.01L1721.78 1425.03Z" fill="#434343" fill-opacity="0.49"/>
<path d="M1687.25 1403.62L1698.98 1425.48L1721.78 1425.03L1687.25 1403.62Z" fill="#888888" fill-opacity="0.51"/>
<path d="M1752.95 1468.52L1773.8 1463.06L1788.93 1477.07L1752.95 1468.52Z" fill="#B1B1B1" fill-opacity="0.28"/>
<path d="M1777.92 1443.45L1773.8 1463.06L1788.93 1477.07L1777.92 1443.45Z" fill="#434343" fill-opacity="0.49"/>
<path d="M1752.95 1468.52L1773.8 1463.06L1777.92 1443.45L1752.95 1468.52Z" fill="#888888" fill-opacity="0.51"/>
<path d="M1744.27 1432.71L1758.79 1448.65L1752.95 1468.52L1744.27 1432.71Z" fill="#B1B1B1" fill-opacity="0.28"/>
<path d="M1777.92 1443.45L1758.79 1448.65L1752.95 1468.52L1777.92 1443.45Z" fill="#434343" fill-opacity="0.49"/>
<path d="M1744.28 1432.71L1758.79 1448.65L1777.92 1443.45L1744.28 1432.71Z" fill="#888888" fill-opacity="0.51"/>
<path d="M1478.06 1176.68L1496.16 1161.74L1493.43 1139.45L1478.06 1176.68Z" fill="#B1B1B1" fill-opacity="0.28"/>
<path d="M1516.11 1170.6L1496.16 1161.74L1493.43 1139.45L1516.11 1170.6Z" fill="#434343" fill-opacity="0.49"/>
<path d="M1478.06 1176.68L1496.16 1161.74L1516.11 1170.6L1478.06 1176.68Z" fill="#888888" fill-opacity="0.51"/>
<path d="M1504.16 1207.15L1499.33 1184.18L1478.06 1176.68L1504.16 1207.15Z" fill="#B1B1B1" fill-opacity="0.28"/>
<path d="M1516.11 1170.6L1499.33 1184.18L1478.06 1176.68L1516.11 1170.6Z" fill="#434343" fill-opacity="0.49"/>
<path d="M1504.16 1207.15L1499.33 1184.18L1516.11 1170.6L1504.16 1207.15Z" fill="#888888" fill-opacity="0.51"/>
<path d="M1472.17 1119.23L1454.63 1132.32L1456.15 1153.2L1472.17 1119.23Z" fill="#B1B1B1" fill-opacity="0.28"/>
<path d="M1436.46 1123.15L1454.63 1132.32L1456.15 1153.2L1436.46 1123.15Z" fill="#434343" fill-opacity="0.49"/>
<path d="M1472.17 1119.23L1454.63 1132.32L1436.46 1123.15L1472.17 1119.23Z" fill="#888888" fill-opacity="0.51"/>
<path d="M1449.27 1089.66L1452.71 1111.28L1472.17 1119.23L1449.27 1089.66Z" fill="#B1B1B1" fill-opacity="0.28"/>
<path d="M1436.46 1123.15L1452.71 1111.28L1472.17 1119.23L1436.46 1123.15Z" fill="#434343" fill-opacity="0.49"/>
<path d="M1449.27 1089.66L1452.71 1111.28L1436.47 1123.15L1449.27 1089.66Z" fill="#888888" fill-opacity="0.51"/>
<path d="M1430.38 1084.81L1413.97 1097.05L1415.4 1116.59L1430.38 1084.81Z" fill="#B1B1B1" fill-opacity="0.28"/>
<path d="M1396.98 1088.48L1413.97 1097.05L1415.4 1116.59L1396.98 1088.48Z" fill="#434343" fill-opacity="0.49"/>
<path d="M1430.38 1084.81L1413.97 1097.05L1396.98 1088.48L1430.38 1084.81Z" fill="#888888" fill-opacity="0.51"/>
<path d="M1408.96 1057.15L1412.18 1077.37L1430.38 1084.81L1408.96 1057.15Z" fill="#B1B1B1" fill-opacity="0.28"/>
<path d="M1396.98 1088.48L1412.18 1077.37L1430.38 1084.81L1396.98 1088.48Z" fill="#434343" fill-opacity="0.49"/>
<path d="M1408.96 1057.15L1412.18 1077.37L1396.98 1088.48L1408.96 1057.15Z" fill="#888888" fill-opacity="0.51"/>
<path d="M1402.38 1031.81L1385.97 1044.05L1387.4 1063.59L1402.38 1031.81Z" fill="#B1B1B1" fill-opacity="0.28"/>
<path d="M1368.98 1035.48L1385.97 1044.05L1387.4 1063.59L1368.98 1035.48Z" fill="#434343" fill-opacity="0.49"/>
<path d="M1402.38 1031.81L1385.97 1044.05L1368.98 1035.48L1402.38 1031.81Z" fill="#888888" fill-opacity="0.51"/>
<path d="M1380.95 1004.15L1384.18 1024.37L1402.38 1031.81L1380.95 1004.15Z" fill="#B1B1B1" fill-opacity="0.28"/>
<path d="M1368.98 1035.48L1384.18 1024.37L1402.38 1031.81L1368.98 1035.48Z" fill="#434343" fill-opacity="0.49"/>
<path d="M1380.95 1004.15L1384.18 1024.37L1368.98 1035.48L1380.95 1004.15Z" fill="#888888" fill-opacity="0.51"/>
<path d="M1415.38 976.814L1398.97 989.055L1400.4 1008.59L1415.38 976.814Z" fill="#B1B1B1" fill-opacity="0.28"/>
<path d="M1381.98 980.478L1398.97 989.055L1400.4 1008.59L1381.98 980.478Z" fill="#434343" fill-opacity="0.49"/>
<path d="M1415.38 976.814L1398.97 989.055L1381.98 980.478L1415.38 976.814Z" fill="#888888" fill-opacity="0.51"/>
<path d="M1393.95 949.151L1397.18 969.371L1415.38 976.814L1393.95 949.151Z" fill="#B1B1B1" fill-opacity="0.28"/>
<path d="M1381.98 980.478L1397.18 969.371L1415.38 976.814L1381.98 980.478Z" fill="#434343" fill-opacity="0.49"/>
<path d="M1393.95 949.151L1397.18 969.371L1381.98 980.478L1393.95 949.151Z" fill="#888888" fill-opacity="0.51"/>
<path d="M1506.38 874.814L1489.97 887.055L1491.4 906.587L1506.38 874.814Z" fill="#B1B1B1" fill-opacity="0.28"/>
<path d="M1472.98 878.478L1489.97 887.055L1491.4 906.587L1472.98 878.478Z" fill="#434343" fill-opacity="0.49"/>
<path d="M1506.38 874.814L1489.97 887.055L1472.98 878.478L1506.38 874.814Z" fill="#888888" fill-opacity="0.51"/>
<path d="M1484.95 847.151L1488.18 867.371L1506.38 874.814L1484.95 847.151Z" fill="#B1B1B1" fill-opacity="0.28"/>
<path d="M1472.98 878.478L1488.18 867.371L1506.38 874.814L1472.98 878.478Z" fill="#434343" fill-opacity="0.49"/>
<path d="M1484.95 847.151L1488.18 867.371L1472.98 878.478L1484.95 847.151Z" fill="#888888" fill-opacity="0.51"/>
<path d="M1538.38 835.814L1521.97 848.055L1523.4 867.587L1538.38 835.814Z" fill="#B1B1B1" fill-opacity="0.28"/>
<path d="M1504.98 839.478L1521.97 848.055L1523.4 867.587L1504.98 839.478Z" fill="#434343" fill-opacity="0.49"/>
<path d="M1538.38 835.814L1521.97 848.055L1504.98 839.478L1538.38 835.814Z" fill="#888888" fill-opacity="0.51"/>
<path d="M1516.95 808.151L1520.18 828.371L1538.38 835.814L1516.95 808.151Z" fill="#B1B1B1" fill-opacity="0.28"/>
<path d="M1504.98 839.478L1520.18 828.371L1538.38 835.814L1504.98 839.478Z" fill="#434343" fill-opacity="0.49"/>
<path d="M1516.95 808.151L1520.18 828.371L1504.98 839.478L1516.95 808.151Z" fill="#888888" fill-opacity="0.51"/>
</g>
<g opacity="0.1">
<path d="M1904.08 1185.27L1925.36 1183.85L1937.45 1200.27L1904.08 1185.27Z" fill="#B1B1B1" fill-opacity="0.28"/>
<path d="M1933 1165.55L1925.36 1183.85L1937.45 1200.27L1933 1165.55Z" fill="#434343" fill-opacity="0.49"/>
<path d="M1904.08 1185.27L1925.36 1183.85L1933 1165.55L1904.08 1185.27Z" fill="#888888" fill-opacity="0.51"/>
<path d="M1902.31 1148.87L1913.45 1167.06L1904.08 1185.27L1902.31 1148.87Z" fill="#B1B1B1" fill-opacity="0.28"/>
<path d="M1933 1165.56L1913.45 1167.06L1904.08 1185.27L1933 1165.56Z" fill="#434343" fill-opacity="0.49"/>
<path d="M1902.31 1148.87L1913.45 1167.06L1933 1165.55L1902.31 1148.87Z" fill="#888888" fill-opacity="0.51"/>
<path d="M1949.52 1229.73L1970.8 1228.3L1982.89 1244.73L1949.52 1229.73Z" fill="#B1B1B1" fill-opacity="0.28"/>
<path d="M1978.43 1210.01L1970.8 1228.3L1982.89 1244.73L1978.43 1210.01Z" fill="#434343" fill-opacity="0.49"/>
<path d="M1949.52 1229.73L1970.8 1228.3L1978.43 1210.01L1949.52 1229.73Z" fill="#888888" fill-opacity="0.51"/>
<path d="M1947.75 1193.33L1958.89 1211.52L1949.52 1229.73L1947.75 1193.33Z" fill="#B1B1B1" fill-opacity="0.28"/>
<path d="M1978.43 1210.01L1958.89 1211.52L1949.52 1229.73L1978.43 1210.01Z" fill="#434343" fill-opacity="0.49"/>
<path d="M1947.75 1193.33L1958.89 1211.52L1978.43 1210.01L1947.75 1193.33Z" fill="#888888" fill-opacity="0.51"/>
<path d="M1967.52 1288.73L1988.8 1287.3L2000.89 1303.73L1967.52 1288.73Z" fill="#B1B1B1" fill-opacity="0.28"/>
<path d="M1996.43 1269.01L1988.8 1287.3L2000.89 1303.73L1996.43 1269.01Z" fill="#434343" fill-opacity="0.49"/>
<path d="M1967.52 1288.73L1988.8 1287.3L1996.43 1269.01L1967.52 1288.73Z" fill="#888888" fill-opacity="0.51"/>
<path d="M1965.75 1252.33L1976.89 1270.52L1967.52 1288.73L1965.75 1252.33Z" fill="#B1B1B1" fill-opacity="0.28"/>
<path d="M1996.43 1269.01L1976.89 1270.52L1967.52 1288.73L1996.43 1269.01Z" fill="#434343" fill-opacity="0.49"/>
<path d="M1965.75 1252.33L1976.89 1270.52L1996.43 1269.01L1965.75 1252.33Z" fill="#888888" fill-opacity="0.51"/>
<path d="M1987.52 1343.73L2008.8 1342.3L2020.89 1358.73L1987.52 1343.73Z" fill="#B1B1B1" fill-opacity="0.28"/>
<path d="M2016.43 1324.01L2008.8 1342.3L2020.89 1358.73L2016.43 1324.01Z" fill="#434343" fill-opacity="0.49"/>
<path d="M1987.52 1343.73L2008.8 1342.3L2016.43 1324.01L1987.52 1343.73Z" fill="#888888" fill-opacity="0.51"/>
<path d="M1985.75 1307.33L1996.89 1325.52L1987.52 1343.73L1985.75 1307.33Z" fill="#B1B1B1" fill-opacity="0.28"/>
<path d="M2016.43 1324.01L1996.89 1325.52L1987.52 1343.73L2016.43 1324.01Z" fill="#434343" fill-opacity="0.49"/>
<path d="M1985.75 1307.33L1996.89 1325.52L2016.43 1324.01L1985.75 1307.33Z" fill="#888888" fill-opacity="0.51"/>
<path d="M2033.52 1379.73L2054.8 1378.31L2066.89 1394.73L2033.52 1379.73Z" fill="#B1B1B1" fill-opacity="0.28"/>
<path d="M2062.43 1360.02L2054.8 1378.31L2066.89 1394.73L2062.43 1360.02Z" fill="#434343" fill-opacity="0.49"/>
<path d="M2033.52 1379.73L2054.8 1378.31L2062.43 1360.02L2033.52 1379.73Z" fill="#888888" fill-opacity="0.51"/>
<path d="M2031.75 1343.33L2042.89 1361.52L2033.52 1379.73L2031.75 1343.33Z" fill="#B1B1B1" fill-opacity="0.28"/>
<path d="M2062.43 1360.02L2042.89 1361.52L2033.52 1379.73L2062.43 1360.02Z" fill="#434343" fill-opacity="0.49"/>
<path d="M2031.75 1343.33L2042.89 1361.52L2062.43 1360.02L2031.75 1343.33Z" fill="#888888" fill-opacity="0.51"/>
<path d="M1855.7 1139.57L1867.44 1119.24L1857.08 1099.31L1855.7 1139.57Z" fill="#B1B1B1" fill-opacity="0.28"/>
<path d="M1889.22 1120.57L1867.44 1119.24L1857.08 1099.31L1889.22 1120.57Z" fill="#434343" fill-opacity="0.49"/>
<path d="M1855.7 1139.57L1867.44 1119.24L1889.22 1120.57L1855.7 1139.57Z" fill="#888888" fill-opacity="0.51"/>
<path d="M1890.8 1158.99L1878.24 1139.16L1855.7 1139.57L1890.8 1158.99Z" fill="#B1B1B1" fill-opacity="0.28"/>
<path d="M1889.22 1120.57L1878.24 1139.16L1855.7 1139.57L1889.22 1120.57Z" fill="#434343" fill-opacity="0.49"/>
<path d="M1890.8 1158.99L1878.24 1139.16L1889.22 1120.57L1890.8 1158.99Z" fill="#888888" fill-opacity="0.51"/>
<path d="M1841.6 1072.84L1829.73 1091.23L1838.46 1110.26L1841.6 1072.84Z" fill="#B1B1B1" fill-opacity="0.28"/>
<path d="M1809.51 1088.99L1829.73 1091.23L1838.46 1110.26L1809.51 1088.99Z" fill="#434343" fill-opacity="0.49"/>
<path d="M1841.6 1072.84L1829.73 1091.23L1809.51 1088.99L1841.6 1072.84Z" fill="#888888" fill-opacity="0.51"/>
<path d="M1809.8 1053.14L1820.58 1072.19L1841.6 1072.84L1809.8 1053.14Z" fill="#B1B1B1" fill-opacity="0.28"/>
<path d="M1809.51 1088.99L1820.58 1072.19L1841.6 1072.84L1809.51 1088.99Z" fill="#434343" fill-opacity="0.49"/>
<path d="M1809.8 1053.14L1820.58 1072.19L1809.51 1088.99L1809.8 1053.14Z" fill="#888888" fill-opacity="0.51"/>
<path d="M1794.42 1025.95L1783.32 1043.16L1791.48 1060.96L1794.42 1025.95Z" fill="#B1B1B1" fill-opacity="0.28"/>
<path d="M1764.4 1041.06L1783.32 1043.16L1791.48 1060.96L1764.4 1041.06Z" fill="#434343" fill-opacity="0.49"/>
<path d="M1794.42 1025.95L1783.32 1043.16L1764.4 1041.06L1794.42 1025.95Z" fill="#888888" fill-opacity="0.51"/>
<path d="M1764.67 1007.52L1774.76 1025.34L1794.42 1025.95L1764.67 1007.52Z" fill="#B1B1B1" fill-opacity="0.28"/>
<path d="M1764.4 1041.06L1774.76 1025.34L1794.42 1025.95L1764.4 1041.06Z" fill="#434343" fill-opacity="0.49"/>
<path d="M1764.67 1007.52L1774.76 1025.34L1764.4 1041.06L1764.67 1007.52Z" fill="#888888" fill-opacity="0.51"/>
<path d="M1757.32 977.304L1746.22 994.509L1754.39 1012.31L1757.32 977.304Z" fill="#B1B1B1" fill-opacity="0.28"/>
<path d="M1727.3 992.412L1746.22 994.509L1754.39 1012.31L1727.3 992.412Z" fill="#434343" fill-opacity="0.49"/>
<path d="M1757.32 977.303L1746.22 994.509L1727.3 992.412L1757.32 977.303Z" fill="#888888" fill-opacity="0.51"/>
<path d="M1727.58 958.875L1737.66 976.693L1757.32 977.304L1727.58 958.875Z" fill="#B1B1B1" fill-opacity="0.28"/>
<path d="M1727.3 992.412L1737.66 976.693L1757.32 977.304L1727.3 992.412Z" fill="#434343" fill-opacity="0.49"/>
<path d="M1727.58 958.875L1737.66 976.693L1727.3 992.412L1727.58 958.875Z" fill="#888888" fill-opacity="0.51"/>
</g>
<g opacity="0.3">
<path d="M2055.36 1275.67L2092.47 1286.75L2102.63 1322.38L2055.36 1275.67Z" fill="#B1B1B1" fill-opacity="0.28"/>
<path d="M2117.08 1260.47L2092.47 1286.75L2102.63 1322.38L2117.08 1260.47Z" fill="#434343" fill-opacity="0.49"/>
<path d="M2055.36 1275.67L2092.47 1286.75L2117.08 1260.47L2055.36 1275.67Z" fill="#888888" fill-opacity="0.51"/>
<path d="M2075.45 1212.6L2082.86 1250.62L2055.36 1275.67L2075.45 1212.6Z" fill="#B1B1B1" fill-opacity="0.28"/>
<path d="M2117.08 1260.47L2082.86 1250.62L2055.36 1275.67L2117.08 1260.47Z" fill="#434343" fill-opacity="0.49"/>
<path d="M2075.45 1212.6L2082.86 1250.62L2117.08 1260.47L2075.45 1212.6Z" fill="#888888" fill-opacity="0.51"/>
<path d="M1996.39 1220.51L2026.26 1195.86L2021.75 1159.09L1996.39 1220.51Z" fill="#B1B1B1" fill-opacity="0.28"/>
<path d="M2059.16 1210.48L2026.26 1195.86L2021.75 1159.09L2059.16 1210.48Z" fill="#434343" fill-opacity="0.49"/>
<path d="M1996.39 1220.51L2026.26 1195.86L2059.16 1210.48L1996.39 1220.51Z" fill="#888888" fill-opacity="0.51"/>
<path d="M2039.45 1270.79L2031.48 1232.88L1996.39 1220.51L2039.45 1270.79Z" fill="#B1B1B1" fill-opacity="0.28"/>
<path d="M2059.16 1210.48L2031.48 1232.88L1996.39 1220.51L2059.16 1210.48Z" fill="#434343" fill-opacity="0.49"/>
<path d="M2039.45 1270.79L2031.48 1232.88L2059.16 1210.48L2039.45 1270.79Z" fill="#888888" fill-opacity="0.51"/>
<path d="M2018.66 1135.13L1987.61 1158.29L1990.31 1195.24L2018.66 1135.13Z" fill="#B1B1B1" fill-opacity="0.28"/>
<path d="M1955.47 1142.06L1987.61 1158.29L1990.31 1195.24L1955.47 1142.06Z" fill="#434343" fill-opacity="0.49"/>
<path d="M2018.66 1135.13L1987.61 1158.29L1955.47 1142.06L2018.66 1135.13Z" fill="#888888" fill-opacity="0.51"/>
<path d="M1978.13 1082.8L1984.22 1121.05L2018.66 1135.13L1978.13 1082.8Z" fill="#B1B1B1" fill-opacity="0.28"/>
<path d="M1955.47 1142.06L1984.22 1121.05L2018.66 1135.13L1955.47 1142.06Z" fill="#434343" fill-opacity="0.49"/>
<path d="M1978.12 1082.8L1984.22 1121.05L1955.47 1142.06L1978.12 1082.8Z" fill="#888888" fill-opacity="0.51"/>
<path d="M1957.58 1082.95L1926.53 1106.1L1929.23 1143.05L1957.58 1082.95Z" fill="#B1B1B1" fill-opacity="0.28"/>
<path d="M1894.39 1089.88L1926.53 1106.1L1929.23 1143.05L1894.39 1089.88Z" fill="#434343" fill-opacity="0.49"/>
<path d="M1957.58 1082.95L1926.53 1106.1L1894.39 1089.88L1957.58 1082.95Z" fill="#888888" fill-opacity="0.51"/>
<path d="M1917.05 1030.62L1923.14 1068.87L1957.58 1082.95L1917.05 1030.62Z" fill="#B1B1B1" fill-opacity="0.28"/>
<path d="M1894.39 1089.88L1923.14 1068.87L1957.58 1082.95L1894.39 1089.88Z" fill="#434343" fill-opacity="0.49"/>
<path d="M1917.05 1030.62L1923.14 1068.87L1894.39 1089.88L1917.05 1030.62Z" fill="#888888" fill-opacity="0.51"/>
<path d="M1903.66 1005.13L1872.61 1028.29L1875.31 1065.24L1903.66 1005.13Z" fill="#B1B1B1" fill-opacity="0.28"/>
<path d="M1840.47 1012.06L1872.61 1028.29L1875.31 1065.24L1840.47 1012.06Z" fill="#434343" fill-opacity="0.49"/>
<path d="M1903.66 1005.13L1872.61 1028.29L1840.47 1012.06L1903.66 1005.13Z" fill="#888888" fill-opacity="0.51"/>
<path d="M1863.12 952.801L1869.22 991.051L1903.66 1005.13L1863.12 952.801Z" fill="#B1B1B1" fill-opacity="0.28"/>
<path d="M1840.47 1012.06L1869.22 991.051L1903.66 1005.13L1840.47 1012.06Z" fill="#434343" fill-opacity="0.49"/>
<path d="M1863.12 952.801L1869.22 991.051L1840.47 1012.06L1863.12 952.801Z" fill="#888888" fill-opacity="0.51"/>
<path d="M1853.66 929.131L1822.61 952.287L1825.31 989.236L1853.66 929.131Z" fill="#B1B1B1" fill-opacity="0.28"/>
<path d="M1790.47 936.063L1822.61 952.287L1825.31 989.236L1790.47 936.063Z" fill="#434343" fill-opacity="0.49"/>
<path d="M1853.66 929.131L1822.61 952.287L1790.47 936.063L1853.66 929.131Z" fill="#888888" fill-opacity="0.51"/>
<path d="M1813.12 876.801L1819.22 915.051L1853.66 929.132L1813.12 876.801Z" fill="#B1B1B1" fill-opacity="0.28"/>
<path d="M1790.47 936.063L1819.22 915.051L1853.66 929.131L1790.47 936.063Z" fill="#434343" fill-opacity="0.49"/>
<path d="M1813.12 876.801L1819.22 915.051L1790.47 936.063L1813.12 876.801Z" fill="#888888" fill-opacity="0.51"/>
</g>
<path fill-rule="evenodd" clip-rule="evenodd" d="M1398.56 835.231L1402.5 786.459L1352.74 770.694L1315.79 788.429L1326.56 799.528L1319.23 791.978L1304.94 808.728L1306.43 832.768L1310.86 847.547L1319.24 866.76L1335.99 867.746L1396.09 871.194L1398.56 835.231Z" fill="#042F0B"/>
<path d="M1396.09 871.194L1348.8 822.422L1351.75 853.459L1396.09 871.194Z" fill="#9D9D9D" fill-opacity="0.3"/>
<path d="M1351.75 853.459L1306.43 832.768L1310.86 847.547L1319.24 866.76L1335.99 867.745L1351.75 853.459Z" fill="#9D9D9D" fill-opacity="0.26"/>
<path d="M1396.09 871.194L1351.75 853.459L1335.99 867.745L1396.09 871.194Z" fill="#CDCDCD" fill-opacity="0.58"/>
<path d="M1304.94 808.728L1306.43 832.768L1351.75 853.459L1348.8 822.422L1319.23 791.978L1304.94 808.728Z" fill="#C4C4C4" fill-opacity="0.81"/>
<path d="M1402.5 786.459L1398.56 835.231L1396.09 871.194L1315.79 788.429L1352.74 770.694L1402.5 786.459Z" fill="#D7D7D7" fill-opacity="0.31"/>
<path fill-rule="evenodd" clip-rule="evenodd" d="M1486.74 866.76L1487.23 785.474L1484.07 787.954L1401.51 798.775L1401.51 798.775L1398.56 835.231L1396.09 871.194L1486.74 866.76ZM1398.58 835.219L1473.33 796.37L1421.22 823.407L1421.22 823.407L1398.58 835.219Z" fill="#57056C"/>
<path d="M1486.74 866.76L1487.23 785.474L1409.39 846.562L1396.09 871.194L1486.74 866.76Z" fill="#E4E4E4" fill-opacity="0.22"/>
<path d="M1409.39 846.562L1473.44 796.312L1398.56 835.231L1409.39 846.562Z" fill="#9D9D9D" fill-opacity="0.3"/>
<path d="M1401.51 798.775L1398.56 835.231L1421.22 823.407L1401.51 798.775Z" fill="#C4C4C4" fill-opacity="0.81"/>
<path d="M1401.51 798.775L1484.2 787.937L1473.44 796.312L1421.22 823.407L1401.51 798.775Z" fill="#9D9D9D" fill-opacity="0.26"/>
<path d="M1396.09 871.194L1409.39 846.562L1398.56 835.231L1396.09 871.194Z" fill="#E4E4E4" fill-opacity="0.49"/>
<path fill-rule="evenodd" clip-rule="evenodd" d="M1521.64 909.52L1487.73 866.76L1446.34 868.731L1396.09 871.194L1405.45 951.003L1524.18 971.694L1543.39 961.348L1540.95 959.854L1548.81 953.466L1525.17 910.606L1521.64 909.52Z" fill="#0D65A4"/>
<path d="M1461.12 890.9L1396.09 871.194L1444.37 900.753L1461.12 890.9Z" fill="#9D9D9D" fill-opacity="0.3"/>
<path d="M1521.72 909.621L1487.72 866.76L1446.34 868.731L1461.12 890.9L1521.72 909.621Z" fill="#9D9D9D" fill-opacity="0.26"/>
<path d="M1461.12 890.9L1446.34 868.731L1396.09 871.194L1461.12 890.9Z" fill="#CDCDCD" fill-opacity="0.58"/>
<path d="M1444.37 900.753L1540.93 959.871L1548.81 953.466L1525.17 910.606L1461.12 890.9L1444.37 900.753Z" fill="#C4C4C4" fill-opacity="0.81"/>
<path d="M1405.45 951.003L1396.09 871.194L1543.39 961.348L1524.18 971.694L1405.45 951.003Z" fill="#F0F0F0" fill-opacity="0.26"/>
<path fill-rule="evenodd" clip-rule="evenodd" d="M1305.45 936.223L1309.88 866.268L1396.09 871.194L1396.03 871.236L1396.09 871.194L1402 921.444L1406.93 963.319L1347.34 906.19L1383.78 941.15L1337.96 947.062L1315.79 928.834L1339.45 911.832L1305.45 936.223Z" fill="#5E4A11"/>
<path d="M1347.32 906.172L1315.79 928.834L1337.96 947.062L1383.78 941.15L1347.32 906.172Z" fill="#C4C4C4" fill-opacity="0.81"/>
<path d="M1396.09 871.194L1363.09 894.841L1402 921.444L1396.09 871.194Z" fill="#9D9D9D" fill-opacity="0.3"/>
<path d="M1347.32 906.172L1406.93 963.319L1402 921.444L1347.32 906.172Z" fill="#9D9D9D" fill-opacity="0.26"/>
<path d="M1402 921.444L1363.09 894.841L1347.32 906.172L1402 921.444Z" fill="#CDCDCD" fill-opacity="0.58"/>
<path d="M1309.88 866.268L1305.45 936.224L1396.09 871.194L1309.88 866.268Z" fill="#D7D7D7" fill-opacity="0.38"/>
<path d="M1653.51 451.194L1783.51 937.694L2029.51 1045.69L1653.51 451.194Z" fill="#121212"/>
<path d="M1692.01 595.194L1646.51 998.694L1783.51 937.694L1692.01 595.194Z" fill="#333333"/>
<path d="M1692.01 595.194L1654.51 451.694L1393.01 350.194L1538.01 448.194L1486.51 636.694L1646.51 998.194L1692.01 595.194Z" fill="#262626"/>
<path d="M1538.01 447.694L1366.01 443.694L1398.51 710.694L1486.51 636.694L1538.01 447.694Z" fill="#151515"/>
<path d="M1398.51 710.694L1366.51 443.694L1281.01 356.194L1210.51 439.694L1212.01 648.194L1398.51 710.694Z" fill="#2B2B2B"/>
<path d="M1366.51 443.694L1281.01 356.194L1393.01 350.194L1538.01 447.694L1366.51 443.694Z" fill="black"/>
<path d="M1657.58 388.261L1759.09 467.469L1715.77 410.834L1657.58 388.261Z" fill="#2B2B2B" fill-opacity="0.5"/>
<path d="M1741.53 327.413L1759.09 467.469L1715.77 410.834L1741.53 327.413Z" fill="#666666" fill-opacity="0.38"/>
<path d="M1741.53 327.414L1715.77 410.834L1657.6 388.292L1741.53 327.414Z" fill="#B1B1B1" fill-opacity="0.28"/>
<path d="M1271.02 317.706L1381.89 310.793L1323.06 286.891L1271.02 317.706Z" fill="#2B2B2B" fill-opacity="0.5"/>
<path d="M1304.74 237.021L1381.89 310.793L1323.06 286.891L1304.74 237.021Z" fill="#B1B1B1" fill-opacity="0.28"/>
<path d="M1304.74 237.021L1323.06 286.891L1271.06 317.716L1304.74 237.021Z" fill="#666666" fill-opacity="0.38"/>
<path d="M1457.09 319.026L1579.9 353.018L1533.51 311.694L1457.09 319.026Z" fill="#2B2B2B" fill-opacity="0.5"/>
<path d="M1544.51 245.694L1579.9 353.019L1533.51 311.694L1544.51 245.694Z" fill="#666666" fill-opacity="0.38"/>
<path d="M1544.51 245.694L1533.51 311.694L1457.09 319.026L1544.51 245.694Z" fill="#B1B1B1" fill-opacity="0.28"/>
</svg>
