<svg width="1025" height="1025" viewBox="0 0 1025 1025" fill="none" xmlns="http://www.w3.org/2000/svg">
<path fill-rule="evenodd" clip-rule="evenodd" d="M802.885 790.127L810.804 262.455L790.143 278.373L253.548 343.827L232.241 580.321L380.044 504.881L720.319 332.17L232.241 580.321L214.161 813.645L802.885 790.127Z" fill="#57056C"/>
<path d="M802.885 790.127L810.804 262.455L301.943 654.509L214.161 813.645L802.885 790.127Z" fill="#E4E4E4" fill-opacity="0.22"/>
<path d="M301.943 654.509L720.626 332.014L232.241 580.321L301.943 654.509Z" fill="#9D9D9D" fill-opacity="0.3"/>
<path d="M253.548 343.827L232.241 580.321L380.044 504.881L253.548 343.827Z" fill="#C4C4C4" fill-opacity="0.81"/>
<path d="M253.548 343.827L790.99 278.27L720.626 332.014L380.044 504.881L253.548 343.827Z" fill="#9D9D9D" fill-opacity="0.26"/>
<path d="M214.161 813.645L301.943 654.509L232.241 580.321L214.161 813.645Z" fill="#E4E4E4" fill-opacity="0.49"/>
</svg>
