<svg width="1500" height="1500" viewBox="0 0 1500 1500" fill="none" xmlns="http://www.w3.org/2000/svg">
<path d="M244 413C244 404.163 251.163 397 260 397H491.15C496.101 397 500.774 394.707 503.804 390.791L612.196 250.709C615.226 246.793 619.899 244.5 624.85 244.5H844.151C848.816 244.5 853.249 246.536 856.288 250.074L977.712 391.426C980.751 394.964 985.184 397 989.849 397H1240C1248.84 397 1256 404.163 1256 413V1166C1256 1174.84 1248.84 1182 1240 1182H260C251.163 1182 244 1174.84 244 1166V413Z" fill="#434343"/>
<path d="M383 622C383 613.163 390.163 606 399 606H1101C1109.84 606 1117 613.163 1117 622V1011C1117 1019.84 1109.84 1027 1101 1027H399C390.163 1027 383 1019.84 383 1011V622Z" fill="#2B2B2B"/>
<mask id="mask0_2109_161" style="mask-type:alpha" maskUnits="userSpaceOnUse" x="383" y="606" width="734" height="421">
<path d="M383 622C383 613.163 390.163 606 399 606H1101C1109.84 606 1117 613.163 1117 622V1011C1117 1019.84 1109.84 1027 1101 1027H399C390.163 1027 383 1019.84 383 1011V622Z" fill="#1B1B1B"/>
</mask>
<g mask="url(#mask0_2109_161)">
<path d="M477 895C477 886.163 484.163 879 493 879H590C598.837 879 606 886.163 606 895V1037C606 1045.84 598.837 1053 590 1053H493C484.163 1053 477 1045.84 477 1037V895Z" fill="#5E5E5E"/>
<path d="M686 895C686 886.163 693.163 879 702 879H799C807.837 879 815 886.163 815 895V1037C815 1045.84 807.837 1053 799 1053H702C693.163 1053 686 1045.84 686 1037V895Z" fill="#5E5E5E"/>
<path d="M895 895C895 886.163 902.163 879 911 879H1008C1016.84 879 1024 886.163 1024 895V1037C1024 1045.84 1016.84 1053 1008 1053H911C902.163 1053 895 1045.84 895 1037V895Z" fill="#5E5E5E"/>
</g>
<path d="M847.841 339.351L658.595 362.435L651.081 445.841L703.208 419.235L823.215 358.323L651.081 445.841L644.705 528.13L675.663 472.005L680.526 468.259L675.663 472.006L644.705 528.13L852.334 519.835L855.127 333.737L847.841 339.351Z" fill="#57056C"/>
<path d="M852.334 519.835L855.127 333.737L675.663 472.005L644.704 528.129L852.334 519.835Z" fill="#E4E4E4" fill-opacity="0.22"/>
<path d="M675.663 472.005L823.323 358.269L651.081 445.841L675.663 472.005Z" fill="#9D9D9D" fill-opacity="0.3"/>
<path d="M658.595 362.435L651.081 445.841L703.208 419.235L658.595 362.435Z" fill="#C4C4C4" fill-opacity="0.81"/>
<path d="M658.595 362.435L848.139 339.314L823.323 358.269L703.208 419.235L658.595 362.435Z" fill="#9D9D9D" fill-opacity="0.26"/>
<path d="M644.704 528.129L675.663 472.005L651.081 445.841L644.704 528.129Z" fill="#E4E4E4" fill-opacity="0.49"/>
</svg>
