<svg width="1024" height="1024" viewBox="0 0 1024 1024" fill="none" xmlns="http://www.w3.org/2000/svg">
<path fill-rule="evenodd" clip-rule="evenodd" d="M859 346.024L828.723 823.723L240.01 790.083L199.641 446.947L166 161L573.01 551.191L324.112 312.384L636.971 272.015L788.354 396.485L626.907 512.526L859 346.024Z" fill="#5E4A11"/>
<path d="M573.054 551.233L788.355 396.485L636.971 272.015L324.112 312.384L573.054 551.233Z" fill="#C4C4C4" fill-opacity="0.81"/>
<path d="M240.01 790.083L465.403 628.607L199.641 446.947L240.01 790.083Z" fill="#9D9D9D" fill-opacity="0.3"/>
<path d="M573.053 551.233L166 161L199.641 446.947L573.053 551.233Z" fill="#9D9D9D" fill-opacity="0.26"/>
<path d="M199.641 446.947L465.403 628.607L573.053 551.233L199.641 446.947Z" fill="#CDCDCD" fill-opacity="0.58"/>
<path d="M828.723 823.723L859 346.024L240.01 790.083L828.723 823.723Z" fill="#D7D7D7" fill-opacity="0.38"/>
</svg>
