<svg width="778" xmlns="http://www.w3.org/2000/svg" height="1437" id="screenshot-34e25863-7b4c-8016-8006-2256986d9461" viewBox="0 0 778 1437" xmlns:xlink="http://www.w3.org/1999/xlink" fill="none" version="1.1"><g id="shape-34e25863-7b4c-8016-8006-2256986d9461" rx="0" ry="0"><g id="shape-b2512977-53c5-805a-8006-200d4c12fc9b"><g class="fills" id="fills-b2512977-53c5-805a-8006-200d4c12fc9b"><path d="M47.000,63.000L48.000,1.000L89.000,2.000L171.000,55.000L308.000,93.000L418.000,141.000L282.000,222.000L247.000,191.000L126.000,124.000L47.000,63.000Z" style="fill: rgb(89, 58, 18); fill-opacity: 1;"/></g></g><g id="shape-b2512977-53c5-805a-8006-200910e544c5"><g class="fills" id="fills-b2512977-53c5-805a-8006-200910e544c5"><path d="M63.000,1374.000L0.000,1312.000L41.000,1273.000L74.000,1152.000L115.000,1091.000L177.000,1034.000L98.000,864.000L20.000,731.000L6.000,665.000L50.000,521.000L125.000,371.000L270.000,226.000L469.000,111.000L599.000,120.000L714.000,0.000L739.902,1.214L778.000,3.000L749.000,140.000L688.000,204.000L567.000,210.000L628.000,194.000L704.000,184.000L730.000,218.000L733.000,270.000L722.000,331.000L668.000,362.000L654.000,351.000L607.000,346.000L565.445,315.445L539.000,296.000L495.000,360.000L422.000,455.000L349.000,500.000L308.000,650.000L344.000,760.000L449.000,880.000L532.000,1040.000L525.000,1102.000L424.000,1335.000L472.000,1348.000L526.000,1347.000L539.000,1382.000L388.000,1410.000L308.000,1395.000L334.000,1337.000L353.000,1282.000L362.000,1208.000L403.000,1116.000L417.000,1065.000L284.000,939.000L231.000,765.000L293.000,965.000L308.000,1039.000L286.000,1084.000L229.959,1118.425L123.105,1241.162L114.000,1314.000L138.000,1383.000L196.000,1402.000L194.000,1429.000L117.000,1437.000L63.000,1374.000Z" style="fill: rgb(132, 85, 15); fill-opacity: 1;"/></g><g id="strokes-c72b34d9-af4b-8065-8006-2256a33a4ba5-b2512977-53c5-805a-8006-200910e544c5" class="strokes"><g class="inner-stroke-shape"><defs><clipPath id="inner-stroke-render-3-b2512977-53c5-805a-8006-200910e544c5-0"><use href="#stroke-shape-render-3-b2512977-53c5-805a-8006-200910e544c5-0"/></clipPath><path d="M63.000,1374.000L0.000,1312.000L41.000,1273.000L74.000,1152.000L115.000,1091.000L177.000,1034.000L98.000,864.000L20.000,731.000L6.000,665.000L50.000,521.000L125.000,371.000L270.000,226.000L469.000,111.000L599.000,120.000L714.000,0.000L739.902,1.214L778.000,3.000L749.000,140.000L688.000,204.000L567.000,210.000L628.000,194.000L704.000,184.000L730.000,218.000L733.000,270.000L722.000,331.000L668.000,362.000L654.000,351.000L607.000,346.000L565.445,315.445L539.000,296.000L495.000,360.000L422.000,455.000L349.000,500.000L308.000,650.000L344.000,760.000L449.000,880.000L532.000,1040.000L525.000,1102.000L424.000,1335.000L472.000,1348.000L526.000,1347.000L539.000,1382.000L388.000,1410.000L308.000,1395.000L334.000,1337.000L353.000,1282.000L362.000,1208.000L403.000,1116.000L417.000,1065.000L284.000,939.000L231.000,765.000L293.000,965.000L308.000,1039.000L286.000,1084.000L229.959,1118.425L123.105,1241.162L114.000,1314.000L138.000,1383.000L196.000,1402.000L194.000,1429.000L117.000,1437.000L63.000,1374.000Z" id="stroke-shape-render-3-b2512977-53c5-805a-8006-200910e544c5-0" style="fill: none; stroke-width: 80; stroke: rgb(0, 0, 0); stroke-opacity: 0.133333;"/></defs><use href="#stroke-shape-render-3-b2512977-53c5-805a-8006-200910e544c5-0" clip-path="url('#inner-stroke-render-3-b2512977-53c5-805a-8006-200910e544c5-0')"/></g></g></g><g id="shape-b2512977-53c5-805a-8006-200f68e99d3c"><g class="fills" id="fills-b2512977-53c5-805a-8006-200f68e99d3c"><path d="M469.000,111.000L398.000,199.000L270.000,226.000L469.000,111.000Z" style="fill: rgb(0, 0, 0); fill-opacity: 0.194444;"/></g></g><g id="shape-b2512977-53c5-805a-8006-2011c566168f"><g class="fills" id="fills-b2512977-53c5-805a-8006-2011c566168f"><path d="M270.000,226.000L282.000,301.000L125.000,371.000L270.000,226.000Z" style="fill: rgb(21, 21, 21); fill-opacity: 0.0888889;"/></g></g><g id="shape-b2512977-53c5-805a-8006-2011e1f08f9d"><g class="fills" id="fills-b2512977-53c5-805a-8006-2011e1f08f9d"><path d="M125.000,371.000L134.000,458.000L50.000,521.000L125.000,371.000Z" style="fill: rgb(0, 0, 0); fill-opacity: 0.116667;"/></g></g><g id="shape-34e25863-7b4c-8016-8006-224df439f002"><g class="fills" id="fills-34e25863-7b4c-8016-8006-224df439f002"><path d="M134.000,458.000L282.000,301.000L398.000,199.000L270.000,226.000L282.000,301.000L125.000,371.000L134.000,458.000Z" style="fill: rgb(180, 180, 180); fill-opacity: 0.394444;"/></g></g><g id="shape-34e25863-7b4c-8016-8006-225059ec9083"><g class="fills" id="fills-34e25863-7b4c-8016-8006-225059ec9083"><path d="M134.000,458.000L269.000,388.000L282.000,301.000L134.000,458.000ZL134.000,458.000Z" style="fill: rgb(0, 0, 0); fill-opacity: 0.116667;"/></g></g><g id="shape-34e25863-7b4c-8016-8006-224e50af9f1d"><g class="fills" id="fills-34e25863-7b4c-8016-8006-224e50af9f1d"><path d="M73.000,821.500L168.000,754.000L20.000,731.000L73.000,821.500Z" style="fill: rgb(69, 69, 69); fill-opacity: 0.188889;"/></g></g><g id="shape-34e25863-7b4c-8016-8006-224e92ed00eb"><g class="fills" id="fills-34e25863-7b4c-8016-8006-224e92ed00eb"><path d="M312.500,664.000L285.000,935.000L168.000,754.000L312.500,664.000Z" style="fill: rgb(0, 0, 0); fill-opacity: 0.166667;"/></g></g><g id="shape-34e25863-7b4c-8016-8006-225014ae0d3f"><g class="fills" id="fills-34e25863-7b4c-8016-8006-225014ae0d3f"><path d="M168.000,754.000L73.000,821.500L285.500,940.500L168.000,754.000Z" style="fill: rgb(160, 160, 160); fill-opacity: 0.338889;"/></g></g><g id="shape-34e25863-7b4c-8016-8006-224efb1daab9"><g class="fills" id="fills-34e25863-7b4c-8016-8006-224efb1daab9"><path d="M654.000,351.000L668.000,362.000L722.000,331.000L654.000,351.000Z" style="fill: rgb(78, 78, 78); fill-opacity: 0.288889;"/></g></g><g id="shape-34e25863-7b4c-8016-8006-224f136ecbc6"><g class="fills" id="fills-34e25863-7b4c-8016-8006-224f136ecbc6"><path d="M362.000,1208.000L353.000,1283.000L369.000,1246.000L362.000,1208.000Z" style="fill: rgb(0, 0, 0); fill-opacity: 0.294444;"/></g></g><g id="shape-34e25863-7b4c-8016-8006-224fbae6c6df"><g class="fills" id="fills-34e25863-7b4c-8016-8006-224fbae6c6df"><path d="M114.000,1314.000L121.000,1377.000L138.000,1383.000L114.000,1314.000Z" style="fill: rgb(181, 180, 177); fill-opacity: 0.322222;"/></g></g><g id="shape-34e25863-7b4c-8016-8006-224fcdaf0fa4"><g class="fills" id="fills-34e25863-7b4c-8016-8006-224fcdaf0fa4"><path d="M196.000,1402.000L189.500,1405.500L194.000,1429.000L196.000,1402.000Z" style="fill: rgb(49, 49, 49); fill-opacity: 0.288889;"/></g></g><g id="shape-34e25863-7b4c-8016-8006-224f4d616d0e"><g class="fills" id="fills-34e25863-7b4c-8016-8006-224f4d616d0e"><path d="M115.000,1091.000L75.000,1151.000L98.000,1128.000L115.000,1091.000Z" style="fill: rgb(177, 178, 181); fill-opacity: 0.516667;"/></g></g><g id="shape-34e25863-7b4c-8016-8006-224f5f8841c3"><g class="fills" id="fills-34e25863-7b4c-8016-8006-224f5f8841c3"><path d="M308.000,1039.000L177.000,1034.000L230.500,1118.000L286.000,1084.000L308.000,1039.000Z" style="fill: rgb(78, 78, 78); fill-opacity: 0.288889;"/></g></g><g id="shape-34e25863-7b4c-8016-8006-224ff15096fb"><g class="fills" id="fills-34e25863-7b4c-8016-8006-224ff15096fb"><path d="M285.000,940.000L344.500,996.500L307.000,942.000" style="fill: rgb(181, 180, 177); fill-opacity: 0.322222;"/></g></g><g id="shape-34e25863-7b4c-8016-8006-224f84d0a894"><g class="fills" id="fills-34e25863-7b4c-8016-8006-224f84d0a894"><path d="M133.000,939.000L178.000,1005.000L177.000,1034.000L133.000,939.000Z" style="fill: rgb(177, 178, 181); fill-opacity: 0.516667;"/></g></g><g id="shape-34e25863-7b4c-8016-8006-224f351a7c2d"><g class="fills" id="fills-34e25863-7b4c-8016-8006-224f351a7c2d"><path d="M424.000,1335.000L462.000,1355.000L472.000,1348.000L424.000,1335.000Z" style="fill: rgb(49, 49, 49); fill-opacity: 0.288889;"/></g></g><g id="shape-34e25863-7b4c-8016-8006-224ea620b4f9"><g class="fills" id="fills-34e25863-7b4c-8016-8006-224ea620b4f9"><path d="M449.000,880.000L412.000,920.000L344.000,760.500L449.000,880.000Z" style="fill: rgb(0, 0, 0); fill-opacity: 0.25;"/></g></g><g id="shape-34e25863-7b4c-8016-8006-224ec0b9269c"><g class="fills" id="fills-34e25863-7b4c-8016-8006-224ec0b9269c"><path d="M449.000,880.000L532.000,1040.000L417.000,1065.000L412.000,920.000L449.000,880.000Z" style="fill: rgb(78, 78, 78); fill-opacity: 0.288889;"/></g></g><g id="shape-b2512977-53c5-805a-8006-20124863ff22"><g class="fills" id="fills-b2512977-53c5-805a-8006-20124863ff22"><path d="M422.000,455.000L372.000,456.000L349.000,500.000L422.000,455.000Z" style="fill: rgb(0, 0, 0); fill-opacity: 0.294444;"/></g></g><g id="shape-b2512977-53c5-805a-8006-201259fbac61"><g class="fills" id="fills-b2512977-53c5-805a-8006-201259fbac61"><path d="M349.000,500.000L329.000,522.000L336.000,547.500L349.000,500.000Z" style="fill: rgb(181, 180, 177); fill-opacity: 0.322222;"/></g></g><g id="shape-b2512977-53c5-805a-8006-201280541d52"><g class="fills" id="fills-b2512977-53c5-805a-8006-201280541d52"><path d="M336.000,547.500L317.000,564.500L323.000,595.000L336.000,547.500Z" style="fill: rgb(177, 178, 181); fill-opacity: 1;"/></g></g><g id="shape-b2512977-53c5-805a-8006-2012a365c018"><g class="fills" id="fills-b2512977-53c5-805a-8006-2012a365c018"><path d="M323.000,595.000L304.000,600.000L308.000,650.000L323.000,595.000Z" style="fill: rgb(177, 178, 181); fill-opacity: 1;"/></g></g><g id="shape-b2512977-53c5-805a-8006-201200281324"><g class="fills" id="fills-b2512977-53c5-805a-8006-201200281324"><path d="M6.000,665.000L308.000,650.000L312.500,664.000L20.000,730.000L6.000,665.000Z" style="fill: rgb(0, 0, 0); fill-opacity: 0.294444;"/></g></g><g id="shape-b2512977-53c5-805a-8006-2011a604f899"><g class="fills" id="fills-b2512977-53c5-805a-8006-2011a604f899"><path d="M370.000,120.000L418.000,141.000L410.000,145.000L370.000,120.000Z" style="fill: rgb(177, 178, 181); fill-opacity: 1;"/></g></g><g id="shape-b2512977-53c5-805a-8006-2010aa38e12b"><g class="fills" id="fills-b2512977-53c5-805a-8006-2010aa38e12b"><path d="M272.000,199.000L247.000,191.000L280.500,221.000L272.000,199.000Z" style="fill: rgb(181, 180, 177); fill-opacity: 0.322222;"/></g></g><g id="shape-b2512977-53c5-805a-8006-2010c559dfe5"><g class="fills" id="fills-b2512977-53c5-805a-8006-2010c559dfe5"><path d="M245.000,165.000L126.000,124.000L247.000,191.000L245.000,165.000Z" style="fill: rgb(171, 171, 171); fill-opacity: 0.294444;"/></g></g><g id="shape-b2512977-53c5-805a-8006-201108bc1142"><g class="fills" id="fills-b2512977-53c5-805a-8006-201108bc1142"><path d="M126.000,124.000L94.500,58.000L47.000,63.000L126.000,124.000Z" style="fill: rgb(177, 178, 181); fill-opacity: 1;"/></g></g><g id="shape-b2512977-53c5-805a-8006-2011702c5f3d"><g class="fills" id="fills-b2512977-53c5-805a-8006-2011702c5f3d"><path d="M266.500,81.500L171.000,55.000L94.500,58.000L266.500,81.500Z" style="fill: rgb(131, 131, 131); fill-opacity: 0.611111;"/></g></g><g id="shape-b2512977-53c5-805a-8006-200f93ca5090"><g class="fills" id="fills-b2512977-53c5-805a-8006-200f93ca5090"><path d="M469.000,111.000L599.000,120.000L543.000,141.000L469.000,111.000Z" style="fill: rgb(177, 178, 181); fill-opacity: 1;"/></g></g><g id="shape-b2512977-53c5-805a-8006-200fb179e09d"><g class="fills" id="fills-b2512977-53c5-805a-8006-200fb179e09d"><path d="M599.000,120.000L634.000,83.500L638.000,99.000L599.000,120.000Z" style="fill: rgb(181, 180, 177); fill-opacity: 0.322222;"/></g></g><g id="shape-b2512977-53c5-805a-8006-200fcd2e500d"><g class="fills" id="fills-b2512977-53c5-805a-8006-200fcd2e500d"><path d="M702.500,189.000L624.500,189.500L749.000,140.000L702.500,189.000Z" style="fill: rgb(177, 178, 181); fill-opacity: 1;"/></g></g><g id="shape-b2512977-53c5-805a-8006-201002981c8a"><g class="fills" id="fills-b2512977-53c5-805a-8006-201002981c8a"><path d="M576.000,179.000L547.000,207.000L560.000,237.000L624.500,189.500L576.000,179.000Z" style="fill: rgb(177, 178, 181); fill-opacity: 1;"/></g></g><g id="shape-34e25863-7b4c-8016-8006-225121b734da"><g class="fills" id="fills-34e25863-7b4c-8016-8006-225121b734da"><path d="M547.000,207.000L269.000,388.000L510.000,338.000L539.000,296.000L560.000,237.000L547.000,207.000Z" style="fill: rgb(0, 0, 0); fill-opacity: 0.116667;"/></g></g><g id="shape-34e25863-7b4c-8016-8006-225141f2e3c0"><g class="fills" id="fills-34e25863-7b4c-8016-8006-225141f2e3c0"><path d="M372.000,456.000L510.000,338.000L356.000,370.000" style="fill: rgb(0, 0, 0); fill-opacity: 0.116667;"/></g></g><g id="shape-34e25863-7b4c-8016-8006-22515ffb1e2a"><g class="fills" id="fills-34e25863-7b4c-8016-8006-22515ffb1e2a"><path d="M6.000,665.000L188.000,532.000L134.000,458.000" style="fill: rgb(177, 178, 181); fill-opacity: 0.333333;"/></g></g><g id="shape-34e25863-7b4c-8016-8006-225176c8ebcf"><g class="fills" id="fills-34e25863-7b4c-8016-8006-225176c8ebcf"><path d="M269.000,388.000L329.000,522.000L188.000,532.000" style="fill: rgb(0, 0, 0); fill-opacity: 0.116667;"/></g></g><g id="shape-34e25863-7b4c-8016-8006-2250b2ed89ab"><g class="fills" id="fills-34e25863-7b4c-8016-8006-2250b2ed89ab"><path d="M733.000,270.000L702.500,189.000L705.500,185.500L730.000,218.000L733.000,270.000Z" style="fill: rgb(78, 78, 78); fill-opacity: 0.288889;"/></g></g><g id="shape-b2512977-53c5-805a-8006-2010213a4d9f"><g class="fills" id="fills-b2512977-53c5-805a-8006-2010213a4d9f"><path d="M539.000,296.000L539.000,296.000ZL560.000,237.000L607.000,346.000L539.000,296.000Z" style="fill: rgb(181, 180, 177); fill-opacity: 0.322222;"/></g></g><g id="shape-b2512977-53c5-805a-8006-20103d6ffa02"><g class="fills" id="fills-b2512977-53c5-805a-8006-20103d6ffa02"><path d="M749.000,140.000L721.000,101.000L769.000,45.500L749.000,140.000Z" style="fill: rgb(177, 178, 181); fill-opacity: 1;"/></g></g><g id="shape-b2512977-53c5-805a-8006-20104fa2c501"><g class="fills" id="fills-b2512977-53c5-805a-8006-20104fa2c501"><path d="M721.000,101.000L634.000,83.500L714.000,0.000L721.000,101.000Z" style="fill: rgb(0, 0, 0); fill-opacity: 0.211111;"/></g></g><g id="shape-b2512977-53c5-805a-8006-20107c2d8457"><g class="fills" id="fills-b2512977-53c5-805a-8006-20107c2d8457"><path d="M576.000,179.000L638.000,99.000L686.500,165.000L576.000,179.000Z" style="fill: rgb(181, 180, 177); fill-opacity: 0.322222;"/></g></g></g></svg>