<svg width="1500" height="1500" viewBox="0 0 1500 1500" fill="none" xmlns="http://www.w3.org/2000/svg">
<path d="M999 924H502V1242H999V924Z" fill="#B1B2B5"/>
<path d="M1407 255H94C78.536 255 66 267.536 66 283V964C66 979.464 78.536 992 94 992H1407C1422.46 992 1435 979.464 1435 964V283C1435 267.536 1422.46 255 1407 255Z" fill="#3B3B3C"/>
<path fill-rule="evenodd" clip-rule="evenodd" d="M741.043 476.675L604.164 568.537L600.179 693.611L595.548 845.508L838.096 836.453L928.862 483.923L902.314 423.591L897.228 430.586L879.879 405.384L745.158 466.312L741.043 476.675Z" fill="#0D65A4"/>
<path d="M670.471 654.426L595.548 845.508L696.125 707.221L670.471 654.426Z" fill="#9D9D9D" fill-opacity="0.3"/>
<path d="M741.365 476.459L604.164 568.537L600.179 693.611L670.471 654.426L741.365 476.459Z" fill="#9D9D9D" fill-opacity="0.26"/>
<path d="M670.471 654.426L600.179 693.611L595.548 845.508L670.471 654.426Z" fill="#CDCDCD" fill-opacity="0.58"/>
<path d="M696.125 707.221L897.274 430.653L879.88 405.384L745.158 466.312L670.471 654.426L696.125 707.221Z" fill="#C4C4C4" fill-opacity="0.81"/>
<path d="M838.096 836.453L595.548 845.508L902.315 423.591L928.862 483.923L838.096 836.453Z" fill="#F0F0F0" fill-opacity="0.26"/>
</svg>
