<svg width="1500" height="1500" viewBox="0 0 1500 1500" fill="none" xmlns="http://www.w3.org/2000/svg">
<path d="M1000 930H165V1136H1000V930Z" fill="#B1B2B5"/>
<path d="M1410 341H90C74.536 341 62 353.536 62 369V996C62 1011.46 74.536 1024 90 1024H1410C1425.46 1024 1438 1011.46 1438 996V369C1438 353.536 1425.46 341 1410 341Z" fill="#3B3B3C"/>
<path d="M254 496H293V659H254V496Z" fill="#B1B2B5"/>
<path d="M327 496H366V659H327V496Z" fill="#B1B2B5"/>
<path d="M402 496H441V659H402V496Z" fill="#B1B2B5"/>
<path fill-rule="evenodd" clip-rule="evenodd" d="M1101.04 519.675L964.164 611.537L960.179 736.611L955.548 888.508L1198.1 879.453L1288.86 526.923L1262.31 466.591L1257.23 473.586L1239.88 448.384L1105.16 509.312L1101.04 519.675Z" fill="#0D65A4"/>
<path d="M1030.47 697.426L955.548 888.508L1056.12 750.221L1030.47 697.426Z" fill="#9D9D9D" fill-opacity="0.3"/>
<path d="M1101.36 519.459L964.164 611.537L960.179 736.611L1030.47 697.426L1101.36 519.459Z" fill="#9D9D9D" fill-opacity="0.26"/>
<path d="M1030.47 697.426L960.179 736.611L955.548 888.508L1030.47 697.426Z" fill="#CDCDCD" fill-opacity="0.58"/>
<path d="M1056.12 750.221L1257.27 473.653L1239.88 448.384L1105.16 509.312L1030.47 697.426L1056.12 750.221Z" fill="#C4C4C4" fill-opacity="0.81"/>
<path d="M1198.1 879.453L955.548 888.508L1262.31 466.591L1288.86 526.923L1198.1 879.453Z" fill="#F0F0F0" fill-opacity="0.26"/>
</svg>
