<svg width="1500" height="1500" viewBox="0 0 1500 1500" fill="none" xmlns="http://www.w3.org/2000/svg">
<path d="M448.525 127L1126.5 132.5L1095 165.5H373L448.525 127Z" fill="#797979"/>
<path d="M1126.5 132.5V1261.41L1095 1373.5V165.5L1126.5 132.5Z" fill="#555555"/>
<rect x="373" y="165.5" width="722" height="1208" fill="#3B3B3C"/>
<rect x="428" y="442.5" width="613" height="71" fill="#A1A1A1"/>
<rect x="428" y="336.5" width="613" height="71" fill="#A1A1A1"/>
<rect x="974" y="234.5" width="63" height="63" rx="31.5" fill="#106832" stroke="#A1A1A1" stroke-width="8"/>
<path fill-rule="evenodd" clip-rule="evenodd" d="M712.495 798.792L575.616 890.654L571.631 1015.73L567 1167.62L809.548 1158.57L900.314 806.039L873.766 745.708L868.68 752.703L851.331 727.5L716.61 788.429L712.495 798.792Z" fill="#0D65A4"/>
<path d="M641.923 976.542L567 1167.62L667.577 1029.34L641.923 976.542Z" fill="#9D9D9D" fill-opacity="0.3"/>
<path d="M712.817 798.576L575.616 890.654L571.631 1015.73L641.923 976.543L712.817 798.576Z" fill="#9D9D9D" fill-opacity="0.26"/>
<path d="M641.923 976.542L571.631 1015.73L567 1167.62L641.923 976.542Z" fill="#CDCDCD" fill-opacity="0.58"/>
<path d="M667.577 1029.34L868.726 752.77L851.332 727.5L716.61 788.429L641.923 976.543L667.577 1029.34Z" fill="#C4C4C4" fill-opacity="0.81"/>
<path d="M809.548 1158.57L567 1167.62L873.767 745.708L900.314 806.039L809.548 1158.57Z" fill="#F0F0F0" fill-opacity="0.26"/>
</svg>
