<svg width="1024" height="1024" viewBox="0 0 1024 1024" fill="none" xmlns="http://www.w3.org/2000/svg">
<path fill-rule="evenodd" clip-rule="evenodd" d="M344.31 368.76L251.783 602.672L355.018 763.315L355.018 763.315L480.655 958.219L409.449 653.231L480.656 958.217L480.656 958.219L777.653 736.93L586.627 215.324L501.052 162.474L500.714 175.668L457.099 159.008L340.513 352.174L344.31 368.76Z" fill="#0D65A4"/>
<path d="M409.449 653.23L480.656 958.219L487.381 697.383L409.449 653.23Z" fill="#9D9D9D" fill-opacity="0.3"/>
<path d="M344.528 368.21L251.783 602.672L355.018 763.315L409.449 653.23L344.528 368.21Z" fill="#9D9D9D" fill-opacity="0.26"/>
<path d="M409.449 653.23L355.018 763.315L480.655 958.219L409.449 653.23Z" fill="#CDCDCD" fill-opacity="0.58"/>
<path d="M487.38 697.383L500.829 175.712L457.1 159.008L340.513 352.174L409.449 653.23L487.38 697.383Z" fill="#C4C4C4" fill-opacity="0.81"/>
<path d="M777.654 736.93L480.656 958.219L501.053 162.474L586.627 215.324L777.654 736.93Z" fill="#F0F0F0" fill-opacity="0.26"/>
</svg>
