<svg width="1500" height="1500" viewBox="0 0 1500 1500" fill="none" xmlns="http://www.w3.org/2000/svg">
<path d="M977.82 851.423H522.179V1236H977.82V851.423Z" fill="#B1B2B5"/>
<path d="M326 341.514C326 321.913 337.2 306 350.996 306H1136C1149.8 306 1161 321.913 1161 341.514V404.486C1161 424.087 1149.8 440 1136 440H350.996C337.2 440 326 424.087 326 404.486V341.514Z" fill="#292929"/>
<path d="M390 330H429V493H390V330Z" fill="#B1B2B5"/>
<path d="M454 330H493V493H454V330Z" fill="#B1B2B5"/>
<path d="M522 330H561V493H522V330Z" fill="#B1B2B5"/>
<path d="M589 330H628V493H589V330Z" fill="#B1B2B5"/>
<path d="M657 330H696V493H657V330Z" fill="#B1B2B5"/>
<path d="M723 330H762V493H723V330Z" fill="#B1B2B5"/>
<path d="M791 330H830V493H791V330Z" fill="#B1B2B5"/>
<path d="M858 330H897V493H858V330Z" fill="#B1B2B5"/>
<path d="M926 330H965V493H926V330Z" fill="#B1B2B5"/>
<path d="M990 330H1029V493H990V330Z" fill="#B1B2B5"/>
<path d="M1058 330H1097V493H1058V330Z" fill="#B1B2B5"/>
<path d="M272 411H1228V776.094L977.82 998.574L522.18 1000L272 776.094V411Z" fill="#3B3B3C"/>
<path fill-rule="evenodd" clip-rule="evenodd" d="M757.293 574.778L646.96 648.825L643.748 749.642L640.015 872.082L835.525 864.783L908.687 580.62L887.289 531.989L883.189 537.628L869.204 517.313L760.61 566.425L757.293 574.778Z" fill="#0D65A4"/>
<path d="M700.408 718.057L640.015 872.082L721.087 760.613L700.408 718.057Z" fill="#9D9D9D" fill-opacity="0.3"/>
<path d="M757.553 574.604L646.96 648.825L643.748 749.642L700.408 718.057L757.553 574.604Z" fill="#9D9D9D" fill-opacity="0.26"/>
<path d="M700.408 718.057L643.748 749.642L640.015 872.082L700.408 718.057Z" fill="#CDCDCD" fill-opacity="0.58"/>
<path d="M721.086 760.613L883.225 537.681L869.205 517.313L760.61 566.425L700.408 718.057L721.086 760.613Z" fill="#C4C4C4" fill-opacity="0.81"/>
<path d="M835.525 864.783L640.015 872.082L887.289 531.989L908.687 580.62L835.525 864.783Z" fill="#F0F0F0" fill-opacity="0.26"/>
</svg>
