<svg width="85" height="854" viewBox="0 0 85 854" fill="none" xmlns="http://www.w3.org/2000/svg">
<path d="M2.2793 791.248L42.7793 831.748L26.2793 791.248L2.2793 791.248Z" fill="#5E5E5E"/>
<path d="M43.2793 747.748L2.27979 791.248L26.2793 791.248L43.2793 747.748Z" fill="#353535"/>
<path d="M83.9779 791.756L42.779 748.248L59.9779 791.756L83.9779 791.756Z" fill="#5E5E5E"/>
<path d="M43.2793 831.748L83.9785 791.756L59.979 791.756L43.2793 831.748Z" fill="#353535"/>
<path d="M2.27832 670.247L42.7784 710.748L26.2783 670.247L2.27832 670.247Z" fill="#5E5E5E"/>
<path d="M43.2783 626.747L2.27881 670.247L26.2783 670.247L43.2783 626.747Z" fill="#353535"/>
<path d="M83.9769 670.756L42.778 627.247L59.9769 670.756L83.9769 670.756Z" fill="#5E5E5E"/>
<path d="M43.2783 710.747L83.9775 670.755L59.978 670.755L43.2783 710.747Z" fill="#353535"/>
<path d="M2.27832 551.247L42.7784 591.748L26.2783 551.247L2.27832 551.247Z" fill="#5E5E5E"/>
<path d="M43.2783 507.747L2.27881 551.247L26.2783 551.247L43.2783 507.747Z" fill="#353535"/>
<path d="M83.9769 551.756L42.778 508.247L59.9769 551.756L83.9769 551.756Z" fill="#5E5E5E"/>
<path d="M43.2783 591.747L83.9775 551.755L59.978 551.755L43.2783 591.747Z" fill="#353535"/>
<path d="M2.27832 429.247L42.7784 469.748L26.2783 429.247L2.27832 429.247Z" fill="#5E5E5E"/>
<path d="M43.2783 385.747L2.27881 429.247L26.2783 429.247L43.2783 385.747Z" fill="#353535"/>
<path d="M83.9769 429.756L42.778 386.247L59.9769 429.756L83.9769 429.756Z" fill="#5E5E5E"/>
<path d="M43.2783 469.747L83.9775 429.755L59.978 429.755L43.2783 469.747Z" fill="#353535"/>
<path d="M1.99121 310.005L42.4912 350.505L25.9912 310.005L1.99121 310.005Z" fill="#5E5E5E"/>
<path d="M42.9912 266.505L1.9917 310.005L25.9912 310.005L42.9912 266.505Z" fill="#353535"/>
<path d="M83.6898 310.513L42.4909 267.005L59.6898 310.513L83.6898 310.513Z" fill="#5E5E5E"/>
<path d="M42.9912 350.505L83.6904 310.513L59.6909 310.513L42.9912 350.505Z" fill="#353535"/>
<path d="M1.27881 188.248L41.7788 228.748L25.2788 188.248L1.27881 188.248Z" fill="#5E5E5E"/>
<path d="M42.2788 144.748L1.2793 188.248L25.2788 188.248L42.2788 144.748Z" fill="#353535"/>
<path d="M82.9774 188.756L41.7785 145.248L58.9774 188.756L82.9774 188.756Z" fill="#5E5E5E"/>
<path d="M42.2788 228.748L82.978 188.756L58.9785 188.756L42.2788 228.748Z" fill="#353535"/>
<path d="M2.27881 69.2476L42.7788 109.748L26.2788 69.2476L2.27881 69.2476Z" fill="#5E5E5E"/>
<path d="M43.2788 25.7477L2.2793 69.2477L26.2788 69.2477L43.2788 25.7477Z" fill="#353535"/>
<path d="M83.9774 69.7558L42.7785 26.2477L59.9774 69.7558L83.9774 69.7558Z" fill="#5E5E5E"/>
<path d="M43.2788 109.748L83.978 69.7557L59.9785 69.7557L43.2788 109.748Z" fill="#353535"/>
<path d="M42.832 793.64L42.8319 831.64L71.8321 849.64L42.832 793.64Z" fill="#1B1B1B"/>
<path d="M9.83203 849.64L42.8321 831.64L71.8326 849.64L9.83203 849.64Z" fill="#434343"/>
<path d="M42.8319 793.64L42.832 831.64L9.83199 849.64L42.8319 793.64Z" fill="#2B2B2B"/>
<path d="M13.689 728.639L42.6894 747.639L42.6893 785.639L13.689 728.639Z" fill="#1B1B1B"/>
<path d="M75.689 728.639L42.6894 747.639L42.6894 785.139L75.689 728.639Z" fill="#434343"/>
<path d="M13.6885 728.639L42.6893 747.639L75.689 728.639L13.6885 728.639Z" fill="#2B2B2B"/>
<path d="M42.689 672.639L42.6891 710.639L13.6889 728.639L42.689 672.639Z" fill="#1B1B1B"/>
<path d="M75.689 728.639L42.6889 710.639L13.6884 728.639L75.689 728.639Z" fill="#434343"/>
<path d="M42.6891 672.639L42.689 710.639L75.689 728.639L42.6891 672.639Z" fill="#2B2B2B"/>
<path d="M71.8311 607.639L42.8307 626.639L42.8307 664.639L71.8311 607.639Z" fill="#1B1B1B"/>
<path d="M9.83105 607.639L42.8307 626.639L42.8307 664.139L9.83105 607.639Z" fill="#434343"/>
<path d="M71.8315 607.639L42.8307 626.639L9.83105 607.639L71.8315 607.639Z" fill="#2B2B2B"/>
<path d="M42.8311 551.639L42.8309 589.639L71.8311 607.639L42.8311 551.639Z" fill="#1B1B1B"/>
<path d="M9.83105 607.639L42.8311 589.639L71.8316 607.639L9.83105 607.639Z" fill="#434343"/>
<path d="M42.8309 551.639L42.831 589.639L9.83101 607.639L42.8309 551.639Z" fill="#2B2B2B"/>
<path d="M13.689 487.639L42.6894 506.639L42.6893 544.639L13.689 487.639Z" fill="#1B1B1B"/>
<path d="M75.689 487.639L42.6894 506.639L42.6894 544.139L75.689 487.639Z" fill="#434343"/>
<path d="M13.6885 487.639L42.6893 506.639L75.689 487.639L13.6885 487.639Z" fill="#2B2B2B"/>
<path d="M42.689 431.639L42.6891 469.639L13.6889 487.639L42.689 431.639Z" fill="#1B1B1B"/>
<path d="M75.689 487.639L42.6889 469.639L13.6884 487.639L75.689 487.639Z" fill="#434343"/>
<path d="M42.6891 431.639L42.689 469.639L75.689 487.639L42.6891 431.639Z" fill="#2B2B2B"/>
<path d="M71.8311 368.64L42.8307 387.639L42.8307 425.639L71.8311 368.64Z" fill="#1B1B1B"/>
<path d="M9.83105 368.64L42.8307 387.639L42.8307 425.139L9.83105 368.64Z" fill="#434343"/>
<path d="M71.8315 368.639L42.8307 387.639L9.83105 368.64L71.8315 368.639Z" fill="#2B2B2B"/>
<path d="M42.8311 312.639L42.8309 350.639L71.8311 368.639L42.8311 312.639Z" fill="#1B1B1B"/>
<path d="M9.83105 368.639L42.8311 350.639L71.8316 368.639L9.83105 368.639Z" fill="#434343"/>
<path d="M42.8309 312.64L42.831 350.639L9.83101 368.639L42.8309 312.64Z" fill="#2B2B2B"/>
<path d="M13.6895 247.64L42.6898 266.64L42.6898 304.64L13.6895 247.64Z" fill="#1B1B1B"/>
<path d="M75.6895 247.64L42.6898 266.64L42.6898 304.14L75.6895 247.64Z" fill="#434343"/>
<path d="M13.689 247.64L42.6898 266.64L75.6895 247.64L13.689 247.64Z" fill="#2B2B2B"/>
<path d="M42.6895 191.64L42.6896 229.64L13.6894 247.64L42.6895 191.64Z" fill="#1B1B1B"/>
<path d="M75.6895 247.64L42.6894 229.64L13.6889 247.64L75.6895 247.64Z" fill="#434343"/>
<path d="M42.6896 191.64L42.6895 229.64L75.6895 247.64L42.6896 191.64Z" fill="#2B2B2B"/>
<path d="M71.8315 126.64L42.8311 145.64L42.8312 183.64L71.8315 126.64Z" fill="#1B1B1B"/>
<path d="M9.83154 126.64L42.8312 145.64L42.8311 183.14L9.83154 126.64Z" fill="#434343"/>
<path d="M71.832 126.64L42.8312 145.64L9.83154 126.64L71.832 126.64Z" fill="#2B2B2B"/>
<path d="M42.8315 70.6398L42.8314 108.64L71.8316 126.64L42.8315 70.6398Z" fill="#1B1B1B"/>
<path d="M9.83154 126.64L42.8316 108.64L71.8321 126.64L9.83154 126.64Z" fill="#434343"/>
<path d="M42.8314 70.6399L42.8315 108.64L9.8315 126.64L42.8314 70.6399Z" fill="#2B2B2B"/>
<path d="M13.6895 6.63989L42.6898 25.6396L42.6898 63.6397L13.6895 6.63989Z" fill="#1B1B1B"/>
<path d="M75.6895 6.63989L42.6898 25.6397L42.6898 63.1397L75.6895 6.63989Z" fill="#434343"/>
<path d="M13.689 6.63986L42.6898 25.6398L75.6895 6.63989L13.689 6.63986Z" fill="#2B2B2B"/>
</svg>
