<svg width="545" height="88" viewBox="0 0 545 88" fill="none" xmlns="http://www.w3.org/2000/svg">
<g opacity="0.4">
<path d="M478.922 76.0069L511.471 55.0132L545.145 70.4607L478.922 76.0069Z" fill="#B1B1B1" fill-opacity="0.3"/>
<path d="M507.508 19.2286L511.472 55.0131L545.145 70.4608L507.508 19.2286Z" fill="#434343" fill-opacity="0.7"/>
<path d="M478.921 76.007L511.471 55.013L507.508 19.2284L478.921 76.007Z" fill="#888888" fill-opacity="0.7"/>
<path d="M444.065 19.7356L477.769 38.821L478.922 76.0072L444.065 19.7356Z" fill="#B1B1B1" fill-opacity="0.3"/>
<path d="M507.508 19.2285L477.769 38.821L478.921 76.0072L507.508 19.2285Z" fill="#434343" fill-opacity="0.7"/>
<path d="M444.065 19.7355L477.769 38.8209L507.508 19.2286L444.065 19.7355Z" fill="#888888" fill-opacity="0.7"/>
<path d="M393.164 76.4521L391.982 37.7374L360.155 18.7751L393.164 76.4521Z" fill="#B1B1B1" fill-opacity="0.3"/>
<path d="M423.697 20.696L391.982 37.7374L360.155 18.7753L423.697 20.696Z" fill="#434343" fill-opacity="0.7"/>
<path d="M393.165 76.4524L391.982 37.7375L423.697 20.696L393.165 76.4524Z" fill="#888888" fill-opacity="0.7"/>
<path d="M459.278 73.2246L424.438 56.301L393.164 76.4523L459.278 73.2246Z" fill="#B1B1B1" fill-opacity="0.3"/>
<path d="M423.697 20.696L424.438 56.301L393.164 76.4523L423.697 20.696Z" fill="#434343" fill-opacity="0.7"/>
<path d="M459.278 73.2246L424.438 56.3008L423.697 20.6959L459.278 73.2246Z" fill="#888888" fill-opacity="0.7"/>
<path d="M340.309 16.9644L339.586 55.6904L370.441 76.1953L340.309 16.9644Z" fill="#B1B1B1" fill-opacity="0.3"/>
<path d="M307.071 71.1512L339.586 55.6904L370.442 76.195L307.071 71.1512Z" fill="#434343" fill-opacity="0.7"/>
<path d="M340.309 16.9641L339.586 55.6903L307.071 71.1512L340.309 16.9641Z" fill="#888888" fill-opacity="0.7"/>
<path d="M274.116 16.9363L308.082 35.553L340.309 16.9644L274.116 16.9363Z" fill="#B1B1B1" fill-opacity="0.3"/>
<path d="M307.071 71.1514L308.082 35.553L340.309 16.9644L307.071 71.1514Z" fill="#434343" fill-opacity="0.7"/>
<path d="M274.116 16.9361L308.082 35.553L307.071 71.1513L274.116 16.9361Z" fill="#888888" fill-opacity="0.7"/>
<path d="M252.11 15.9824L251.387 54.7084L282.243 75.2132L252.11 15.9824Z" fill="#B1B1B1" fill-opacity="0.3"/>
<path d="M218.872 70.1691L251.387 54.7084L282.243 75.2129L218.872 70.1691Z" fill="#434343" fill-opacity="0.7"/>
<path d="M252.11 15.982L251.387 54.7082L218.872 70.1691L252.11 15.982Z" fill="#888888" fill-opacity="0.7"/>
<path d="M185.918 15.9542L219.883 34.571L252.11 15.9824L185.918 15.9542Z" fill="#B1B1B1" fill-opacity="0.3"/>
<path d="M218.872 70.1694L219.883 34.571L252.11 15.9823L218.872 70.1694Z" fill="#434343" fill-opacity="0.7"/>
<path d="M185.917 15.954L219.883 34.571L218.872 70.1693L185.917 15.954Z" fill="#888888" fill-opacity="0.7"/>
<path d="M159.154 14.6853L158.431 53.4113L189.287 73.9161L159.154 14.6853Z" fill="#B1B1B1" fill-opacity="0.3"/>
<path d="M125.917 68.872L158.432 53.4113L189.287 73.9158L125.917 68.872Z" fill="#434343" fill-opacity="0.7"/>
<path d="M159.155 14.6849L158.431 53.4111L125.917 68.872L159.155 14.6849Z" fill="#888888" fill-opacity="0.7"/>
<path d="M92.9621 14.6571L126.927 33.2738L159.155 14.6853L92.9621 14.6571Z" fill="#B1B1B1" fill-opacity="0.3"/>
<path d="M125.917 68.8722L126.927 33.2739L159.155 14.6852L125.917 68.8722Z" fill="#434343" fill-opacity="0.7"/>
<path d="M92.9617 14.6569L126.927 33.2739L125.917 68.8722L92.9617 14.6569Z" fill="#888888" fill-opacity="0.7"/>
<path d="M67.7258 14.4729L67.0026 53.1989L97.8583 73.7037L67.7258 14.4729Z" fill="#B1B1B1" fill-opacity="0.3"/>
<path d="M34.4882 68.6596L67.0029 53.1988L97.8585 73.7034L34.4882 68.6596Z" fill="#434343" fill-opacity="0.7"/>
<path d="M67.7258 14.4725L67.0026 53.1987L34.4879 68.6596L67.7258 14.4725Z" fill="#888888" fill-opacity="0.7"/>
<path d="M1.53344 14.4447L35.4987 33.0614L67.7261 14.4728L1.53344 14.4447Z" fill="#B1B1B1" fill-opacity="0.3"/>
<path d="M34.4879 68.6598L35.4986 33.0615L67.7259 14.4728L34.4879 68.6598Z" fill="#434343" fill-opacity="0.7"/>
<path d="M1.53302 14.4445L35.4985 33.0614L34.4879 68.6598L1.53302 14.4445Z" fill="#888888" fill-opacity="0.7"/>
</g>
</svg>
