<svg width="855" height="88" viewBox="0 0 855 88" fill="none" xmlns="http://www.w3.org/2000/svg">
<path d="M63.2293 2.76551L22.6174 43.1535L63.163 26.7654L63.2293 2.76551Z" fill="#5E5E5E"/>
<path d="M106.616 43.8854L63.2297 2.76582L63.1634 26.7652L106.616 43.8854Z" fill="#353535"/>
<path d="M62.4959 84.4625L106.118 43.384L62.5622 60.4626L62.4959 84.4625Z" fill="#5E5E5E"/>
<path d="M22.6163 43.6536L62.4957 84.4631L62.562 60.4637L22.6163 43.6536Z" fill="#353535"/>
<path d="M184.23 3.09901L143.618 43.487L184.164 27.0989L184.23 3.09901Z" fill="#5E5E5E"/>
<path d="M227.617 44.2189L184.23 3.09932L184.164 27.0987L227.617 44.2189Z" fill="#353535"/>
<path d="M183.496 84.796L227.118 43.7175L183.563 60.7961L183.496 84.796Z" fill="#5E5E5E"/>
<path d="M143.617 43.9871L183.496 84.7966L183.562 60.7972L143.617 43.9871Z" fill="#353535"/>
<path d="M303.229 3.42786L262.617 43.8158L303.163 27.4278L303.229 3.42786Z" fill="#5E5E5E"/>
<path d="M346.616 44.5477L303.23 3.42818L303.163 27.4276L346.616 44.5477Z" fill="#353535"/>
<path d="M302.496 85.1248L346.118 44.0463L302.562 61.1249L302.496 85.1248Z" fill="#5E5E5E"/>
<path d="M262.616 44.3159L302.496 85.1255L302.562 61.1261L262.616 44.3159Z" fill="#353535"/>
<path d="M425.229 3.7649L384.617 44.1529L425.163 27.7648L425.229 3.7649Z" fill="#5E5E5E"/>
<path d="M468.616 44.8848L425.229 3.76521L425.163 27.7646L468.616 44.8848Z" fill="#353535"/>
<path d="M424.495 85.4619L468.117 44.3834L424.562 61.4619L424.495 85.4619Z" fill="#5E5E5E"/>
<path d="M384.616 44.653L424.495 85.4625L424.561 61.4631L384.616 44.653Z" fill="#353535"/>
<path d="M544.472 3.80714L503.86 44.1951L544.405 27.807L544.472 3.80714Z" fill="#5E5E5E"/>
<path d="M587.858 44.927L544.472 3.80745L544.406 27.8069L587.858 44.927Z" fill="#353535"/>
<path d="M543.738 85.5041L587.36 44.4256L543.804 61.5042L543.738 85.5041Z" fill="#5E5E5E"/>
<path d="M503.859 44.6952L543.738 85.5048L543.804 61.5053L503.859 44.6952Z" fill="#353535"/>
<path d="M666.23 3.43128L625.618 43.8193L666.164 27.4312L666.23 3.43128Z" fill="#5E5E5E"/>
<path d="M709.617 44.5511L666.231 3.43159L666.164 27.431L709.617 44.5511Z" fill="#353535"/>
<path d="M665.497 85.1282L709.119 44.0497L665.563 61.1283L665.497 85.1282Z" fill="#5E5E5E"/>
<path d="M625.617 44.3193L665.497 85.1289L665.563 61.1295L625.617 44.3193Z" fill="#353535"/>
<path d="M785.227 4.76014L744.615 45.1481L785.161 28.76L785.227 4.76014Z" fill="#5E5E5E"/>
<path d="M828.614 45.88L785.227 4.76045L785.161 28.7599L828.614 45.88Z" fill="#353535"/>
<path d="M784.493 86.4571L828.115 45.3786L784.56 62.4572L784.493 86.4571Z" fill="#5E5E5E"/>
<path d="M744.614 45.6482L784.493 86.4578L784.56 62.4583L744.614 45.6482Z" fill="#353535"/>
<path d="M60.7258 43.3111L22.7258 43.206L4.64586 72.1563L60.7258 43.3111Z" fill="#1B1B1B"/>
<path d="M4.81741 10.1563L22.7263 43.206L4.64603 72.1566L4.81741 10.1563Z" fill="#434343"/>
<path d="M60.7256 43.3107L22.7258 43.2058L4.81702 10.1562L60.7256 43.3107Z" fill="#2B2B2B"/>
<path d="M125.807 14.348L106.727 43.2958L68.7274 43.1908L125.807 14.348Z" fill="#1B1B1B"/>
<path d="M125.635 76.3478L106.727 43.2958L69.227 43.1922L125.635 76.3478Z" fill="#434343"/>
<path d="M125.807 14.3476L106.727 43.2959L125.636 76.3479L125.807 14.3476Z" fill="#2B2B2B"/>
<path d="M181.727 43.5026L143.727 43.3977L125.807 14.3479L181.727 43.5026Z" fill="#1B1B1B"/>
<path d="M125.636 76.3478L143.727 43.3976L125.807 14.3475L125.636 76.3478Z" fill="#434343"/>
<path d="M181.727 43.503L143.727 43.3979L125.636 76.348L181.727 43.503Z" fill="#2B2B2B"/>
<path d="M246.645 72.8242L227.726 43.7714L189.726 43.6665L246.645 72.8242Z" fill="#1B1B1B"/>
<path d="M246.816 10.8244L227.725 43.7714L190.226 43.6678L246.816 10.8244Z" fill="#434343"/>
<path d="M246.645 72.8245L227.726 43.7713L246.817 10.8243L246.645 72.8245Z" fill="#2B2B2B"/>
<path d="M302.725 43.9791L264.725 43.874L246.645 72.8243L302.725 43.9791Z" fill="#1B1B1B"/>
<path d="M246.817 10.8243L264.726 43.8739L246.646 72.8246L246.817 10.8243Z" fill="#434343"/>
<path d="M302.725 43.9787L264.725 43.8738L246.817 10.8242L302.725 43.9787Z" fill="#2B2B2B"/>
<path d="M366.806 15.0139L347.726 43.9617L309.726 43.8567L366.806 15.0139Z" fill="#1B1B1B"/>
<path d="M366.634 77.0137L347.726 43.9617L310.226 43.8581L366.634 77.0137Z" fill="#434343"/>
<path d="M366.806 15.0135L347.726 43.9618L366.635 77.0138L366.806 15.0135Z" fill="#2B2B2B"/>
<path d="M422.726 44.1685L384.726 44.0636L366.806 15.0138L422.726 44.1685Z" fill="#1B1B1B"/>
<path d="M366.635 77.0137L384.726 44.0635L366.806 15.0134L366.635 77.0137Z" fill="#434343"/>
<path d="M422.726 44.1689L384.726 44.0638L366.635 77.0139L422.726 44.1689Z" fill="#2B2B2B"/>
<path d="M485.644 73.4846L466.725 44.4318L428.725 44.3269L485.644 73.4846Z" fill="#1B1B1B"/>
<path d="M485.815 11.4848L466.724 44.4318L429.225 44.3282L485.815 11.4848Z" fill="#434343"/>
<path d="M485.645 73.4849L466.725 44.4317L485.816 11.4847L485.645 73.4849Z" fill="#2B2B2B"/>
<path d="M541.724 44.6395L503.724 44.5344L485.644 73.4847L541.724 44.6395Z" fill="#1B1B1B"/>
<path d="M485.816 11.4847L503.725 44.5343L485.645 73.485L485.816 11.4847Z" fill="#434343"/>
<path d="M541.724 44.6391L503.724 44.5342L485.816 11.4846L541.724 44.6391Z" fill="#2B2B2B"/>
<path d="M606.805 15.6774L587.725 44.6252L549.725 44.5201L606.805 15.6774Z" fill="#1B1B1B"/>
<path d="M606.633 77.6771L587.724 44.6252L550.225 44.5215L606.633 77.6771Z" fill="#434343"/>
<path d="M606.805 15.677L587.725 44.6252L606.633 77.6772L606.805 15.677Z" fill="#2B2B2B"/>
<path d="M662.724 44.8319L624.724 44.727L606.805 15.6772L662.724 44.8319Z" fill="#1B1B1B"/>
<path d="M606.633 77.6772L624.725 44.727L606.805 15.6768L606.633 77.6772Z" fill="#434343"/>
<path d="M662.724 44.8323L624.724 44.7272L606.633 77.6774L662.724 44.8323Z" fill="#2B2B2B"/>
<path d="M727.643 74.1537L708.724 45.1009L670.724 44.9959L727.643 74.1537Z" fill="#1B1B1B"/>
<path d="M727.814 12.1539L708.723 45.1009L671.224 44.9972L727.814 12.1539Z" fill="#434343"/>
<path d="M727.644 74.154L708.724 45.1008L727.815 12.1538L727.644 74.154Z" fill="#2B2B2B"/>
<path d="M783.723 45.3086L745.723 45.2034L727.643 74.1538L783.723 45.3086Z" fill="#1B1B1B"/>
<path d="M727.815 12.1537L745.724 45.2034L727.644 74.1541L727.815 12.1537Z" fill="#434343"/>
<path d="M783.723 45.3082L745.723 45.2032L727.815 12.1536L783.723 45.3082Z" fill="#2B2B2B"/>
<path d="M847.804 16.3433L828.724 45.2911L790.724 45.186L847.804 16.3433Z" fill="#1B1B1B"/>
<path d="M847.632 78.343L828.723 45.2911L791.224 45.1874L847.632 78.343Z" fill="#434343"/>
<path d="M847.804 16.3429L828.724 45.2911L847.632 78.3431L847.804 16.3429Z" fill="#2B2B2B"/>
</svg>
